%TF.GenerationSoftware,KiCad,Pcbnew,8.0.1*%
%TF.CreationDate,2025-02-20T00:44:45-08:00*%
%TF.ProjectId,tty2040,74747932-3034-4302-9e6b-696361645f70,a*%
%TF.SameCoordinates,Original*%
%TF.FileFunction,Copper,L2,Bot*%
%TF.FilePolarity,Positive*%
%FSLAX46Y46*%
G04 Gerber Fmt 4.6, Leading zero omitted, Abs format (unit mm)*
G04 Created by KiCad (PCBNEW 8.0.1) date 2025-02-20 00:44:45*
%MOMM*%
%LPD*%
G01*
G04 APERTURE LIST*
G04 Aperture macros list*
%AMRoundRect*
0 Rectangle with rounded corners*
0 $1 Rounding radius*
0 $2 $3 $4 $5 $6 $7 $8 $9 X,Y pos of 4 corners*
0 Add a 4 corners polygon primitive as box body*
4,1,4,$2,$3,$4,$5,$6,$7,$8,$9,$2,$3,0*
0 Add four circle primitives for the rounded corners*
1,1,$1+$1,$2,$3*
1,1,$1+$1,$4,$5*
1,1,$1+$1,$6,$7*
1,1,$1+$1,$8,$9*
0 Add four rect primitives between the rounded corners*
20,1,$1+$1,$2,$3,$4,$5,0*
20,1,$1+$1,$4,$5,$6,$7,0*
20,1,$1+$1,$6,$7,$8,$9,0*
20,1,$1+$1,$8,$9,$2,$3,0*%
%AMFreePoly0*
4,1,28,0.605014,0.794986,0.644504,0.794986,0.724698,0.756366,0.780194,0.686777,0.800000,0.600000,0.800000,-0.600000,0.780194,-0.686777,0.724698,-0.756366,0.644504,-0.794986,0.605014,-0.794986,0.600000,-0.800000,0.000000,-0.800000,-0.178017,-0.779942,-0.347107,-0.720775,-0.498792,-0.625465,-0.625465,-0.498792,-0.720775,-0.347107,-0.779942,-0.178017,-0.800000,0.000000,-0.779942,0.178017,
-0.720775,0.347107,-0.625465,0.498792,-0.498792,0.625465,-0.347107,0.720775,-0.178017,0.779942,0.000000,0.800000,0.600000,0.800000,0.605014,0.794986,0.605014,0.794986,$1*%
%AMFreePoly1*
4,1,28,0.178017,0.779942,0.347107,0.720775,0.498792,0.625465,0.625465,0.498792,0.720775,0.347107,0.779942,0.178017,0.800000,0.000000,0.779942,-0.178017,0.720775,-0.347107,0.625465,-0.498792,0.498792,-0.625465,0.347107,-0.720775,0.178017,-0.779942,0.000000,-0.800000,-0.600000,-0.800000,-0.605014,-0.794986,-0.644504,-0.794986,-0.724698,-0.756366,-0.780194,-0.686777,-0.800000,-0.600000,
-0.800000,0.600000,-0.780194,0.686777,-0.724698,0.756366,-0.644504,0.794986,-0.605014,0.794986,-0.600000,0.800000,0.000000,0.800000,0.178017,0.779942,0.178017,0.779942,$1*%
G04 Aperture macros list end*
%TA.AperFunction,ComponentPad*%
%ADD10R,2.100000X2.100000*%
%TD*%
%TA.AperFunction,ComponentPad*%
%ADD11C,2.100000*%
%TD*%
%TA.AperFunction,ComponentPad*%
%ADD12RoundRect,0.200000X-0.600000X0.600000X-0.600000X-0.600000X0.600000X-0.600000X0.600000X0.600000X0*%
%TD*%
%TA.AperFunction,ComponentPad*%
%ADD13C,1.600000*%
%TD*%
%TA.AperFunction,ComponentPad*%
%ADD14FreePoly0,270.000000*%
%TD*%
%TA.AperFunction,ComponentPad*%
%ADD15FreePoly1,270.000000*%
%TD*%
%TA.AperFunction,ViaPad*%
%ADD16C,0.600000*%
%TD*%
%TA.AperFunction,Conductor*%
%ADD17C,0.200000*%
%TD*%
%TA.AperFunction,Conductor*%
%ADD18C,0.400000*%
%TD*%
G04 APERTURE END LIST*
D10*
%TO.P,J2,1,Pin_1*%
%TO.N,Net-(D2-A)*%
X183230000Y-64500000D03*
D11*
%TO.P,J2,2,Pin_2*%
%TO.N,Net-(D2-C)*%
X188230000Y-64500000D03*
%TD*%
D10*
%TO.P,J11,1,Pin_1*%
%TO.N,Net-(J11-Pin_1)*%
X130095000Y-136350000D03*
D11*
%TO.P,J11,2,Pin_2*%
%TO.N,Net-(J11-Pin_2)*%
X125095000Y-136350000D03*
%TD*%
D10*
%TO.P,J10,1,Pin_1*%
%TO.N,Net-(D10-A)*%
X115770000Y-136350000D03*
D11*
%TO.P,J10,2,Pin_2*%
%TO.N,Net-(D10-C)*%
X110770000Y-136350000D03*
%TD*%
D10*
%TO.P,J5,1,Pin_1*%
%TO.N,Net-(J5-Pin_1)*%
X140250000Y-64500000D03*
D11*
%TO.P,J5,2,Pin_2*%
%TO.N,Net-(J5-Pin_2)*%
X145250000Y-64500000D03*
%TD*%
D10*
%TO.P,J1,1,Pin_1*%
%TO.N,Net-(J1-Pin_1)*%
X199730000Y-64500000D03*
D11*
%TO.P,J1,2,Pin_2*%
%TO.N,Net-(J1-Pin_2)*%
X204730000Y-64500000D03*
%TD*%
D10*
%TO.P,J8,1,Pin_1*%
%TO.N,Net-(D8-A)*%
X93212500Y-64212500D03*
D11*
%TO.P,J8,2,Pin_2*%
%TO.N,Net-(D8-C)*%
X98212500Y-64212500D03*
%TD*%
D10*
%TO.P,J7,1,Pin_1*%
%TO.N,Net-(J7-Pin_1)*%
X109712500Y-64212500D03*
D11*
%TO.P,J7,2,Pin_2*%
%TO.N,Net-(J7-Pin_2)*%
X114712500Y-64212500D03*
%TD*%
D10*
%TO.P,J9,1,Pin_1*%
%TO.N,Net-(J9-Pin_1)*%
X99270000Y-136350000D03*
D11*
%TO.P,J9,2,Pin_2*%
%TO.N,Net-(J9-Pin_2)*%
X94270000Y-136350000D03*
%TD*%
D10*
%TO.P,J12,1,Pin_1*%
%TO.N,Net-(D12-A)*%
X146595000Y-136350000D03*
D11*
%TO.P,J12,2,Pin_2*%
%TO.N,Net-(D12-C)*%
X141595000Y-136350000D03*
%TD*%
D10*
%TO.P,J4,1,Pin_1*%
%TO.N,Net-(D4-A)*%
X152250000Y-64520000D03*
D11*
%TO.P,J4,2,Pin_2*%
%TO.N,Net-(D4-C)*%
X157250000Y-64520000D03*
%TD*%
D12*
%TO.P,A1,1,GPIO0*%
%TO.N,/Loop1/TO_LOOP*%
X201130000Y-110610000D03*
D13*
%TO.P,A1,2,GPIO1*%
%TO.N,/Loop1/FROM_LOOP*%
X198590000Y-110610000D03*
D14*
%TO.P,A1,3,GND*%
%TO.N,GND*%
X196050000Y-110610000D03*
D13*
%TO.P,A1,4,GPIO2*%
%TO.N,ACT1*%
X193510000Y-110610000D03*
%TO.P,A1,5,GPIO3*%
%TO.N,ACT2*%
X190970000Y-110610000D03*
%TO.P,A1,6,GPIO4*%
%TO.N,/Loop2/TO_LOOP*%
X188430000Y-110610000D03*
%TO.P,A1,7,GPIO5*%
%TO.N,/Loop2/FROM_LOOP*%
X185890000Y-110610000D03*
D14*
%TO.P,A1,8,GND*%
%TO.N,GND*%
X183350000Y-110610000D03*
D13*
%TO.P,A1,9,GPIO6*%
%TO.N,ACT3*%
X180810000Y-110610000D03*
%TO.P,A1,10,GPIO7*%
%TO.N,ACT4*%
X178270000Y-110610000D03*
%TO.P,A1,11,GPIO8*%
%TO.N,/Loop3/TO_LOOP*%
X175730000Y-110610000D03*
%TO.P,A1,12,GPIO9*%
%TO.N,/Loop3/FROM_LOOP*%
X173190000Y-110610000D03*
D14*
%TO.P,A1,13,GND*%
%TO.N,GND*%
X170650000Y-110610000D03*
D13*
%TO.P,A1,14,GPIO10*%
%TO.N,ACT5*%
X168110000Y-110610000D03*
%TO.P,A1,15,GPIO11*%
%TO.N,ACT6*%
X165570000Y-110610000D03*
%TO.P,A1,16,GPIO12*%
%TO.N,/Loop4/TO_LOOP*%
X163030000Y-110610000D03*
%TO.P,A1,17,GPIO13*%
%TO.N,/Loop4/FROM_LOOP*%
X160490000Y-110610000D03*
D14*
%TO.P,A1,18,GND*%
%TO.N,GND*%
X157950000Y-110610000D03*
D13*
%TO.P,A1,19,GPIO14*%
%TO.N,unconnected-(A1-GPIO14-Pad19)*%
X155410000Y-110610000D03*
%TO.P,A1,20,GPIO15*%
%TO.N,unconnected-(A1-GPIO15-Pad20)*%
X152870000Y-110610000D03*
%TO.P,A1,21,GPIO16*%
%TO.N,/Loop5/TO_LOOP*%
X152870000Y-128390000D03*
%TO.P,A1,22,GPIO17*%
%TO.N,/Loop5/FROM_LOOP*%
X155410000Y-128390000D03*
D15*
%TO.P,A1,23,GND*%
%TO.N,GND*%
X157950000Y-128390000D03*
D13*
%TO.P,A1,24,GPIO18*%
%TO.N,unconnected-(A1-GPIO18-Pad24)*%
X160490000Y-128390000D03*
%TO.P,A1,25,GPIO19*%
%TO.N,unconnected-(A1-GPIO19-Pad25)*%
X163030000Y-128390000D03*
%TO.P,A1,26,GPIO20*%
%TO.N,/Loop6/TO_LOOP*%
X165570000Y-128390000D03*
%TO.P,A1,27,GPIO21*%
%TO.N,/Loop6/FROM_LOOP*%
X168110000Y-128390000D03*
D15*
%TO.P,A1,28,GND*%
%TO.N,GND*%
X170650000Y-128390000D03*
D13*
%TO.P,A1,29,GPIO22*%
%TO.N,unconnected-(A1-GPIO22-Pad29)*%
X173190000Y-128390000D03*
%TO.P,A1,30,RUN*%
%TO.N,unconnected-(A1-RUN-Pad30)*%
X175730000Y-128390000D03*
%TO.P,A1,31,GPIO26_ADC0*%
%TO.N,unconnected-(A1-GPIO26_ADC0-Pad31)*%
X178270000Y-128390000D03*
%TO.P,A1,32,GPIO27_ADC1*%
%TO.N,unconnected-(A1-GPIO27_ADC1-Pad32)*%
X180810000Y-128390000D03*
D15*
%TO.P,A1,33,AGND*%
%TO.N,unconnected-(A1-AGND-Pad33)*%
X183350000Y-128390000D03*
D13*
%TO.P,A1,34,GPIO28_ADC2*%
%TO.N,unconnected-(A1-GPIO28_ADC2-Pad34)*%
X185890000Y-128390000D03*
%TO.P,A1,35,ADC_VREF*%
%TO.N,unconnected-(A1-ADC_VREF-Pad35)*%
X188430000Y-128390000D03*
%TO.P,A1,36,3V3*%
%TO.N,VCC*%
X190970000Y-128390000D03*
%TO.P,A1,37,3V3_EN*%
%TO.N,unconnected-(A1-3V3_EN-Pad37)*%
X193510000Y-128390000D03*
D15*
%TO.P,A1,38,GND*%
%TO.N,GND*%
X196050000Y-128390000D03*
D13*
%TO.P,A1,39,VSYS*%
%TO.N,unconnected-(A1-VSYS-Pad39)*%
X198590000Y-128390000D03*
%TO.P,A1,40,VBUS*%
%TO.N,unconnected-(A1-VBUS-Pad40)*%
X201130000Y-128390000D03*
%TD*%
D10*
%TO.P,J3,1,Pin_1*%
%TO.N,Net-(J3-Pin_1)*%
X168750000Y-64520000D03*
D11*
%TO.P,J3,2,Pin_2*%
%TO.N,Net-(J3-Pin_2)*%
X173750000Y-64520000D03*
%TD*%
D10*
%TO.P,J6,1,Pin_1*%
%TO.N,Net-(D6-A)*%
X123750000Y-64500000D03*
D11*
%TO.P,J6,2,Pin_2*%
%TO.N,Net-(D6-C)*%
X128750000Y-64500000D03*
%TD*%
D16*
%TO.N,VCC*%
X142310000Y-93520000D03*
X97210000Y-105000000D03*
X201790000Y-93520000D03*
X170810000Y-93540000D03*
X128035000Y-107330000D03*
X191250000Y-126500000D03*
X111772500Y-93232500D03*
X97210000Y-107330000D03*
%TO.N,/Loop5/TO_LOOP*%
X149280329Y-121469667D03*
X115813312Y-104400000D03*
%TO.N,/Loop5/FROM_LOOP*%
X103750000Y-103750000D03*
%TO.N,/Loop4/FROM_LOOP*%
X107000000Y-99000000D03*
%TO.N,/Loop6/TO_LOOP*%
X145750000Y-106000000D03*
%TO.N,/Loop3/TO_LOOP*%
X129000000Y-96500000D03*
%TO.N,/Loop6/FROM_LOOP*%
X163000000Y-131500000D03*
X134250000Y-103750000D03*
%TO.N,/Loop2/FROM_LOOP*%
X164499998Y-95750000D03*
%TO.N,/Loop1/TO_LOOP*%
X201000000Y-106500000D03*
X194000000Y-97500000D03*
%TO.N,/Loop4/TO_LOOP*%
X98000000Y-97000000D03*
%TO.N,/Loop3/FROM_LOOP*%
X142250000Y-97750000D03*
X173250000Y-105250000D03*
%TO.N,/Loop2/TO_LOOP*%
X157250000Y-95250000D03*
%TD*%
D17*
%TO.N,/Loop3/FROM_LOOP*%
X142750000Y-97250000D02*
X142250000Y-97750000D01*
%TO.N,/Loop6/FROM_LOOP*%
X153387767Y-127140000D02*
X154160000Y-127912233D01*
%TO.N,/Loop4/TO_LOOP*%
X99250000Y-95750000D02*
X111250000Y-95750000D01*
%TO.N,/Loop3/FROM_LOOP*%
X173250000Y-98000000D02*
X172500000Y-97250000D01*
%TO.N,/Loop4/FROM_LOOP*%
X160490000Y-110610000D02*
X160490000Y-99990000D01*
X159750000Y-99250000D02*
X107250000Y-99250000D01*
%TO.N,/Loop4/TO_LOOP*%
X163030000Y-99530000D02*
X163030000Y-110610000D01*
%TO.N,/Loop3/FROM_LOOP*%
X172500000Y-97250000D02*
X142750000Y-97250000D01*
%TO.N,/Loop5/TO_LOOP*%
X119463312Y-100750000D02*
X144000000Y-100750000D01*
%TO.N,/Loop4/TO_LOOP*%
X114000000Y-98500000D02*
X162000000Y-98500000D01*
%TO.N,/Loop3/FROM_LOOP*%
X173250000Y-105250000D02*
X173250000Y-98000000D01*
%TO.N,/Loop4/TO_LOOP*%
X162000000Y-98500000D02*
X163030000Y-99530000D01*
%TO.N,/Loop5/TO_LOOP*%
X144000000Y-100750000D02*
X149500000Y-106250000D01*
X149500000Y-106250000D02*
X149500000Y-121249996D01*
%TO.N,/Loop6/FROM_LOOP*%
X154160000Y-127912233D02*
X154160000Y-128907767D01*
%TO.N,/Loop5/TO_LOOP*%
X149500000Y-121249996D02*
X149280329Y-121469667D01*
X115813312Y-104400000D02*
X119463312Y-100750000D01*
%TO.N,/Loop5/FROM_LOOP*%
X107500000Y-100000000D02*
X144750000Y-100000000D01*
%TO.N,/Loop6/FROM_LOOP*%
X152640000Y-127140000D02*
X153387767Y-127140000D01*
X134250000Y-103750000D02*
X144750000Y-103750000D01*
%TO.N,/Loop4/TO_LOOP*%
X98000000Y-97000000D02*
X99250000Y-95750000D01*
X111250000Y-95750000D02*
X114000000Y-98500000D01*
%TO.N,/Loop4/FROM_LOOP*%
X160490000Y-99990000D02*
X159750000Y-99250000D01*
X107250000Y-99250000D02*
X107000000Y-99000000D01*
%TO.N,/Loop6/FROM_LOOP*%
X144750000Y-103750000D02*
X147665639Y-106665639D01*
X147665639Y-122165639D02*
X152640000Y-127140000D01*
%TO.N,/Loop5/FROM_LOOP*%
X103750000Y-103750000D02*
X107500000Y-100000000D01*
X144750000Y-100000000D02*
X150840992Y-106090992D01*
%TO.N,/Loop6/FROM_LOOP*%
X154160000Y-128907767D02*
X156752233Y-131500000D01*
%TO.N,/Loop5/FROM_LOOP*%
X150840992Y-106090992D02*
X150840992Y-122689622D01*
X155410000Y-127258630D02*
X155410000Y-128390000D01*
X150840992Y-122689622D02*
X155410000Y-127258630D01*
%TO.N,/Loop6/FROM_LOOP*%
X147665639Y-106665639D02*
X147665639Y-122165639D01*
X156752233Y-131500000D02*
X163000000Y-131500000D01*
%TO.N,/Loop6/TO_LOOP*%
X163750000Y-132250000D02*
X165570000Y-130430000D01*
X154962233Y-132250000D02*
X163750000Y-132250000D01*
X151620000Y-127495000D02*
X151620000Y-128907767D01*
X146750000Y-122625000D02*
X151620000Y-127495000D01*
X146750000Y-107000000D02*
X146750000Y-122625000D01*
X151620000Y-128907767D02*
X154962233Y-132250000D01*
X165570000Y-130430000D02*
X165570000Y-128390000D01*
X145750000Y-106000000D02*
X146750000Y-107000000D01*
%TO.N,VCC*%
X98460000Y-93540000D02*
X97250000Y-94750000D01*
X142330000Y-93540000D02*
X142310000Y-93520000D01*
X97250000Y-94750000D02*
X97250000Y-104960000D01*
D18*
X171980000Y-93520000D02*
X142750000Y-93520000D01*
D17*
X97210000Y-107330000D02*
X128035000Y-107330000D01*
D18*
X142750000Y-93520000D02*
X142310000Y-93520000D01*
D17*
X112080000Y-93540000D02*
X111772500Y-93232500D01*
X112500000Y-93540000D02*
X112080000Y-93540000D01*
D18*
X172000000Y-93540000D02*
X170810000Y-93540000D01*
X191250000Y-95000000D02*
X192730000Y-93520000D01*
X191250000Y-95000000D02*
X189790000Y-93540000D01*
X142750000Y-93520000D02*
X112060000Y-93520000D01*
X189790000Y-93540000D02*
X172000000Y-93540000D01*
D17*
X112500000Y-93540000D02*
X98460000Y-93540000D01*
D18*
X192250000Y-96000000D02*
X191250000Y-95000000D01*
X191250000Y-126500000D02*
X192250000Y-125500000D01*
X192730000Y-93520000D02*
X201790000Y-93520000D01*
D17*
X143250000Y-93540000D02*
X142330000Y-93540000D01*
D18*
X112060000Y-93520000D02*
X111772500Y-93232500D01*
X172000000Y-93540000D02*
X171980000Y-93520000D01*
X192250000Y-125500000D02*
X192250000Y-96000000D01*
D17*
X97250000Y-104960000D02*
X97210000Y-105000000D01*
%TO.N,/Loop3/TO_LOOP*%
X175730000Y-97730000D02*
X174500000Y-96500000D01*
X175730000Y-110610000D02*
X175730000Y-97730000D01*
X174500000Y-96500000D02*
X129000000Y-96500000D01*
%TO.N,/Loop2/FROM_LOOP*%
X185000000Y-95750000D02*
X164499998Y-95750000D01*
X185890000Y-96640000D02*
X185000000Y-95750000D01*
X185890000Y-110610000D02*
X185890000Y-96640000D01*
%TO.N,/Loop1/TO_LOOP*%
X200000000Y-100500000D02*
X201000000Y-101500000D01*
X194000000Y-97500000D02*
X197000000Y-100500000D01*
X201000000Y-101500000D02*
X201000000Y-106500000D01*
X197000000Y-100500000D02*
X200000000Y-100500000D01*
%TO.N,/Loop2/TO_LOOP*%
X157500000Y-95000000D02*
X157250000Y-95250000D01*
X188430000Y-110610000D02*
X188430000Y-96180000D01*
X187250000Y-95000000D02*
X157500000Y-95000000D01*
X188430000Y-96180000D02*
X187250000Y-95000000D01*
%TD*%
M02*
