%TF.GenerationSoftware,KiCad,Pcbnew,8.0.1*%
%TF.CreationDate,2025-02-20T00:44:50-08:00*%
%TF.ProjectId,tty2040,74747932-3034-4302-9e6b-696361645f70,a*%
%TF.SameCoordinates,Original*%
%TF.FileFunction,Soldermask,Bot*%
%TF.FilePolarity,Negative*%
%FSLAX46Y46*%
G04 Gerber Fmt 4.6, Leading zero omitted, Abs format (unit mm)*
G04 Created by KiCad (PCBNEW 8.0.1) date 2025-02-20 00:44:50*
%MOMM*%
%LPD*%
G01*
G04 APERTURE LIST*
G04 Aperture macros list*
%AMRoundRect*
0 Rectangle with rounded corners*
0 $1 Rounding radius*
0 $2 $3 $4 $5 $6 $7 $8 $9 X,Y pos of 4 corners*
0 Add a 4 corners polygon primitive as box body*
4,1,4,$2,$3,$4,$5,$6,$7,$8,$9,$2,$3,0*
0 Add four circle primitives for the rounded corners*
1,1,$1+$1,$2,$3*
1,1,$1+$1,$4,$5*
1,1,$1+$1,$6,$7*
1,1,$1+$1,$8,$9*
0 Add four rect primitives between the rounded corners*
20,1,$1+$1,$2,$3,$4,$5,0*
20,1,$1+$1,$4,$5,$6,$7,0*
20,1,$1+$1,$6,$7,$8,$9,0*
20,1,$1+$1,$8,$9,$2,$3,0*%
%AMFreePoly0*
4,1,28,0.605014,0.794986,0.644504,0.794986,0.724698,0.756366,0.780194,0.686777,0.800000,0.600000,0.800000,-0.600000,0.780194,-0.686777,0.724698,-0.756366,0.644504,-0.794986,0.605014,-0.794986,0.600000,-0.800000,0.000000,-0.800000,-0.178017,-0.779942,-0.347107,-0.720775,-0.498792,-0.625465,-0.625465,-0.498792,-0.720775,-0.347107,-0.779942,-0.178017,-0.800000,0.000000,-0.779942,0.178017,
-0.720775,0.347107,-0.625465,0.498792,-0.498792,0.625465,-0.347107,0.720775,-0.178017,0.779942,0.000000,0.800000,0.600000,0.800000,0.605014,0.794986,0.605014,0.794986,$1*%
%AMFreePoly1*
4,1,28,0.178017,0.779942,0.347107,0.720775,0.498792,0.625465,0.625465,0.498792,0.720775,0.347107,0.779942,0.178017,0.800000,0.000000,0.779942,-0.178017,0.720775,-0.347107,0.625465,-0.498792,0.498792,-0.625465,0.347107,-0.720775,0.178017,-0.779942,0.000000,-0.800000,-0.600000,-0.800000,-0.605014,-0.794986,-0.644504,-0.794986,-0.724698,-0.756366,-0.780194,-0.686777,-0.800000,-0.600000,
-0.800000,0.600000,-0.780194,0.686777,-0.724698,0.756366,-0.644504,0.794986,-0.605014,0.794986,-0.600000,0.800000,0.000000,0.800000,0.178017,0.779942,0.178017,0.779942,$1*%
G04 Aperture macros list end*
%ADD10R,2.100000X2.100000*%
%ADD11C,2.100000*%
%ADD12C,2.700000*%
%ADD13C,2.200000*%
%ADD14C,1.850000*%
%ADD15RoundRect,0.200000X-0.600000X0.600000X-0.600000X-0.600000X0.600000X-0.600000X0.600000X0.600000X0*%
%ADD16C,1.600000*%
%ADD17FreePoly0,270.000000*%
%ADD18FreePoly1,270.000000*%
G04 APERTURE END LIST*
D10*
%TO.C,J2*%
X183230000Y-64500000D03*
D11*
X188230000Y-64500000D03*
%TD*%
D10*
%TO.C,J11*%
X130095000Y-136350000D03*
D11*
X125095000Y-136350000D03*
%TD*%
D10*
%TO.C,J10*%
X115770000Y-136350000D03*
D11*
X110770000Y-136350000D03*
%TD*%
D10*
%TO.C,J5*%
X140250000Y-64500000D03*
D11*
X145250000Y-64500000D03*
%TD*%
D12*
%TO.C,H2*%
X83250000Y-64250000D03*
%TD*%
D10*
%TO.C,J1*%
X199730000Y-64500000D03*
D11*
X204730000Y-64500000D03*
%TD*%
D10*
%TO.C,J8*%
X93212500Y-64212500D03*
D11*
X98212500Y-64212500D03*
%TD*%
D10*
%TO.C,J7*%
X109712500Y-64212500D03*
D11*
X114712500Y-64212500D03*
%TD*%
D12*
%TO.C,H1*%
X214500000Y-64000000D03*
%TD*%
%TO.C,H4*%
X83250000Y-136500000D03*
%TD*%
D10*
%TO.C,J9*%
X99270000Y-136350000D03*
D11*
X94270000Y-136350000D03*
%TD*%
D10*
%TO.C,J12*%
X146595000Y-136350000D03*
D11*
X141595000Y-136350000D03*
%TD*%
D10*
%TO.C,J4*%
X152250000Y-64520000D03*
D11*
X157250000Y-64520000D03*
%TD*%
D12*
%TO.C,H3*%
X214500000Y-136500000D03*
%TD*%
D13*
%TO.C,A1*%
X201000000Y-116775000D03*
D14*
X197970000Y-117075000D03*
X197970000Y-121925000D03*
D13*
X201000000Y-122225000D03*
D15*
X201130000Y-110610000D03*
D16*
X198590000Y-110610000D03*
D17*
X196050000Y-110610000D03*
D16*
X193510000Y-110610000D03*
X190970000Y-110610000D03*
X188430000Y-110610000D03*
X185890000Y-110610000D03*
D17*
X183350000Y-110610000D03*
D16*
X180810000Y-110610000D03*
X178270000Y-110610000D03*
X175730000Y-110610000D03*
X173190000Y-110610000D03*
D17*
X170650000Y-110610000D03*
D16*
X168110000Y-110610000D03*
X165570000Y-110610000D03*
X163030000Y-110610000D03*
X160490000Y-110610000D03*
D17*
X157950000Y-110610000D03*
D16*
X155410000Y-110610000D03*
X152870000Y-110610000D03*
X152870000Y-128390000D03*
X155410000Y-128390000D03*
D18*
X157950000Y-128390000D03*
D16*
X160490000Y-128390000D03*
X163030000Y-128390000D03*
X165570000Y-128390000D03*
X168110000Y-128390000D03*
D18*
X170650000Y-128390000D03*
D16*
X173190000Y-128390000D03*
X175730000Y-128390000D03*
X178270000Y-128390000D03*
X180810000Y-128390000D03*
D18*
X183350000Y-128390000D03*
D16*
X185890000Y-128390000D03*
X188430000Y-128390000D03*
X190970000Y-128390000D03*
X193510000Y-128390000D03*
D18*
X196050000Y-128390000D03*
D16*
X198590000Y-128390000D03*
X201130000Y-128390000D03*
%TD*%
D10*
%TO.C,J3*%
X168750000Y-64520000D03*
D11*
X173750000Y-64520000D03*
%TD*%
D10*
%TO.C,J6*%
X123750000Y-64500000D03*
D11*
X128750000Y-64500000D03*
%TD*%
M02*
