%TF.GenerationSoftware,KiCad,Pcbnew,8.0.1*%
%TF.CreationDate,2025-03-11T09:06:03-07:00*%
%TF.ProjectId,tty2040,74747932-3034-4302-9e6b-696361645f70,B-rc1*%
%TF.SameCoordinates,Original*%
%TF.FileFunction,Copper,L1,Top*%
%TF.FilePolarity,Positive*%
%FSLAX46Y46*%
G04 Gerber Fmt 4.6, Leading zero omitted, Abs format (unit mm)*
G04 Created by KiCad (PCBNEW 8.0.1) date 2025-03-11 09:06:03*
%MOMM*%
%LPD*%
G01*
G04 APERTURE LIST*
G04 Aperture macros list*
%AMRoundRect*
0 Rectangle with rounded corners*
0 $1 Rounding radius*
0 $2 $3 $4 $5 $6 $7 $8 $9 X,Y pos of 4 corners*
0 Add a 4 corners polygon primitive as box body*
4,1,4,$2,$3,$4,$5,$6,$7,$8,$9,$2,$3,0*
0 Add four circle primitives for the rounded corners*
1,1,$1+$1,$2,$3*
1,1,$1+$1,$4,$5*
1,1,$1+$1,$6,$7*
1,1,$1+$1,$8,$9*
0 Add four rect primitives between the rounded corners*
20,1,$1+$1,$2,$3,$4,$5,0*
20,1,$1+$1,$4,$5,$6,$7,0*
20,1,$1+$1,$6,$7,$8,$9,0*
20,1,$1+$1,$8,$9,$2,$3,0*%
%AMFreePoly0*
4,1,28,0.178017,0.779942,0.347107,0.720775,0.498792,0.625465,0.625465,0.498792,0.720775,0.347107,0.779942,0.178017,0.800000,0.000000,0.779942,-0.178017,0.720775,-0.347107,0.625465,-0.498792,0.498792,-0.625465,0.347107,-0.720775,0.178017,-0.779942,0.000000,-0.800000,-2.200000,-0.800000,-2.205014,-0.794986,-2.244504,-0.794986,-2.324698,-0.756366,-2.380194,-0.686777,-2.400000,-0.600000,
-2.400000,0.600000,-2.380194,0.686777,-2.324698,0.756366,-2.244504,0.794986,-2.205014,0.794986,-2.200000,0.800000,0.000000,0.800000,0.178017,0.779942,0.178017,0.779942,$1*%
%AMFreePoly1*
4,1,28,0.605014,0.794986,0.644504,0.794986,0.724698,0.756366,0.780194,0.686777,0.800000,0.600000,0.800000,-0.600000,0.780194,-0.686777,0.724698,-0.756366,0.644504,-0.794986,0.605014,-0.794986,0.600000,-0.800000,0.000000,-0.800000,-0.178017,-0.779942,-0.347107,-0.720775,-0.498792,-0.625465,-0.625465,-0.498792,-0.720775,-0.347107,-0.779942,-0.178017,-0.800000,0.000000,-0.779942,0.178017,
-0.720775,0.347107,-0.625465,0.498792,-0.498792,0.625465,-0.347107,0.720775,-0.178017,0.779942,0.000000,0.800000,0.600000,0.800000,0.605014,0.794986,0.605014,0.794986,$1*%
%AMFreePoly2*
4,1,29,0.605014,0.794986,0.644504,0.794986,0.724698,0.756366,0.780194,0.686777,0.800000,0.600000,0.800000,-0.600000,0.780194,-0.686777,0.724698,-0.756366,0.644504,-0.794986,0.605014,-0.794986,0.600000,-0.800000,0.000000,-0.800000,-1.600000,-0.800000,-1.778017,-0.779942,-1.947107,-0.720775,-2.098792,-0.625465,-2.225465,-0.498792,-2.320775,-0.347107,-2.379942,-0.178017,-2.400000,0.000000,
-2.379942,0.178017,-2.320775,0.347107,-2.225465,0.498792,-2.098792,0.625465,-1.947107,0.720775,-1.778017,0.779942,-1.600000,0.800000,0.600000,0.800000,0.605014,0.794986,0.605014,0.794986,$1*%
%AMFreePoly3*
4,1,28,0.178017,0.779942,0.347107,0.720775,0.498792,0.625465,0.625465,0.498792,0.720775,0.347107,0.779942,0.178017,0.800000,0.000000,0.779942,-0.178017,0.720775,-0.347107,0.625465,-0.498792,0.498792,-0.625465,0.347107,-0.720775,0.178017,-0.779942,0.000000,-0.800000,-0.600000,-0.800000,-0.605014,-0.794986,-0.644504,-0.794986,-0.724698,-0.756366,-0.780194,-0.686777,-0.800000,-0.600000,
-0.800000,0.600000,-0.780194,0.686777,-0.724698,0.756366,-0.644504,0.794986,-0.605014,0.794986,-0.600000,0.800000,0.000000,0.800000,0.178017,0.779942,0.178017,0.779942,$1*%
%AMFreePoly4*
4,1,29,1.778017,0.779942,1.947107,0.720775,2.098792,0.625465,2.225465,0.498792,2.320775,0.347107,2.379942,0.178017,2.400000,0.000000,2.379942,-0.178017,2.320775,-0.347107,2.225465,-0.498792,2.098792,-0.625465,1.947107,-0.720775,1.778017,-0.779942,1.600000,-0.800000,0.000000,-0.800000,-0.600000,-0.800000,-0.605014,-0.794986,-0.644504,-0.794986,-0.724698,-0.756366,-0.780194,-0.686777,
-0.800000,-0.600000,-0.800000,0.600000,-0.780194,0.686777,-0.724698,0.756366,-0.644504,0.794986,-0.605014,0.794986,-0.600000,0.800000,1.600000,0.800000,1.778017,0.779942,1.778017,0.779942,$1*%
G04 Aperture macros list end*
%TA.AperFunction,ComponentPad*%
%ADD10RoundRect,0.200000X-0.600000X0.600000X-0.600000X-0.600000X0.600000X-0.600000X0.600000X0.600000X0*%
%TD*%
%TA.AperFunction,SMDPad,CuDef*%
%ADD11FreePoly0,270.000000*%
%TD*%
%TA.AperFunction,ComponentPad*%
%ADD12C,1.600000*%
%TD*%
%TA.AperFunction,SMDPad,CuDef*%
%ADD13RoundRect,0.800000X-0.000010X0.800000X-0.000010X-0.800000X0.000010X-0.800000X0.000010X0.800000X0*%
%TD*%
%TA.AperFunction,ComponentPad*%
%ADD14FreePoly1,270.000000*%
%TD*%
%TA.AperFunction,SMDPad,CuDef*%
%ADD15FreePoly2,270.000000*%
%TD*%
%TA.AperFunction,ComponentPad*%
%ADD16FreePoly3,270.000000*%
%TD*%
%TA.AperFunction,SMDPad,CuDef*%
%ADD17FreePoly4,270.000000*%
%TD*%
%TA.AperFunction,ComponentPad*%
%ADD18O,1.400000X1.400000*%
%TD*%
%TA.AperFunction,ComponentPad*%
%ADD19C,1.400000*%
%TD*%
%TA.AperFunction,ComponentPad*%
%ADD20O,1.600000X1.600000*%
%TD*%
%TA.AperFunction,ComponentPad*%
%ADD21C,1.800000*%
%TD*%
%TA.AperFunction,ComponentPad*%
%ADD22R,1.800000X1.800000*%
%TD*%
%TA.AperFunction,ComponentPad*%
%ADD23O,1.800000X1.800000*%
%TD*%
%TA.AperFunction,ComponentPad*%
%ADD24R,1.600000X1.600000*%
%TD*%
%TA.AperFunction,ComponentPad*%
%ADD25C,2.100000*%
%TD*%
%TA.AperFunction,ComponentPad*%
%ADD26R,2.100000X2.100000*%
%TD*%
%TA.AperFunction,SMDPad,CuDef*%
%ADD27C,1.000000*%
%TD*%
%TA.AperFunction,ViaPad*%
%ADD28C,0.600000*%
%TD*%
%TA.AperFunction,Conductor*%
%ADD29C,0.200000*%
%TD*%
%TA.AperFunction,Conductor*%
%ADD30C,0.400000*%
%TD*%
%TA.AperFunction,Conductor*%
%ADD31C,1.200000*%
%TD*%
G04 APERTURE END LIST*
D10*
%TO.P,A1,1,GPIO0*%
%TO.N,/Loop1/TO_LOOP*%
X202100000Y-85110000D03*
D11*
X202100000Y-85110000D03*
D12*
%TO.P,A1,2,GPIO1*%
%TO.N,/Loop1/FROM_LOOP*%
X199560000Y-85110000D03*
D13*
X199560000Y-84310000D03*
D14*
%TO.P,A1,3,GND*%
%TO.N,GND*%
X197020000Y-85110000D03*
D15*
X197020000Y-85110000D03*
D12*
%TO.P,A1,4,GPIO2*%
%TO.N,ACT1*%
X194480000Y-85110000D03*
D13*
X194480000Y-84310000D03*
D12*
%TO.P,A1,5,GPIO3*%
%TO.N,ACT2*%
X191940000Y-85110000D03*
D13*
X191940000Y-84310000D03*
D12*
%TO.P,A1,6,GPIO4*%
%TO.N,/Loop2/TO_LOOP*%
X189400000Y-85110000D03*
D13*
X189400000Y-84310000D03*
D12*
%TO.P,A1,7,GPIO5*%
%TO.N,/Loop2/FROM_LOOP*%
X186860000Y-85110000D03*
D13*
X186860000Y-84310000D03*
D14*
%TO.P,A1,8,GND*%
%TO.N,GND*%
X184320000Y-85110000D03*
D15*
X184320000Y-85110000D03*
D12*
%TO.P,A1,9,GPIO6*%
%TO.N,ACT3*%
X181780000Y-85110000D03*
D13*
X181780000Y-84310000D03*
D12*
%TO.P,A1,10,GPIO7*%
%TO.N,ACT4*%
X179240000Y-85110000D03*
D13*
X179240000Y-84310000D03*
D12*
%TO.P,A1,11,GPIO8*%
%TO.N,/Loop3/TO_LOOP*%
X176700000Y-85110000D03*
D13*
X176700000Y-84310000D03*
D12*
%TO.P,A1,12,GPIO9*%
%TO.N,/Loop3/FROM_LOOP*%
X174160000Y-85110000D03*
D13*
X174160000Y-84310000D03*
D14*
%TO.P,A1,13,GND*%
%TO.N,GND*%
X171620000Y-85110000D03*
D15*
X171620000Y-85110000D03*
D12*
%TO.P,A1,14,GPIO10*%
%TO.N,ACT5*%
X169080000Y-85110000D03*
D13*
X169080000Y-84310000D03*
D12*
%TO.P,A1,15,GPIO11*%
%TO.N,ACT6*%
X166540000Y-85110000D03*
D13*
X166540000Y-84310000D03*
D12*
%TO.P,A1,16,GPIO12*%
%TO.N,/Loop4/TO_LOOP*%
X164000000Y-85110000D03*
D13*
X164000000Y-84310000D03*
D12*
%TO.P,A1,17,GPIO13*%
%TO.N,/Loop4/FROM_LOOP*%
X161460000Y-85110000D03*
D13*
X161460000Y-84310000D03*
D14*
%TO.P,A1,18,GND*%
%TO.N,GND*%
X158920000Y-85110000D03*
D15*
X158920000Y-85110000D03*
D12*
%TO.P,A1,19,GPIO14*%
%TO.N,unconnected-(A1-GPIO14-Pad19)*%
X156380000Y-85110000D03*
D13*
X156380000Y-84310000D03*
D12*
%TO.P,A1,20,GPIO15*%
%TO.N,unconnected-(A1-GPIO15-Pad20)*%
X153840000Y-85110000D03*
D13*
X153840000Y-84310000D03*
D12*
%TO.P,A1,21,GPIO16*%
%TO.N,/Loop5/TO_LOOP*%
X153840000Y-102890000D03*
D13*
X153840000Y-103690000D03*
D12*
%TO.P,A1,22,GPIO17*%
%TO.N,/Loop5/FROM_LOOP*%
X156380000Y-102890000D03*
D13*
X156380000Y-103690000D03*
D16*
%TO.P,A1,23,GND*%
%TO.N,GND*%
X158920000Y-102890000D03*
D17*
X158920000Y-102890000D03*
D12*
%TO.P,A1,24,GPIO18*%
%TO.N,unconnected-(A1-GPIO18-Pad24)*%
X161460000Y-102890000D03*
D13*
X161460000Y-103690000D03*
D12*
%TO.P,A1,25,GPIO19*%
%TO.N,unconnected-(A1-GPIO19-Pad25)*%
X164000000Y-102890000D03*
D13*
X164000000Y-103690000D03*
D12*
%TO.P,A1,26,GPIO20*%
%TO.N,/Loop6/TO_LOOP*%
X166540000Y-102890000D03*
D13*
X166540000Y-103690000D03*
D12*
%TO.P,A1,27,GPIO21*%
%TO.N,/Loop6/FROM_LOOP*%
X169080000Y-102890000D03*
D13*
X169080000Y-103690000D03*
D16*
%TO.P,A1,28,GND*%
%TO.N,GND*%
X171620000Y-102890000D03*
D17*
X171620000Y-102890000D03*
D12*
%TO.P,A1,29,GPIO22*%
%TO.N,unconnected-(A1-GPIO22-Pad29)*%
X174160000Y-102890000D03*
D13*
X174160000Y-103690000D03*
D12*
%TO.P,A1,30,RUN*%
%TO.N,unconnected-(A1-RUN-Pad30)*%
X176700000Y-102890000D03*
D13*
X176700000Y-103690000D03*
D12*
%TO.P,A1,31,GPIO26_ADC0*%
%TO.N,unconnected-(A1-GPIO26_ADC0-Pad31)*%
X179240000Y-102890000D03*
D13*
X179240000Y-103690000D03*
D12*
%TO.P,A1,32,GPIO27_ADC1*%
%TO.N,unconnected-(A1-GPIO27_ADC1-Pad32)*%
X181780000Y-102890000D03*
D13*
X181780000Y-103690000D03*
D16*
%TO.P,A1,33,AGND*%
%TO.N,unconnected-(A1-AGND-Pad33)*%
X184320000Y-102890000D03*
D17*
X184320000Y-102890000D03*
D12*
%TO.P,A1,34,GPIO28_ADC2*%
%TO.N,unconnected-(A1-GPIO28_ADC2-Pad34)*%
X186860000Y-102890000D03*
D13*
X186860000Y-103690000D03*
D12*
%TO.P,A1,35,ADC_VREF*%
%TO.N,unconnected-(A1-ADC_VREF-Pad35)*%
X189400000Y-102890000D03*
D13*
X189400000Y-103690000D03*
D12*
%TO.P,A1,36,3V3*%
%TO.N,VCC*%
X191940000Y-102890000D03*
D13*
X191940000Y-103690000D03*
D12*
%TO.P,A1,37,3V3_EN*%
%TO.N,unconnected-(A1-3V3_EN-Pad37)*%
X194480000Y-102890000D03*
D13*
X194480000Y-103690000D03*
D16*
%TO.P,A1,38,GND*%
%TO.N,GND*%
X197020000Y-102890000D03*
D17*
X197020000Y-102890000D03*
D12*
%TO.P,A1,39,VSYS*%
%TO.N,unconnected-(A1-VSYS-Pad39)*%
X199560000Y-102890000D03*
D13*
X199560000Y-103690000D03*
D12*
%TO.P,A1,40,VBUS*%
%TO.N,unconnected-(A1-VBUS-Pad40)*%
X202100000Y-102890000D03*
D13*
X202100000Y-103690000D03*
%TD*%
D18*
%TO.P,R30,2*%
%TO.N,ACT6*%
X134000000Y-87190000D03*
D19*
%TO.P,R30,1*%
%TO.N,Net-(LED6-A)*%
X134000000Y-94810000D03*
%TD*%
D18*
%TO.P,R29,2*%
%TO.N,ACT5*%
X129500000Y-87190000D03*
D19*
%TO.P,R29,1*%
%TO.N,Net-(LED5-A)*%
X129500000Y-94810000D03*
%TD*%
D18*
%TO.P,R28,2*%
%TO.N,ACT4*%
X125000000Y-87130000D03*
D19*
%TO.P,R28,1*%
%TO.N,Net-(LED4-A)*%
X125000000Y-94750000D03*
%TD*%
D18*
%TO.P,R27,2*%
%TO.N,ACT3*%
X120500000Y-87380000D03*
D19*
%TO.P,R27,1*%
%TO.N,Net-(LED3-A)*%
X120500000Y-95000000D03*
%TD*%
D18*
%TO.P,R26,2*%
%TO.N,ACT2*%
X116000000Y-87380000D03*
D19*
%TO.P,R26,1*%
%TO.N,Net-(LED2-A)*%
X116000000Y-95000000D03*
%TD*%
D18*
%TO.P,R25,2*%
%TO.N,ACT1*%
X111500000Y-87380000D03*
D19*
%TO.P,R25,1*%
%TO.N,Net-(LED1-A)*%
X111500000Y-95000000D03*
%TD*%
D18*
%TO.P,R24,2*%
%TO.N,VCC*%
X177540000Y-111000000D03*
D19*
%TO.P,R24,1*%
%TO.N,/Loop6/FROM_LOOP*%
X185160000Y-111000000D03*
%TD*%
D18*
%TO.P,R23,2*%
%TO.N,Net-(R23-Pad2)*%
X202160000Y-126000000D03*
D19*
%TO.P,R23,1*%
%TO.N,/Loop6/TO_LOOP*%
X194540000Y-126000000D03*
%TD*%
D18*
%TO.P,R22,2*%
%TO.N,Net-(U11-VF+)*%
X177540000Y-127000000D03*
D19*
%TO.P,R22,1*%
%TO.N,Net-(D11-+)*%
X185160000Y-127000000D03*
%TD*%
D20*
%TO.P,R21,2*%
%TO.N,Net-(J11-Pin_2)*%
X175000000Y-142000000D03*
D12*
%TO.P,R21,1*%
%TO.N,Net-(J11-Pin_1)*%
X187700000Y-142000000D03*
%TD*%
D18*
%TO.P,R20,2*%
%TO.N,VCC*%
X144615000Y-111000000D03*
D19*
%TO.P,R20,1*%
%TO.N,/Loop5/FROM_LOOP*%
X152235000Y-111000000D03*
%TD*%
D18*
%TO.P,R19,2*%
%TO.N,Net-(R19-Pad2)*%
X169235000Y-126000000D03*
D19*
%TO.P,R19,1*%
%TO.N,/Loop5/TO_LOOP*%
X161615000Y-126000000D03*
%TD*%
D18*
%TO.P,R18,2*%
%TO.N,Net-(U9-VF+)*%
X144615000Y-127000000D03*
D19*
%TO.P,R18,1*%
%TO.N,Net-(D9-+)*%
X152235000Y-127000000D03*
%TD*%
D20*
%TO.P,R17,2*%
%TO.N,Net-(J9-Pin_2)*%
X142075000Y-142000000D03*
D12*
%TO.P,R17,1*%
%TO.N,Net-(J9-Pin_1)*%
X154775000Y-142000000D03*
%TD*%
D18*
%TO.P,R16,2*%
%TO.N,VCC*%
X111540000Y-111000000D03*
D19*
%TO.P,R16,1*%
%TO.N,/Loop4/FROM_LOOP*%
X119160000Y-111000000D03*
%TD*%
D18*
%TO.P,R15,2*%
%TO.N,Net-(R15-Pad2)*%
X136160000Y-126000000D03*
D19*
%TO.P,R15,1*%
%TO.N,/Loop4/TO_LOOP*%
X128540000Y-126000000D03*
%TD*%
D18*
%TO.P,R14,2*%
%TO.N,Net-(U7-VF+)*%
X111540000Y-127000000D03*
D19*
%TO.P,R14,1*%
%TO.N,Net-(D7-+)*%
X119160000Y-127000000D03*
%TD*%
D20*
%TO.P,R13,2*%
%TO.N,Net-(J7-Pin_2)*%
X109000000Y-142000000D03*
D12*
%TO.P,R13,1*%
%TO.N,Net-(J7-Pin_1)*%
X121700000Y-142000000D03*
%TD*%
D19*
%TO.P,R12,1*%
%TO.N,/Loop3/FROM_LOOP*%
X128080000Y-69000000D03*
D18*
%TO.P,R12,2*%
%TO.N,VCC*%
X135700000Y-69000000D03*
%TD*%
D19*
%TO.P,R11,1*%
%TO.N,/Loop3/TO_LOOP*%
X118700000Y-54000000D03*
D18*
%TO.P,R11,2*%
%TO.N,Net-(R11-Pad2)*%
X111080000Y-54000000D03*
%TD*%
D19*
%TO.P,R10,1*%
%TO.N,Net-(D5-+)*%
X128080000Y-53000000D03*
D18*
%TO.P,R10,2*%
%TO.N,Net-(U5-VF+)*%
X135700000Y-53000000D03*
%TD*%
D12*
%TO.P,R9,1*%
%TO.N,Net-(J5-Pin_1)*%
X125540000Y-38000000D03*
D20*
%TO.P,R9,2*%
%TO.N,Net-(J5-Pin_2)*%
X138240000Y-38000000D03*
%TD*%
D19*
%TO.P,R8,1*%
%TO.N,/Loop2/FROM_LOOP*%
X161080000Y-69000000D03*
D18*
%TO.P,R8,2*%
%TO.N,VCC*%
X168700000Y-69000000D03*
%TD*%
D19*
%TO.P,R7,1*%
%TO.N,/Loop2/TO_LOOP*%
X151700000Y-54000000D03*
D18*
%TO.P,R7,2*%
%TO.N,Net-(R7-Pad2)*%
X144080000Y-54000000D03*
%TD*%
D19*
%TO.P,R6,1*%
%TO.N,Net-(D3-+)*%
X161080000Y-53000000D03*
D18*
%TO.P,R6,2*%
%TO.N,Net-(U3-VF+)*%
X168700000Y-53000000D03*
%TD*%
D12*
%TO.P,R5,1*%
%TO.N,Net-(J3-Pin_1)*%
X158540000Y-38000000D03*
D20*
%TO.P,R5,2*%
%TO.N,Net-(J3-Pin_2)*%
X171240000Y-38000000D03*
%TD*%
D18*
%TO.P,R4,2*%
%TO.N,VCC*%
X201700000Y-69000000D03*
D19*
%TO.P,R4,1*%
%TO.N,/Loop1/FROM_LOOP*%
X194080000Y-69000000D03*
%TD*%
D18*
%TO.P,R3,2*%
%TO.N,Net-(R3-Pad2)*%
X177080000Y-54000000D03*
D19*
%TO.P,R3,1*%
%TO.N,/Loop1/TO_LOOP*%
X184700000Y-54000000D03*
%TD*%
D18*
%TO.P,R2,2*%
%TO.N,Net-(U1-VF+)*%
X201700000Y-53000000D03*
D19*
%TO.P,R2,1*%
%TO.N,Net-(D1-+)*%
X194080000Y-53000000D03*
%TD*%
D20*
%TO.P,R1,2*%
%TO.N,Net-(J1-Pin_2)*%
X204240000Y-38000000D03*
D12*
%TO.P,R1,1*%
%TO.N,Net-(J1-Pin_1)*%
X191540000Y-38000000D03*
%TD*%
D21*
%TO.P,LED6,2,A*%
%TO.N,Net-(LED6-A)*%
X134000000Y-97735000D03*
D22*
%TO.P,LED6,1,K*%
%TO.N,GND*%
X134000000Y-100275000D03*
%TD*%
D21*
%TO.P,LED5,2,A*%
%TO.N,Net-(LED5-A)*%
X129500000Y-97735000D03*
D22*
%TO.P,LED5,1,K*%
%TO.N,GND*%
X129500000Y-100275000D03*
%TD*%
D21*
%TO.P,LED4,2,A*%
%TO.N,Net-(LED4-A)*%
X125000000Y-97735000D03*
D22*
%TO.P,LED4,1,K*%
%TO.N,GND*%
X125000000Y-100275000D03*
%TD*%
D21*
%TO.P,LED3,2,A*%
%TO.N,Net-(LED3-A)*%
X120500000Y-97735000D03*
D22*
%TO.P,LED3,1,K*%
%TO.N,GND*%
X120500000Y-100275000D03*
%TD*%
D21*
%TO.P,LED2,2,A*%
%TO.N,Net-(LED2-A)*%
X116000000Y-97735000D03*
D22*
%TO.P,LED2,1,K*%
%TO.N,GND*%
X116000000Y-100275000D03*
%TD*%
D23*
%TO.P,D18,2,A*%
%TO.N,Net-(J12-Pin_1)*%
X203430000Y-142000000D03*
D22*
%TO.P,D18,1,K*%
%TO.N,Net-(J12-Pin_2)*%
X193270000Y-142000000D03*
%TD*%
D23*
%TO.P,D17,2,A*%
%TO.N,Net-(J10-Pin_1)*%
X170505000Y-142000000D03*
D22*
%TO.P,D17,1,K*%
%TO.N,Net-(J10-Pin_2)*%
X160345000Y-142000000D03*
%TD*%
D23*
%TO.P,D16,2,A*%
%TO.N,Net-(J8-Pin_1)*%
X137430000Y-142000000D03*
D22*
%TO.P,D16,1,K*%
%TO.N,Net-(J8-Pin_2)*%
X127270000Y-142000000D03*
%TD*%
%TO.P,D15,1,K*%
%TO.N,Net-(J6-Pin_2)*%
X119970000Y-38000000D03*
D23*
%TO.P,D15,2,A*%
%TO.N,Net-(J6-Pin_1)*%
X109810000Y-38000000D03*
%TD*%
D22*
%TO.P,D13,1,K*%
%TO.N,Net-(J4-Pin_2)*%
X152970000Y-38000000D03*
D23*
%TO.P,D13,2,A*%
%TO.N,Net-(J4-Pin_1)*%
X142810000Y-38000000D03*
%TD*%
%TO.P,D2,2,A*%
%TO.N,Net-(D2-A)*%
X175810000Y-38000000D03*
D22*
%TO.P,D2,1,K*%
%TO.N,Net-(D2-K)*%
X185970000Y-38000000D03*
%TD*%
D20*
%TO.P,U12,4,4*%
%TO.N,Net-(J12-Pin_1)*%
X199625000Y-136820000D03*
%TO.P,U12,3,3*%
%TO.N,Net-(J12-Pin_2)*%
X197085000Y-136820000D03*
%TO.P,U12,2,2*%
%TO.N,GND*%
X197085000Y-129200000D03*
D24*
%TO.P,U12,1,1*%
%TO.N,Net-(R23-Pad2)*%
X199625000Y-129200000D03*
%TD*%
D20*
%TO.P,U11,8,VCC*%
%TO.N,VCC*%
X177550000Y-113940000D03*
%TO.P,U11,7,VB*%
%TO.N,unconnected-(U11-VB-Pad7)*%
X180090000Y-113940000D03*
%TO.P,U11,6,VO*%
%TO.N,/Loop6/FROM_LOOP*%
X182630000Y-113940000D03*
%TO.P,U11,5,GND*%
%TO.N,GND*%
X185170000Y-113940000D03*
%TO.P,U11,4,N/C*%
%TO.N,unconnected-(U11-N{slash}C-Pad4)*%
X185170000Y-124100000D03*
%TO.P,U11,3,VF-*%
%TO.N,Net-(D11--)*%
X182630000Y-124100000D03*
%TO.P,U11,2,VF+*%
%TO.N,Net-(U11-VF+)*%
X180090000Y-124100000D03*
D24*
%TO.P,U11,1,N/C*%
%TO.N,unconnected-(U11-N{slash}C-Pad1)*%
X177550000Y-124100000D03*
%TD*%
D20*
%TO.P,U10,4,4*%
%TO.N,Net-(J10-Pin_1)*%
X166700000Y-136820000D03*
%TO.P,U10,3,3*%
%TO.N,Net-(J10-Pin_2)*%
X164160000Y-136820000D03*
%TO.P,U10,2,2*%
%TO.N,GND*%
X164160000Y-129200000D03*
D24*
%TO.P,U10,1,1*%
%TO.N,Net-(R19-Pad2)*%
X166700000Y-129200000D03*
%TD*%
D20*
%TO.P,U9,8,VCC*%
%TO.N,VCC*%
X144625000Y-113940000D03*
%TO.P,U9,7,VB*%
%TO.N,unconnected-(U9-VB-Pad7)*%
X147165000Y-113940000D03*
%TO.P,U9,6,VO*%
%TO.N,/Loop5/FROM_LOOP*%
X149705000Y-113940000D03*
%TO.P,U9,5,GND*%
%TO.N,GND*%
X152245000Y-113940000D03*
%TO.P,U9,4,N/C*%
%TO.N,unconnected-(U9-N{slash}C-Pad4)*%
X152245000Y-124100000D03*
%TO.P,U9,3,VF-*%
%TO.N,Net-(D9--)*%
X149705000Y-124100000D03*
%TO.P,U9,2,VF+*%
%TO.N,Net-(U9-VF+)*%
X147165000Y-124100000D03*
D24*
%TO.P,U9,1,N/C*%
%TO.N,unconnected-(U9-N{slash}C-Pad1)*%
X144625000Y-124100000D03*
%TD*%
D20*
%TO.P,U8,4,4*%
%TO.N,Net-(J8-Pin_1)*%
X133625000Y-136820000D03*
%TO.P,U8,3,3*%
%TO.N,Net-(J8-Pin_2)*%
X131085000Y-136820000D03*
%TO.P,U8,2,2*%
%TO.N,GND*%
X131085000Y-129200000D03*
D24*
%TO.P,U8,1,1*%
%TO.N,Net-(R15-Pad2)*%
X133625000Y-129200000D03*
%TD*%
D20*
%TO.P,U7,8,VCC*%
%TO.N,VCC*%
X111550000Y-113940000D03*
%TO.P,U7,7,VB*%
%TO.N,unconnected-(U7-VB-Pad7)*%
X114090000Y-113940000D03*
%TO.P,U7,6,VO*%
%TO.N,/Loop4/FROM_LOOP*%
X116630000Y-113940000D03*
%TO.P,U7,5,GND*%
%TO.N,GND*%
X119170000Y-113940000D03*
%TO.P,U7,4,N/C*%
%TO.N,unconnected-(U7-N{slash}C-Pad4)*%
X119170000Y-124100000D03*
%TO.P,U7,3,VF-*%
%TO.N,Net-(D7--)*%
X116630000Y-124100000D03*
%TO.P,U7,2,VF+*%
%TO.N,Net-(U7-VF+)*%
X114090000Y-124100000D03*
D24*
%TO.P,U7,1,N/C*%
%TO.N,unconnected-(U7-N{slash}C-Pad1)*%
X111550000Y-124100000D03*
%TD*%
%TO.P,U6,1,1*%
%TO.N,Net-(R11-Pad2)*%
X113615000Y-50800000D03*
D20*
%TO.P,U6,2,2*%
%TO.N,GND*%
X116155000Y-50800000D03*
%TO.P,U6,3,3*%
%TO.N,Net-(J6-Pin_2)*%
X116155000Y-43180000D03*
%TO.P,U6,4,4*%
%TO.N,Net-(J6-Pin_1)*%
X113615000Y-43180000D03*
%TD*%
D24*
%TO.P,U5,1,N/C*%
%TO.N,unconnected-(U5-N{slash}C-Pad1)*%
X135690000Y-55900000D03*
D20*
%TO.P,U5,2,VF+*%
%TO.N,Net-(U5-VF+)*%
X133150000Y-55900000D03*
%TO.P,U5,3,VF-*%
%TO.N,Net-(D5--)*%
X130610000Y-55900000D03*
%TO.P,U5,4,N/C*%
%TO.N,unconnected-(U5-N{slash}C-Pad4)*%
X128070000Y-55900000D03*
%TO.P,U5,5,GND*%
%TO.N,GND*%
X128070000Y-66060000D03*
%TO.P,U5,6,VO*%
%TO.N,/Loop3/FROM_LOOP*%
X130610000Y-66060000D03*
%TO.P,U5,7,VB*%
%TO.N,unconnected-(U5-VB-Pad7)*%
X133150000Y-66060000D03*
%TO.P,U5,8,VCC*%
%TO.N,VCC*%
X135690000Y-66060000D03*
%TD*%
D24*
%TO.P,U4,1,1*%
%TO.N,Net-(R7-Pad2)*%
X146615000Y-50800000D03*
D20*
%TO.P,U4,2,2*%
%TO.N,GND*%
X149155000Y-50800000D03*
%TO.P,U4,3,3*%
%TO.N,Net-(J4-Pin_2)*%
X149155000Y-43180000D03*
%TO.P,U4,4,4*%
%TO.N,Net-(J4-Pin_1)*%
X146615000Y-43180000D03*
%TD*%
D24*
%TO.P,U3,1,N/C*%
%TO.N,unconnected-(U3-N{slash}C-Pad1)*%
X168690000Y-55900000D03*
D20*
%TO.P,U3,2,VF+*%
%TO.N,Net-(U3-VF+)*%
X166150000Y-55900000D03*
%TO.P,U3,3,VF-*%
%TO.N,Net-(D3--)*%
X163610000Y-55900000D03*
%TO.P,U3,4,N/C*%
%TO.N,unconnected-(U3-N{slash}C-Pad4)*%
X161070000Y-55900000D03*
%TO.P,U3,5,GND*%
%TO.N,GND*%
X161070000Y-66060000D03*
%TO.P,U3,6,VO*%
%TO.N,/Loop2/FROM_LOOP*%
X163610000Y-66060000D03*
%TO.P,U3,7,VB*%
%TO.N,unconnected-(U3-VB-Pad7)*%
X166150000Y-66060000D03*
%TO.P,U3,8,VCC*%
%TO.N,VCC*%
X168690000Y-66060000D03*
%TD*%
%TO.P,U2,4,4*%
%TO.N,Net-(D2-A)*%
X179615000Y-43180000D03*
%TO.P,U2,3,3*%
%TO.N,Net-(D2-K)*%
X182155000Y-43180000D03*
%TO.P,U2,2,2*%
%TO.N,GND*%
X182155000Y-50800000D03*
D24*
%TO.P,U2,1,1*%
%TO.N,Net-(R3-Pad2)*%
X179615000Y-50800000D03*
%TD*%
D20*
%TO.P,U1,8,VCC*%
%TO.N,VCC*%
X201690000Y-66060000D03*
%TO.P,U1,7,VB*%
%TO.N,unconnected-(U1-VB-Pad7)*%
X199150000Y-66060000D03*
%TO.P,U1,6,VO*%
%TO.N,/Loop1/FROM_LOOP*%
X196610000Y-66060000D03*
%TO.P,U1,5,GND*%
%TO.N,GND*%
X194070000Y-66060000D03*
%TO.P,U1,4,N/C*%
%TO.N,unconnected-(U1-N{slash}C-Pad4)*%
X194070000Y-55900000D03*
%TO.P,U1,3,VF-*%
%TO.N,Net-(D1--)*%
X196610000Y-55900000D03*
%TO.P,U1,2,VF+*%
%TO.N,Net-(U1-VF+)*%
X199150000Y-55900000D03*
D24*
%TO.P,U1,1,N/C*%
%TO.N,unconnected-(U1-N{slash}C-Pad1)*%
X201690000Y-55900000D03*
%TD*%
D20*
%TO.P,SW6,2,A2*%
%TO.N,Net-(J11-Pin_1)*%
X189350000Y-153820000D03*
D24*
%TO.P,SW6,1,A1*%
%TO.N,Net-(J12-Pin_2)*%
X189350000Y-146200000D03*
%TD*%
D20*
%TO.P,SW5,2,A2*%
%TO.N,Net-(J9-Pin_1)*%
X156425000Y-153820000D03*
D24*
%TO.P,SW5,1,A1*%
%TO.N,Net-(J10-Pin_2)*%
X156425000Y-146200000D03*
%TD*%
D20*
%TO.P,SW4,2,A2*%
%TO.N,Net-(J7-Pin_1)*%
X123350000Y-153820000D03*
D24*
%TO.P,SW4,1,A1*%
%TO.N,Net-(J8-Pin_2)*%
X123350000Y-146200000D03*
%TD*%
%TO.P,SW3,1,A1*%
%TO.N,Net-(J6-Pin_2)*%
X123890000Y-33800000D03*
D20*
%TO.P,SW3,2,A2*%
%TO.N,Net-(J5-Pin_1)*%
X123890000Y-26180000D03*
%TD*%
D24*
%TO.P,SW2,1,A1*%
%TO.N,Net-(J4-Pin_2)*%
X156890000Y-33800000D03*
D20*
%TO.P,SW2,2,A2*%
%TO.N,Net-(J3-Pin_1)*%
X156890000Y-26180000D03*
%TD*%
%TO.P,SW1,2,A2*%
%TO.N,Net-(J1-Pin_1)*%
X189890000Y-26180000D03*
D24*
%TO.P,SW1,1,A1*%
%TO.N,Net-(D2-K)*%
X189890000Y-33800000D03*
%TD*%
D21*
%TO.P,LED1,2,A*%
%TO.N,Net-(LED1-A)*%
X111500000Y-97735000D03*
D22*
%TO.P,LED1,1,K*%
%TO.N,GND*%
X111500000Y-100275000D03*
%TD*%
D25*
%TO.P,J12,2,Pin_2*%
%TO.N,Net-(J12-Pin_2)*%
X195750000Y-150000000D03*
D26*
%TO.P,J12,1,Pin_1*%
%TO.N,Net-(J12-Pin_1)*%
X200750000Y-150000000D03*
%TD*%
D25*
%TO.P,J11,2,Pin_2*%
%TO.N,Net-(J11-Pin_2)*%
X178350000Y-150000000D03*
D26*
%TO.P,J11,1,Pin_1*%
%TO.N,Net-(J11-Pin_1)*%
X183350000Y-150000000D03*
%TD*%
D25*
%TO.P,J10,2,Pin_2*%
%TO.N,Net-(J10-Pin_2)*%
X162825000Y-150000000D03*
D26*
%TO.P,J10,1,Pin_1*%
%TO.N,Net-(J10-Pin_1)*%
X167825000Y-150000000D03*
%TD*%
D25*
%TO.P,J9,2,Pin_2*%
%TO.N,Net-(J9-Pin_2)*%
X145425000Y-150000000D03*
D26*
%TO.P,J9,1,Pin_1*%
%TO.N,Net-(J9-Pin_1)*%
X150425000Y-150000000D03*
%TD*%
D25*
%TO.P,J8,2,Pin_2*%
%TO.N,Net-(J8-Pin_2)*%
X129750000Y-150000000D03*
D26*
%TO.P,J8,1,Pin_1*%
%TO.N,Net-(J8-Pin_1)*%
X134750000Y-150000000D03*
%TD*%
D25*
%TO.P,J7,2,Pin_2*%
%TO.N,Net-(J7-Pin_2)*%
X112350000Y-150000000D03*
D26*
%TO.P,J7,1,Pin_1*%
%TO.N,Net-(J7-Pin_1)*%
X117350000Y-150000000D03*
%TD*%
%TO.P,J6,1,Pin_1*%
%TO.N,Net-(J6-Pin_1)*%
X112490000Y-30000000D03*
D25*
%TO.P,J6,2,Pin_2*%
%TO.N,Net-(J6-Pin_2)*%
X117490000Y-30000000D03*
%TD*%
D26*
%TO.P,J5,1,Pin_1*%
%TO.N,Net-(J5-Pin_1)*%
X129890000Y-30000000D03*
D25*
%TO.P,J5,2,Pin_2*%
%TO.N,Net-(J5-Pin_2)*%
X134890000Y-30000000D03*
%TD*%
D26*
%TO.P,J4,1,Pin_1*%
%TO.N,Net-(J4-Pin_1)*%
X145490000Y-30000000D03*
D25*
%TO.P,J4,2,Pin_2*%
%TO.N,Net-(J4-Pin_2)*%
X150490000Y-30000000D03*
%TD*%
D26*
%TO.P,J3,1,Pin_1*%
%TO.N,Net-(J3-Pin_1)*%
X162890000Y-30000000D03*
D25*
%TO.P,J3,2,Pin_2*%
%TO.N,Net-(J3-Pin_2)*%
X167890000Y-30000000D03*
%TD*%
%TO.P,J2,2,Pin_2*%
%TO.N,Net-(D2-K)*%
X183490000Y-30000000D03*
D26*
%TO.P,J2,1,Pin_1*%
%TO.N,Net-(D2-A)*%
X178490000Y-30000000D03*
%TD*%
D25*
%TO.P,J1,2,Pin_2*%
%TO.N,Net-(J1-Pin_2)*%
X200890000Y-30000000D03*
D26*
%TO.P,J1,1,Pin_1*%
%TO.N,Net-(J1-Pin_1)*%
X195890000Y-30000000D03*
%TD*%
D27*
%TO.P,FID2,*%
%TO.N,*%
X105000000Y-142000000D03*
%TD*%
%TO.P,FID1,*%
%TO.N,*%
X210000000Y-38000000D03*
%TD*%
D20*
%TO.P,D11,4*%
%TO.N,Net-(J11-Pin_1)*%
X183750000Y-137810000D03*
%TO.P,D11,3*%
%TO.N,Net-(J11-Pin_2)*%
X178670000Y-137810000D03*
%TO.P,D11,2,-*%
%TO.N,Net-(D11--)*%
X178670000Y-130190000D03*
D24*
%TO.P,D11,1,+*%
%TO.N,Net-(D11-+)*%
X183750000Y-130190000D03*
%TD*%
D20*
%TO.P,D9,4*%
%TO.N,Net-(J9-Pin_1)*%
X150825000Y-137810000D03*
%TO.P,D9,3*%
%TO.N,Net-(J9-Pin_2)*%
X145745000Y-137810000D03*
%TO.P,D9,2,-*%
%TO.N,Net-(D9--)*%
X145745000Y-130190000D03*
D24*
%TO.P,D9,1,+*%
%TO.N,Net-(D9-+)*%
X150825000Y-130190000D03*
%TD*%
D20*
%TO.P,D7,4*%
%TO.N,Net-(J7-Pin_1)*%
X117750000Y-137810000D03*
%TO.P,D7,3*%
%TO.N,Net-(J7-Pin_2)*%
X112670000Y-137810000D03*
%TO.P,D7,2,-*%
%TO.N,Net-(D7--)*%
X112670000Y-130190000D03*
D24*
%TO.P,D7,1,+*%
%TO.N,Net-(D7-+)*%
X117750000Y-130190000D03*
%TD*%
%TO.P,D5,1,+*%
%TO.N,Net-(D5-+)*%
X129490000Y-49810000D03*
D20*
%TO.P,D5,2,-*%
%TO.N,Net-(D5--)*%
X134570000Y-49810000D03*
%TO.P,D5,3*%
%TO.N,Net-(J5-Pin_2)*%
X134570000Y-42190000D03*
%TO.P,D5,4*%
%TO.N,Net-(J5-Pin_1)*%
X129490000Y-42190000D03*
%TD*%
D24*
%TO.P,D3,1,+*%
%TO.N,Net-(D3-+)*%
X162490000Y-49810000D03*
D20*
%TO.P,D3,2,-*%
%TO.N,Net-(D3--)*%
X167570000Y-49810000D03*
%TO.P,D3,3*%
%TO.N,Net-(J3-Pin_2)*%
X167570000Y-42190000D03*
%TO.P,D3,4*%
%TO.N,Net-(J3-Pin_1)*%
X162490000Y-42190000D03*
%TD*%
%TO.P,D1,4*%
%TO.N,Net-(J1-Pin_1)*%
X195490000Y-42190000D03*
%TO.P,D1,3*%
%TO.N,Net-(J1-Pin_2)*%
X200570000Y-42190000D03*
%TO.P,D1,2,-*%
%TO.N,Net-(D1--)*%
X200570000Y-49810000D03*
D24*
%TO.P,D1,1,+*%
%TO.N,Net-(D1-+)*%
X195490000Y-49810000D03*
%TD*%
D28*
%TO.N,ACT1*%
X169000000Y-75000000D03*
%TO.N,ACT2*%
X161000000Y-72000000D03*
%TO.N,ACT3*%
X175000000Y-77000000D03*
%TO.N,ACT4*%
X175000000Y-78000000D03*
%TO.N,/Loop2/FROM_LOOP*%
X165000000Y-72000000D03*
%TO.N,/Loop1/TO_LOOP*%
X185000000Y-71000000D03*
%TD*%
D29*
%TO.N,/Loop4/FROM_LOOP*%
X161460000Y-83978630D02*
X161460000Y-85110000D01*
X158481370Y-81000000D02*
X161460000Y-83978630D01*
X148000000Y-83000000D02*
X150000000Y-81000000D01*
X150000000Y-81000000D02*
X158481370Y-81000000D01*
X148000000Y-105000000D02*
X148000000Y-83000000D01*
X146000000Y-107000000D02*
X148000000Y-105000000D01*
X119160000Y-111000000D02*
X123160000Y-107000000D01*
X123160000Y-107000000D02*
X146000000Y-107000000D01*
D30*
%TO.N,VCC*%
X145000000Y-116000000D02*
X113610000Y-116000000D01*
X113610000Y-116000000D02*
X111550000Y-113940000D01*
X144625000Y-115625000D02*
X144625000Y-113940000D01*
X145000000Y-116000000D02*
X144625000Y-115625000D01*
X177550000Y-113940000D02*
X175490000Y-116000000D01*
X175490000Y-116000000D02*
X145000000Y-116000000D01*
X191940000Y-112060000D02*
X188000000Y-116000000D01*
X188000000Y-116000000D02*
X179610000Y-116000000D01*
X179610000Y-116000000D02*
X177550000Y-113940000D01*
X191940000Y-102890000D02*
X191940000Y-112060000D01*
D29*
%TO.N,ACT1*%
X111500000Y-79500000D02*
X111500000Y-87380000D01*
X169000000Y-75000000D02*
X116000000Y-75000000D01*
X116000000Y-75000000D02*
X111500000Y-79500000D01*
%TO.N,ACT2*%
X191940000Y-83978630D02*
X191940000Y-85110000D01*
X180711370Y-72750000D02*
X191940000Y-83978630D01*
X161750000Y-72750000D02*
X180711370Y-72750000D01*
X161000000Y-72000000D02*
X161750000Y-72750000D01*
%TO.N,/Loop2/TO_LOOP*%
X189400000Y-82216448D02*
X189400000Y-85110000D01*
X151700000Y-54000000D02*
X151700000Y-64700000D01*
X160300000Y-73300000D02*
X180483552Y-73300000D01*
X180483552Y-73300000D02*
X189400000Y-82216448D01*
X151700000Y-64700000D02*
X160300000Y-73300000D01*
%TO.N,ACT3*%
X130880000Y-77000000D02*
X175000000Y-77000000D01*
X120500000Y-87380000D02*
X130880000Y-77000000D01*
%TO.N,ACT4*%
X134130000Y-78000000D02*
X175000000Y-78000000D01*
X125000000Y-87130000D02*
X134130000Y-78000000D01*
%TO.N,ACT5*%
X169080000Y-83978630D02*
X169080000Y-85110000D01*
X137690000Y-79000000D02*
X164101370Y-79000000D01*
X164101370Y-79000000D02*
X169080000Y-83978630D01*
X129500000Y-87190000D02*
X137690000Y-79000000D01*
%TO.N,ACT6*%
X149000000Y-80000000D02*
X162561370Y-80000000D01*
X162561370Y-80000000D02*
X166540000Y-83978630D01*
X166540000Y-83978630D02*
X166540000Y-85110000D01*
X141810000Y-87190000D02*
X149000000Y-80000000D01*
X134000000Y-87190000D02*
X141810000Y-87190000D01*
%TO.N,Net-(LED6-A)*%
X134000000Y-94810000D02*
X134000000Y-97735000D01*
%TO.N,Net-(LED5-A)*%
X129500000Y-94810000D02*
X129500000Y-97735000D01*
%TO.N,Net-(LED4-A)*%
X125000000Y-94750000D02*
X125000000Y-97735000D01*
%TO.N,/Loop5/FROM_LOOP*%
X150425000Y-111000000D02*
X152235000Y-111000000D01*
X149705000Y-111720000D02*
X150425000Y-111000000D01*
X156380000Y-107620000D02*
X156380000Y-102890000D01*
X156000000Y-108000000D02*
X156380000Y-107620000D01*
X151000000Y-108000000D02*
X156000000Y-108000000D01*
X150212500Y-108787500D02*
X151000000Y-108000000D01*
X150212500Y-111212500D02*
X150212500Y-108787500D01*
X149705000Y-111720000D02*
X150212500Y-111212500D01*
%TO.N,/Loop6/FROM_LOOP*%
X179910000Y-109000000D02*
X170000000Y-109000000D01*
X182630000Y-111720000D02*
X179910000Y-109000000D01*
X170000000Y-109000000D02*
X169080000Y-108080000D01*
X169080000Y-108080000D02*
X169080000Y-102890000D01*
%TO.N,/Loop1/FROM_LOOP*%
X199560000Y-74480000D02*
X199560000Y-85110000D01*
X194080000Y-69000000D02*
X199560000Y-74480000D01*
%TO.N,/Loop3/TO_LOOP*%
X122000000Y-74000000D02*
X174331370Y-74000000D01*
X176700000Y-76368630D02*
X176700000Y-85110000D01*
X118700000Y-70700000D02*
X122000000Y-74000000D01*
X118700000Y-54000000D02*
X118700000Y-70700000D01*
X174331370Y-74000000D02*
X176700000Y-76368630D01*
%TO.N,/Loop2/FROM_LOOP*%
X163610000Y-70610000D02*
X165000000Y-72000000D01*
X163610000Y-66060000D02*
X163610000Y-70610000D01*
%TO.N,/Loop1/TO_LOOP*%
X184700000Y-54000000D02*
X184700000Y-70700000D01*
X184700000Y-70700000D02*
X185000000Y-71000000D01*
%TO.N,Net-(LED3-A)*%
X120500000Y-95000000D02*
X120500000Y-97735000D01*
%TO.N,Net-(LED2-A)*%
X116000000Y-95000000D02*
X116000000Y-97735000D01*
%TO.N,Net-(LED1-A)*%
X111500000Y-97735000D02*
X111500000Y-95000000D01*
D31*
%TO.N,Net-(J12-Pin_1)*%
X200750000Y-137945000D02*
X199625000Y-136820000D01*
%TO.N,Net-(J12-Pin_2)*%
X195750000Y-138155000D02*
X197085000Y-136820000D01*
%TO.N,Net-(J12-Pin_1)*%
X200750000Y-150000000D02*
X200750000Y-142000000D01*
X200750000Y-142000000D02*
X200750000Y-137945000D01*
X203430000Y-142000000D02*
X200750000Y-142000000D01*
%TO.N,Net-(J12-Pin_2)*%
X195750000Y-142000000D02*
X195750000Y-138155000D01*
X193270000Y-142000000D02*
X195750000Y-142000000D01*
X195550000Y-146200000D02*
X195750000Y-146000000D01*
X195750000Y-150000000D02*
X195750000Y-146000000D01*
X195750000Y-146000000D02*
X195750000Y-142000000D01*
X189350000Y-146200000D02*
X195550000Y-146200000D01*
%TO.N,Net-(J11-Pin_1)*%
X185530000Y-150000000D02*
X183350000Y-150000000D01*
X189350000Y-153820000D02*
X185530000Y-150000000D01*
X183350000Y-138210000D02*
X183750000Y-137810000D01*
%TO.N,Net-(J11-Pin_2)*%
X178350000Y-138130000D02*
X178670000Y-137810000D01*
X178350000Y-150000000D02*
X178350000Y-142000000D01*
X178350000Y-142000000D02*
X178350000Y-138130000D01*
X175000000Y-142000000D02*
X178350000Y-142000000D01*
%TO.N,Net-(J11-Pin_1)*%
X183350000Y-150000000D02*
X183350000Y-142000000D01*
X187700000Y-142000000D02*
X183350000Y-142000000D01*
X183350000Y-142000000D02*
X183350000Y-138210000D01*
D29*
%TO.N,Net-(D11-+)*%
X183750000Y-130190000D02*
X183750000Y-128410000D01*
X183750000Y-128410000D02*
X185160000Y-127000000D01*
%TO.N,Net-(D11--)*%
X179160000Y-130190000D02*
X182630000Y-126720000D01*
X178670000Y-130190000D02*
X179160000Y-130190000D01*
X182630000Y-126720000D02*
X182630000Y-124100000D01*
%TO.N,Net-(U11-VF+)*%
X180090000Y-124100000D02*
X180090000Y-126260000D01*
X180090000Y-126260000D02*
X179350000Y-127000000D01*
X179350000Y-127000000D02*
X177540000Y-127000000D01*
%TO.N,Net-(R23-Pad2)*%
X199625000Y-129200000D02*
X199625000Y-126725000D01*
X199625000Y-126725000D02*
X200350000Y-126000000D01*
X200350000Y-126000000D02*
X202160000Y-126000000D01*
%TO.N,/Loop6/FROM_LOOP*%
X182630000Y-113940000D02*
X182630000Y-111720000D01*
X183350000Y-111000000D02*
X185160000Y-111000000D01*
X182630000Y-111720000D02*
X183350000Y-111000000D01*
D31*
%TO.N,Net-(J10-Pin_1)*%
X167825000Y-137945000D02*
X166700000Y-136820000D01*
%TO.N,Net-(J10-Pin_2)*%
X162825000Y-138155000D02*
X164160000Y-136820000D01*
%TO.N,Net-(J10-Pin_1)*%
X167825000Y-150000000D02*
X167825000Y-142000000D01*
X167825000Y-142000000D02*
X167825000Y-137945000D01*
X170505000Y-142000000D02*
X167825000Y-142000000D01*
%TO.N,Net-(J10-Pin_2)*%
X162825000Y-142000000D02*
X162825000Y-138155000D01*
X160345000Y-142000000D02*
X162825000Y-142000000D01*
X162625000Y-146200000D02*
X162825000Y-146000000D01*
X162825000Y-150000000D02*
X162825000Y-146000000D01*
X162825000Y-146000000D02*
X162825000Y-142000000D01*
X156425000Y-146200000D02*
X162625000Y-146200000D01*
%TO.N,Net-(J9-Pin_1)*%
X152605000Y-150000000D02*
X150425000Y-150000000D01*
X156425000Y-153820000D02*
X152605000Y-150000000D01*
X150425000Y-138210000D02*
X150825000Y-137810000D01*
%TO.N,Net-(J9-Pin_2)*%
X145425000Y-138130000D02*
X145745000Y-137810000D01*
X145425000Y-150000000D02*
X145425000Y-142000000D01*
X145425000Y-142000000D02*
X145425000Y-138130000D01*
X142075000Y-142000000D02*
X145425000Y-142000000D01*
%TO.N,Net-(J9-Pin_1)*%
X150425000Y-150000000D02*
X150425000Y-142000000D01*
X154775000Y-142000000D02*
X150425000Y-142000000D01*
X150425000Y-142000000D02*
X150425000Y-138210000D01*
D29*
%TO.N,Net-(D9-+)*%
X150825000Y-130190000D02*
X150825000Y-128410000D01*
X150825000Y-128410000D02*
X152235000Y-127000000D01*
%TO.N,Net-(D9--)*%
X146235000Y-130190000D02*
X149705000Y-126720000D01*
X145745000Y-130190000D02*
X146235000Y-130190000D01*
X149705000Y-126720000D02*
X149705000Y-124100000D01*
%TO.N,Net-(U9-VF+)*%
X147165000Y-124100000D02*
X147165000Y-126260000D01*
X147165000Y-126260000D02*
X146425000Y-127000000D01*
X146425000Y-127000000D02*
X144615000Y-127000000D01*
%TO.N,Net-(R19-Pad2)*%
X166700000Y-129200000D02*
X166700000Y-126725000D01*
X166700000Y-126725000D02*
X167425000Y-126000000D01*
X167425000Y-126000000D02*
X169235000Y-126000000D01*
%TO.N,/Loop5/FROM_LOOP*%
X149705000Y-113940000D02*
X149705000Y-111720000D01*
D31*
%TO.N,Net-(J8-Pin_1)*%
X134750000Y-137945000D02*
X133625000Y-136820000D01*
%TO.N,Net-(J8-Pin_2)*%
X129750000Y-138155000D02*
X131085000Y-136820000D01*
%TO.N,Net-(J8-Pin_1)*%
X134750000Y-150000000D02*
X134750000Y-142000000D01*
X134750000Y-142000000D02*
X134750000Y-137945000D01*
X137430000Y-142000000D02*
X134750000Y-142000000D01*
%TO.N,Net-(J8-Pin_2)*%
X129750000Y-142000000D02*
X129750000Y-138155000D01*
X127270000Y-142000000D02*
X129750000Y-142000000D01*
X129550000Y-146200000D02*
X129750000Y-146000000D01*
X129750000Y-150000000D02*
X129750000Y-146000000D01*
X129750000Y-146000000D02*
X129750000Y-142000000D01*
X123350000Y-146200000D02*
X129550000Y-146200000D01*
%TO.N,Net-(J7-Pin_1)*%
X119530000Y-150000000D02*
X117350000Y-150000000D01*
X123350000Y-153820000D02*
X119530000Y-150000000D01*
X117350000Y-138210000D02*
X117750000Y-137810000D01*
%TO.N,Net-(J7-Pin_2)*%
X112350000Y-138130000D02*
X112670000Y-137810000D01*
X112350000Y-150000000D02*
X112350000Y-142000000D01*
X112350000Y-142000000D02*
X112350000Y-138130000D01*
X109000000Y-142000000D02*
X112350000Y-142000000D01*
%TO.N,Net-(J7-Pin_1)*%
X117350000Y-150000000D02*
X117350000Y-142000000D01*
X121700000Y-142000000D02*
X117350000Y-142000000D01*
X117350000Y-142000000D02*
X117350000Y-138210000D01*
D29*
%TO.N,Net-(D7-+)*%
X117750000Y-130190000D02*
X117750000Y-128410000D01*
X117750000Y-128410000D02*
X119160000Y-127000000D01*
%TO.N,Net-(D7--)*%
X113160000Y-130190000D02*
X116630000Y-126720000D01*
X112670000Y-130190000D02*
X113160000Y-130190000D01*
X116630000Y-126720000D02*
X116630000Y-124100000D01*
%TO.N,Net-(U7-VF+)*%
X114090000Y-124100000D02*
X114090000Y-126260000D01*
X114090000Y-126260000D02*
X113350000Y-127000000D01*
X113350000Y-127000000D02*
X111540000Y-127000000D01*
%TO.N,Net-(R15-Pad2)*%
X133625000Y-129200000D02*
X133625000Y-126725000D01*
X133625000Y-126725000D02*
X134350000Y-126000000D01*
X134350000Y-126000000D02*
X136160000Y-126000000D01*
%TO.N,/Loop4/FROM_LOOP*%
X116630000Y-113940000D02*
X116630000Y-111720000D01*
X117350000Y-111000000D02*
X119160000Y-111000000D01*
X116630000Y-111720000D02*
X117350000Y-111000000D01*
D31*
%TO.N,Net-(J6-Pin_1)*%
X112490000Y-42055000D02*
X113615000Y-43180000D01*
%TO.N,Net-(J6-Pin_2)*%
X117490000Y-41845000D02*
X116155000Y-43180000D01*
%TO.N,Net-(J6-Pin_1)*%
X112490000Y-30000000D02*
X112490000Y-38000000D01*
X112490000Y-38000000D02*
X112490000Y-42055000D01*
X109810000Y-38000000D02*
X112490000Y-38000000D01*
%TO.N,Net-(J6-Pin_2)*%
X117490000Y-38000000D02*
X117490000Y-41845000D01*
X119970000Y-38000000D02*
X117490000Y-38000000D01*
X117690000Y-33800000D02*
X117490000Y-34000000D01*
X117490000Y-30000000D02*
X117490000Y-34000000D01*
X117490000Y-34000000D02*
X117490000Y-38000000D01*
X123890000Y-33800000D02*
X117690000Y-33800000D01*
%TO.N,Net-(J5-Pin_1)*%
X127710000Y-30000000D02*
X129890000Y-30000000D01*
X123890000Y-26180000D02*
X127710000Y-30000000D01*
X129890000Y-41790000D02*
X129490000Y-42190000D01*
%TO.N,Net-(J5-Pin_2)*%
X134890000Y-41870000D02*
X134570000Y-42190000D01*
X134890000Y-30000000D02*
X134890000Y-38000000D01*
X134890000Y-38000000D02*
X134890000Y-41870000D01*
X138240000Y-38000000D02*
X134890000Y-38000000D01*
%TO.N,Net-(J5-Pin_1)*%
X129890000Y-30000000D02*
X129890000Y-38000000D01*
X125540000Y-38000000D02*
X129890000Y-38000000D01*
X129890000Y-38000000D02*
X129890000Y-41790000D01*
D29*
%TO.N,Net-(D5-+)*%
X129490000Y-49810000D02*
X129490000Y-51590000D01*
X129490000Y-51590000D02*
X128080000Y-53000000D01*
%TO.N,Net-(D5--)*%
X134080000Y-49810000D02*
X130610000Y-53280000D01*
X134570000Y-49810000D02*
X134080000Y-49810000D01*
X130610000Y-53280000D02*
X130610000Y-55900000D01*
%TO.N,Net-(U5-VF+)*%
X133150000Y-55900000D02*
X133150000Y-53740000D01*
X133150000Y-53740000D02*
X133890000Y-53000000D01*
X133890000Y-53000000D02*
X135700000Y-53000000D01*
%TO.N,Net-(R11-Pad2)*%
X113615000Y-50800000D02*
X113615000Y-53275000D01*
X113615000Y-53275000D02*
X112890000Y-54000000D01*
X112890000Y-54000000D02*
X111080000Y-54000000D01*
%TO.N,/Loop3/FROM_LOOP*%
X130610000Y-66060000D02*
X130610000Y-68280000D01*
X129890000Y-69000000D02*
X128080000Y-69000000D01*
X130610000Y-68280000D02*
X129890000Y-69000000D01*
D31*
%TO.N,Net-(J4-Pin_1)*%
X145490000Y-42055000D02*
X146615000Y-43180000D01*
%TO.N,Net-(J4-Pin_2)*%
X150490000Y-41845000D02*
X149155000Y-43180000D01*
%TO.N,Net-(J4-Pin_1)*%
X145490000Y-30000000D02*
X145490000Y-38000000D01*
X145490000Y-38000000D02*
X145490000Y-42055000D01*
X142810000Y-38000000D02*
X145490000Y-38000000D01*
%TO.N,Net-(J4-Pin_2)*%
X150490000Y-38000000D02*
X150490000Y-41845000D01*
X152970000Y-38000000D02*
X150490000Y-38000000D01*
X150690000Y-33800000D02*
X150490000Y-34000000D01*
X150490000Y-30000000D02*
X150490000Y-34000000D01*
X150490000Y-34000000D02*
X150490000Y-38000000D01*
X156890000Y-33800000D02*
X150690000Y-33800000D01*
%TO.N,Net-(J3-Pin_1)*%
X160710000Y-30000000D02*
X162890000Y-30000000D01*
X156890000Y-26180000D02*
X160710000Y-30000000D01*
X162890000Y-41790000D02*
X162490000Y-42190000D01*
%TO.N,Net-(J3-Pin_2)*%
X167890000Y-41870000D02*
X167570000Y-42190000D01*
X167890000Y-30000000D02*
X167890000Y-38000000D01*
X167890000Y-38000000D02*
X167890000Y-41870000D01*
X171240000Y-38000000D02*
X167890000Y-38000000D01*
%TO.N,Net-(J3-Pin_1)*%
X162890000Y-30000000D02*
X162890000Y-38000000D01*
X158540000Y-38000000D02*
X162890000Y-38000000D01*
X162890000Y-38000000D02*
X162890000Y-41790000D01*
D29*
%TO.N,Net-(D3-+)*%
X162490000Y-49810000D02*
X162490000Y-51590000D01*
X162490000Y-51590000D02*
X161080000Y-53000000D01*
%TO.N,Net-(D3--)*%
X167080000Y-49810000D02*
X163610000Y-53280000D01*
X167570000Y-49810000D02*
X167080000Y-49810000D01*
X163610000Y-53280000D02*
X163610000Y-55900000D01*
%TO.N,Net-(U3-VF+)*%
X166150000Y-55900000D02*
X166150000Y-53740000D01*
X166150000Y-53740000D02*
X166890000Y-53000000D01*
X166890000Y-53000000D02*
X168700000Y-53000000D01*
%TO.N,Net-(R7-Pad2)*%
X146615000Y-50800000D02*
X146615000Y-53275000D01*
X146615000Y-53275000D02*
X145890000Y-54000000D01*
X145890000Y-54000000D02*
X144080000Y-54000000D01*
%TO.N,/Loop2/FROM_LOOP*%
X163610000Y-66060000D02*
X163610000Y-68280000D01*
X162890000Y-69000000D02*
X161080000Y-69000000D01*
X163610000Y-68280000D02*
X162890000Y-69000000D01*
%TO.N,/Loop1/FROM_LOOP*%
X196610000Y-68280000D02*
X195890000Y-69000000D01*
X195890000Y-69000000D02*
X194080000Y-69000000D01*
X196610000Y-66060000D02*
X196610000Y-68280000D01*
%TO.N,Net-(R3-Pad2)*%
X178890000Y-54000000D02*
X177080000Y-54000000D01*
X179615000Y-53275000D02*
X178890000Y-54000000D01*
X179615000Y-50800000D02*
X179615000Y-53275000D01*
%TO.N,Net-(U1-VF+)*%
X199890000Y-53000000D02*
X201700000Y-53000000D01*
X199150000Y-53740000D02*
X199890000Y-53000000D01*
X199150000Y-55900000D02*
X199150000Y-53740000D01*
%TO.N,Net-(D1--)*%
X196610000Y-53280000D02*
X196610000Y-55900000D01*
X200570000Y-49810000D02*
X200080000Y-49810000D01*
X200080000Y-49810000D02*
X196610000Y-53280000D01*
%TO.N,Net-(D1-+)*%
X195490000Y-51590000D02*
X194080000Y-53000000D01*
X195490000Y-49810000D02*
X195490000Y-51590000D01*
D31*
%TO.N,Net-(J1-Pin_1)*%
X195890000Y-38000000D02*
X195890000Y-41790000D01*
X191540000Y-38000000D02*
X195890000Y-38000000D01*
X195890000Y-30000000D02*
X195890000Y-38000000D01*
%TO.N,Net-(J1-Pin_2)*%
X204240000Y-38000000D02*
X200890000Y-38000000D01*
X200890000Y-38000000D02*
X200890000Y-41870000D01*
X200890000Y-30000000D02*
X200890000Y-38000000D01*
X200890000Y-41870000D02*
X200570000Y-42190000D01*
%TO.N,Net-(J1-Pin_1)*%
X195890000Y-41790000D02*
X195490000Y-42190000D01*
X189890000Y-26180000D02*
X193710000Y-30000000D01*
X193710000Y-30000000D02*
X195890000Y-30000000D01*
%TO.N,Net-(D2-K)*%
X189890000Y-33800000D02*
X183690000Y-33800000D01*
X183490000Y-34000000D02*
X183490000Y-38000000D01*
X183490000Y-30000000D02*
X183490000Y-34000000D01*
X183690000Y-33800000D02*
X183490000Y-34000000D01*
X185970000Y-38000000D02*
X183490000Y-38000000D01*
X183490000Y-38000000D02*
X183490000Y-41845000D01*
%TO.N,Net-(D2-A)*%
X175810000Y-38000000D02*
X178490000Y-38000000D01*
X178490000Y-38000000D02*
X178490000Y-42055000D01*
X178490000Y-30000000D02*
X178490000Y-38000000D01*
%TO.N,Net-(D2-K)*%
X183490000Y-41845000D02*
X182155000Y-43180000D01*
%TO.N,Net-(D2-A)*%
X178490000Y-42055000D02*
X179615000Y-43180000D01*
%TD*%
M02*
