%TF.GenerationSoftware,KiCad,Pcbnew,8.0.1*%
%TF.CreationDate,2025-02-20T00:44:45-08:00*%
%TF.ProjectId,tty2040,74747932-3034-4302-9e6b-696361645f70,a*%
%TF.SameCoordinates,Original*%
%TF.FileFunction,Soldermask,Top*%
%TF.FilePolarity,Negative*%
%FSLAX46Y46*%
G04 Gerber Fmt 4.6, Leading zero omitted, Abs format (unit mm)*
G04 Created by KiCad (PCBNEW 8.0.1) date 2025-02-20 00:44:45*
%MOMM*%
%LPD*%
G01*
G04 APERTURE LIST*
G04 Aperture macros list*
%AMRoundRect*
0 Rectangle with rounded corners*
0 $1 Rounding radius*
0 $2 $3 $4 $5 $6 $7 $8 $9 X,Y pos of 4 corners*
0 Add a 4 corners polygon primitive as box body*
4,1,4,$2,$3,$4,$5,$6,$7,$8,$9,$2,$3,0*
0 Add four circle primitives for the rounded corners*
1,1,$1+$1,$2,$3*
1,1,$1+$1,$4,$5*
1,1,$1+$1,$6,$7*
1,1,$1+$1,$8,$9*
0 Add four rect primitives between the rounded corners*
20,1,$1+$1,$2,$3,$4,$5,0*
20,1,$1+$1,$4,$5,$6,$7,0*
20,1,$1+$1,$6,$7,$8,$9,0*
20,1,$1+$1,$8,$9,$2,$3,0*%
%AMFreePoly0*
4,1,28,0.178017,0.779942,0.347107,0.720775,0.498792,0.625465,0.625465,0.498792,0.720775,0.347107,0.779942,0.178017,0.800000,0.000000,0.779942,-0.178017,0.720775,-0.347107,0.625465,-0.498792,0.498792,-0.625465,0.347107,-0.720775,0.178017,-0.779942,0.000000,-0.800000,-2.200000,-0.800000,-2.205014,-0.794986,-2.244504,-0.794986,-2.324698,-0.756366,-2.380194,-0.686777,-2.400000,-0.600000,
-2.400000,0.600000,-2.380194,0.686777,-2.324698,0.756366,-2.244504,0.794986,-2.205014,0.794986,-2.200000,0.800000,0.000000,0.800000,0.178017,0.779942,0.178017,0.779942,$1*%
%AMFreePoly1*
4,1,28,0.605014,0.794986,0.644504,0.794986,0.724698,0.756366,0.780194,0.686777,0.800000,0.600000,0.800000,-0.600000,0.780194,-0.686777,0.724698,-0.756366,0.644504,-0.794986,0.605014,-0.794986,0.600000,-0.800000,0.000000,-0.800000,-0.178017,-0.779942,-0.347107,-0.720775,-0.498792,-0.625465,-0.625465,-0.498792,-0.720775,-0.347107,-0.779942,-0.178017,-0.800000,0.000000,-0.779942,0.178017,
-0.720775,0.347107,-0.625465,0.498792,-0.498792,0.625465,-0.347107,0.720775,-0.178017,0.779942,0.000000,0.800000,0.600000,0.800000,0.605014,0.794986,0.605014,0.794986,$1*%
%AMFreePoly2*
4,1,29,0.605014,0.794986,0.644504,0.794986,0.724698,0.756366,0.780194,0.686777,0.800000,0.600000,0.800000,-0.600000,0.780194,-0.686777,0.724698,-0.756366,0.644504,-0.794986,0.605014,-0.794986,0.600000,-0.800000,0.000000,-0.800000,-1.600000,-0.800000,-1.778017,-0.779942,-1.947107,-0.720775,-2.098792,-0.625465,-2.225465,-0.498792,-2.320775,-0.347107,-2.379942,-0.178017,-2.400000,0.000000,
-2.379942,0.178017,-2.320775,0.347107,-2.225465,0.498792,-2.098792,0.625465,-1.947107,0.720775,-1.778017,0.779942,-1.600000,0.800000,0.600000,0.800000,0.605014,0.794986,0.605014,0.794986,$1*%
%AMFreePoly3*
4,1,28,0.178017,0.779942,0.347107,0.720775,0.498792,0.625465,0.625465,0.498792,0.720775,0.347107,0.779942,0.178017,0.800000,0.000000,0.779942,-0.178017,0.720775,-0.347107,0.625465,-0.498792,0.498792,-0.625465,0.347107,-0.720775,0.178017,-0.779942,0.000000,-0.800000,-0.600000,-0.800000,-0.605014,-0.794986,-0.644504,-0.794986,-0.724698,-0.756366,-0.780194,-0.686777,-0.800000,-0.600000,
-0.800000,0.600000,-0.780194,0.686777,-0.724698,0.756366,-0.644504,0.794986,-0.605014,0.794986,-0.600000,0.800000,0.000000,0.800000,0.178017,0.779942,0.178017,0.779942,$1*%
%AMFreePoly4*
4,1,29,1.778017,0.779942,1.947107,0.720775,2.098792,0.625465,2.225465,0.498792,2.320775,0.347107,2.379942,0.178017,2.400000,0.000000,2.379942,-0.178017,2.320775,-0.347107,2.225465,-0.498792,2.098792,-0.625465,1.947107,-0.720775,1.778017,-0.779942,1.600000,-0.800000,0.000000,-0.800000,-0.600000,-0.800000,-0.605014,-0.794986,-0.644504,-0.794986,-0.724698,-0.756366,-0.780194,-0.686777,
-0.800000,-0.600000,-0.800000,0.600000,-0.780194,0.686777,-0.724698,0.756366,-0.644504,0.794986,-0.605014,0.794986,-0.600000,0.800000,1.600000,0.800000,1.778017,0.779942,1.778017,0.779942,$1*%
G04 Aperture macros list end*
%ADD10C,0.000000*%
%ADD11C,3.000000*%
%ADD12R,1.300000X2.300000*%
%ADD13R,2.100000X2.100000*%
%ADD14C,2.100000*%
%ADD15RoundRect,0.250000X0.312500X0.625000X-0.312500X0.625000X-0.312500X-0.625000X0.312500X-0.625000X0*%
%ADD16RoundRect,0.250000X-0.312500X-0.625000X0.312500X-0.625000X0.312500X0.625000X-0.312500X0.625000X0*%
%ADD17R,0.300000X0.600000*%
%ADD18R,0.800000X0.800000*%
%ADD19R,2.160000X0.910000*%
%ADD20R,1.420000X2.450000*%
%ADD21C,2.700000*%
%ADD22R,0.600000X0.800000*%
%ADD23RoundRect,0.250000X0.625000X-0.312500X0.625000X0.312500X-0.625000X0.312500X-0.625000X-0.312500X0*%
%ADD24R,0.590000X1.300000*%
%ADD25RoundRect,0.250000X-0.625000X0.312500X-0.625000X-0.312500X0.625000X-0.312500X0.625000X0.312500X0*%
%ADD26C,2.200000*%
%ADD27C,1.850000*%
%ADD28RoundRect,0.200000X-0.600000X0.600000X-0.600000X-0.600000X0.600000X-0.600000X0.600000X0.600000X0*%
%ADD29FreePoly0,270.000000*%
%ADD30C,1.600000*%
%ADD31RoundRect,0.800000X-0.000010X0.800000X-0.000010X-0.800000X0.000010X-0.800000X0.000010X0.800000X0*%
%ADD32FreePoly1,270.000000*%
%ADD33FreePoly2,270.000000*%
%ADD34FreePoly3,270.000000*%
%ADD35FreePoly4,270.000000*%
G04 APERTURE END LIST*
D10*
G36*
X85292742Y-122664350D02*
G01*
X85560167Y-122684679D01*
X85823700Y-122718157D01*
X86083009Y-122764452D01*
X86337765Y-122823235D01*
X86587636Y-122894175D01*
X86832292Y-122976941D01*
X87071403Y-123071203D01*
X87304639Y-123176630D01*
X87531667Y-123292891D01*
X87752159Y-123419657D01*
X87965782Y-123556596D01*
X88172208Y-123703377D01*
X88371105Y-123859671D01*
X88562142Y-124025147D01*
X88744989Y-124199474D01*
X88919316Y-124382321D01*
X89084791Y-124573359D01*
X89241085Y-124772255D01*
X89387867Y-124978681D01*
X89524806Y-125192305D01*
X89651571Y-125412796D01*
X89767833Y-125639825D01*
X89873259Y-125873060D01*
X89967521Y-126112171D01*
X90050287Y-126356828D01*
X90121227Y-126606699D01*
X90180010Y-126861455D01*
X90226305Y-127120764D01*
X90259783Y-127384297D01*
X90280112Y-127651722D01*
X90286961Y-127922708D01*
X90280111Y-128193454D01*
X90259780Y-128460668D01*
X90226299Y-128724019D01*
X90179998Y-128983174D01*
X90121210Y-129237802D01*
X90050264Y-129487570D01*
X89967490Y-129732147D01*
X89873221Y-129971199D01*
X89767786Y-130204396D01*
X89651516Y-130431405D01*
X89524742Y-130651894D01*
X89387794Y-130865531D01*
X89241004Y-131071983D01*
X89084702Y-131270919D01*
X88919219Y-131462007D01*
X88744886Y-131644915D01*
X88562032Y-131819310D01*
X88370990Y-131984860D01*
X88172089Y-132141234D01*
X87965661Y-132288098D01*
X87752036Y-132425122D01*
X87531545Y-132551974D01*
X87304518Y-132668320D01*
X87071287Y-132773829D01*
X86832182Y-132868169D01*
X86587533Y-132951007D01*
X86337672Y-133022013D01*
X86082930Y-133080853D01*
X85823636Y-133127195D01*
X85560122Y-133160708D01*
X85292718Y-133181059D01*
X85024224Y-133187854D01*
X85021755Y-133187917D01*
X84751010Y-133181059D01*
X84483795Y-133160708D01*
X84220445Y-133127195D01*
X83961289Y-133080853D01*
X83706661Y-133022013D01*
X83456893Y-132951007D01*
X83212317Y-132868169D01*
X82973264Y-132773829D01*
X82740067Y-132668320D01*
X82513059Y-132551974D01*
X82292570Y-132425122D01*
X82078933Y-132288098D01*
X81872481Y-132141234D01*
X81673544Y-131984860D01*
X81482457Y-131819310D01*
X81299549Y-131644915D01*
X81125154Y-131462007D01*
X80959604Y-131270919D01*
X80803230Y-131071983D01*
X80656365Y-130865531D01*
X80519341Y-130651894D01*
X80392490Y-130431405D01*
X80276144Y-130204396D01*
X80170635Y-129971199D01*
X80076295Y-129732147D01*
X79993456Y-129487570D01*
X79922451Y-129237802D01*
X79863611Y-128983174D01*
X79817269Y-128724019D01*
X79783756Y-128460668D01*
X79763404Y-128193454D01*
X79756547Y-127922708D01*
X80675420Y-127922708D01*
X80681082Y-128146158D01*
X80697884Y-128366697D01*
X80725553Y-128584051D01*
X80763814Y-128797946D01*
X80812395Y-129008106D01*
X80871021Y-129214259D01*
X80939419Y-129416129D01*
X81017314Y-129613443D01*
X81104434Y-129805925D01*
X81200503Y-129993303D01*
X81305248Y-130175300D01*
X81418396Y-130351644D01*
X81539673Y-130522060D01*
X81668805Y-130686273D01*
X81805518Y-130844009D01*
X81949538Y-130994994D01*
X82100591Y-131138954D01*
X82258404Y-131275614D01*
X82422703Y-131404700D01*
X82593214Y-131525937D01*
X82769664Y-131639052D01*
X82951778Y-131743770D01*
X83139282Y-131839816D01*
X83331903Y-131926918D01*
X83529368Y-132004799D01*
X83731401Y-132073186D01*
X83937730Y-132131804D01*
X84148081Y-132180380D01*
X84362180Y-132218638D01*
X84579752Y-132246306D01*
X84800525Y-132263107D01*
X85024224Y-132268769D01*
X85177936Y-132266083D01*
X85330343Y-132258088D01*
X85481355Y-132244877D01*
X85630883Y-132226541D01*
X85778837Y-132203173D01*
X85925128Y-132174866D01*
X86069665Y-132141711D01*
X86212360Y-132103802D01*
X86353122Y-132061231D01*
X86491863Y-132014090D01*
X86628491Y-131962471D01*
X86762918Y-131906468D01*
X86895055Y-131846173D01*
X87024810Y-131781677D01*
X87152096Y-131713074D01*
X87276822Y-131640456D01*
X87393123Y-131566911D01*
X87506921Y-131489856D01*
X87726698Y-131325523D01*
X87935530Y-131148063D01*
X88132791Y-130958083D01*
X88317859Y-130756191D01*
X88490108Y-130542993D01*
X88571231Y-130432344D01*
X88648915Y-130319096D01*
X88723083Y-130203325D01*
X88793656Y-130085107D01*
X88860556Y-129964518D01*
X88923706Y-129841633D01*
X88983026Y-129716528D01*
X89038441Y-129589280D01*
X89089870Y-129459965D01*
X89137236Y-129328657D01*
X89180462Y-129195433D01*
X89219469Y-129060368D01*
X89254179Y-128923540D01*
X89284514Y-128785023D01*
X89310397Y-128644893D01*
X89331748Y-128503226D01*
X89348490Y-128360098D01*
X89360546Y-128215586D01*
X89367836Y-128069764D01*
X89370284Y-127922708D01*
X89361466Y-127643484D01*
X89335366Y-127368969D01*
X89292516Y-127099696D01*
X89233445Y-126836194D01*
X89158685Y-126578994D01*
X89068767Y-126328626D01*
X88964222Y-126085622D01*
X88845581Y-125850511D01*
X88713374Y-125623824D01*
X88568133Y-125406091D01*
X88410388Y-125197844D01*
X88240671Y-124999613D01*
X88059512Y-124811928D01*
X87867442Y-124635319D01*
X87664993Y-124470317D01*
X87452695Y-124317454D01*
X87320920Y-124232268D01*
X87185980Y-124151705D01*
X87047980Y-124075884D01*
X86907028Y-124004926D01*
X86763230Y-123938952D01*
X86616694Y-123878083D01*
X86467526Y-123822438D01*
X86315833Y-123772138D01*
X86161722Y-123727305D01*
X86005300Y-123688058D01*
X85846674Y-123654519D01*
X85685951Y-123626807D01*
X85523237Y-123605043D01*
X85358640Y-123589349D01*
X85192267Y-123579843D01*
X85024224Y-123576648D01*
X84800525Y-123582302D01*
X84579752Y-123599081D01*
X84362180Y-123626713D01*
X84148081Y-123664924D01*
X83937730Y-123713443D01*
X83731401Y-123771996D01*
X83529368Y-123840310D01*
X83331903Y-123918113D01*
X83139282Y-124005132D01*
X82951778Y-124101094D01*
X82769664Y-124205726D01*
X82593214Y-124318756D01*
X82422703Y-124439910D01*
X82258404Y-124568917D01*
X82100591Y-124705502D01*
X81949538Y-124849393D01*
X81805518Y-125000318D01*
X81668805Y-125158004D01*
X81539673Y-125322178D01*
X81418396Y-125492566D01*
X81305248Y-125668897D01*
X81200503Y-125850898D01*
X81104434Y-126038295D01*
X81017314Y-126230816D01*
X80939419Y-126428188D01*
X80871021Y-126630138D01*
X80812395Y-126836394D01*
X80763814Y-127046683D01*
X80725553Y-127260731D01*
X80697884Y-127478267D01*
X80681082Y-127699017D01*
X80675420Y-127922708D01*
X79756547Y-127922708D01*
X79763405Y-127651722D01*
X79783756Y-127384297D01*
X79817269Y-127120764D01*
X79863612Y-126861455D01*
X79922451Y-126606699D01*
X79993457Y-126356828D01*
X80076296Y-126112171D01*
X80170635Y-125873060D01*
X80276144Y-125639825D01*
X80392491Y-125412796D01*
X80519342Y-125192305D01*
X80656366Y-124978681D01*
X80803231Y-124772255D01*
X80959604Y-124573359D01*
X81125155Y-124382321D01*
X81299550Y-124199474D01*
X81482457Y-124025147D01*
X81673545Y-123859671D01*
X81872481Y-123703377D01*
X82078934Y-123556596D01*
X82292570Y-123419657D01*
X82513059Y-123292891D01*
X82740068Y-123176630D01*
X82973265Y-123071203D01*
X83212317Y-122976941D01*
X83456894Y-122894175D01*
X83706662Y-122823235D01*
X83961290Y-122764452D01*
X84220445Y-122718157D01*
X84483796Y-122684679D01*
X84751010Y-122664350D01*
X85021756Y-122657501D01*
X85292742Y-122664350D01*
G37*
G36*
X87145272Y-124641215D02*
G01*
X87148290Y-127346527D01*
X87880865Y-127346527D01*
X87880865Y-128490660D01*
X87148290Y-128496147D01*
X87164752Y-131198716D01*
X86152319Y-131196879D01*
X85652686Y-131195973D01*
X85640575Y-131136866D01*
X85626816Y-131080404D01*
X85611471Y-131026530D01*
X85594599Y-130975188D01*
X85576262Y-130926323D01*
X85556520Y-130879876D01*
X85535436Y-130835793D01*
X85513069Y-130794017D01*
X85489480Y-130754491D01*
X85464732Y-130717160D01*
X85438883Y-130681968D01*
X85411996Y-130648857D01*
X85384132Y-130617771D01*
X85355350Y-130588655D01*
X85325713Y-130561453D01*
X85295281Y-130536107D01*
X85264116Y-130512561D01*
X85232277Y-130490760D01*
X85199826Y-130470647D01*
X85166824Y-130452166D01*
X85099411Y-130419873D01*
X85030525Y-130393433D01*
X84960653Y-130372394D01*
X84890283Y-130356307D01*
X84819903Y-130344721D01*
X84750000Y-130337187D01*
X82961091Y-130186282D01*
X82917717Y-130182241D01*
X82875566Y-130176335D01*
X82834640Y-130168625D01*
X82794941Y-130159177D01*
X82756469Y-130148052D01*
X82719226Y-130135315D01*
X82683215Y-130121029D01*
X82648435Y-130105256D01*
X82614890Y-130088061D01*
X82582580Y-130069506D01*
X82551507Y-130049655D01*
X82521672Y-130028571D01*
X82493077Y-130006318D01*
X82465724Y-129982958D01*
X82439613Y-129958555D01*
X82414747Y-129933173D01*
X82391127Y-129906874D01*
X82368754Y-129879723D01*
X82327757Y-129823113D01*
X82291768Y-129763851D01*
X82260799Y-129702443D01*
X82234861Y-129639395D01*
X82213968Y-129575214D01*
X82198130Y-129510405D01*
X82187361Y-129445476D01*
X82158991Y-129198921D01*
X82140461Y-128997863D01*
X82129775Y-128838411D01*
X82124941Y-128716674D01*
X82124255Y-128529072D01*
X81482224Y-128520841D01*
X81482224Y-127917221D01*
X83068371Y-127917221D01*
X83070429Y-128120899D01*
X83076602Y-128324321D01*
X83086891Y-128527228D01*
X83101296Y-128729363D01*
X83103412Y-128773382D01*
X83108836Y-128817730D01*
X83117724Y-128862030D01*
X83130234Y-128905905D01*
X83146521Y-128948975D01*
X83156131Y-128970091D01*
X83166743Y-128990864D01*
X83178379Y-129011247D01*
X83191057Y-129031193D01*
X83204797Y-129050655D01*
X83219619Y-129069585D01*
X83235542Y-129087936D01*
X83252586Y-129105662D01*
X83270770Y-129122714D01*
X83290115Y-129139046D01*
X83310638Y-129154610D01*
X83332362Y-129169360D01*
X83355304Y-129183247D01*
X83379484Y-129196225D01*
X83404922Y-129208246D01*
X83431638Y-129219264D01*
X83459651Y-129229231D01*
X83488981Y-129238099D01*
X83519647Y-129245822D01*
X83551669Y-129252352D01*
X83585067Y-129257643D01*
X83619860Y-129261646D01*
X84978004Y-129387857D01*
X85052578Y-129396442D01*
X85123069Y-129407666D01*
X85189591Y-129421337D01*
X85252259Y-129437266D01*
X85311185Y-129455260D01*
X85366482Y-129475128D01*
X85418266Y-129496681D01*
X85466648Y-129519727D01*
X85511744Y-129544076D01*
X85553665Y-129569535D01*
X85592527Y-129595915D01*
X85628442Y-129623024D01*
X85661524Y-129650672D01*
X85691887Y-129678668D01*
X85744909Y-129734938D01*
X85788418Y-129790308D01*
X85823321Y-129843251D01*
X85850527Y-129892239D01*
X85870945Y-129935745D01*
X85902914Y-130024401D01*
X86152319Y-130027145D01*
X86152319Y-125812784D01*
X85891664Y-125810040D01*
X85866829Y-125861260D01*
X85841667Y-125909518D01*
X85816191Y-125954908D01*
X85790413Y-125997525D01*
X85764347Y-126037460D01*
X85738004Y-126074808D01*
X85711397Y-126109663D01*
X85684539Y-126142117D01*
X85657442Y-126172264D01*
X85630119Y-126200197D01*
X85602582Y-126226011D01*
X85574845Y-126249797D01*
X85546918Y-126271651D01*
X85518816Y-126291665D01*
X85490551Y-126309932D01*
X85462134Y-126326547D01*
X85433580Y-126341602D01*
X85404899Y-126355191D01*
X85376106Y-126367408D01*
X85347212Y-126378345D01*
X85289172Y-126396757D01*
X85230881Y-126411173D01*
X85172439Y-126422343D01*
X85113946Y-126431012D01*
X84997210Y-126443841D01*
X83619860Y-126572796D01*
X83587286Y-126575055D01*
X83555920Y-126578713D01*
X83525745Y-126583724D01*
X83496746Y-126590040D01*
X83468909Y-126597615D01*
X83442219Y-126606400D01*
X83416659Y-126616348D01*
X83392217Y-126627413D01*
X83368875Y-126639547D01*
X83346620Y-126652703D01*
X83325435Y-126666833D01*
X83305307Y-126681891D01*
X83286220Y-126697829D01*
X83268158Y-126714600D01*
X83251107Y-126732157D01*
X83235053Y-126750452D01*
X83219978Y-126769438D01*
X83205870Y-126789069D01*
X83192712Y-126809297D01*
X83180489Y-126830074D01*
X83169187Y-126851353D01*
X83158790Y-126873088D01*
X83140651Y-126917734D01*
X83125953Y-126963633D01*
X83114575Y-127010409D01*
X83106396Y-127057684D01*
X83101296Y-127105079D01*
X83086891Y-127308757D01*
X83076602Y-127512178D01*
X83070429Y-127715085D01*
X83068371Y-127917221D01*
X81482224Y-127917221D01*
X81482224Y-127313602D01*
X82126999Y-127305371D01*
X82135273Y-127088145D01*
X82149978Y-126833107D01*
X82168284Y-126585786D01*
X82177903Y-126479247D01*
X82187361Y-126391710D01*
X82192692Y-126353157D01*
X82199397Y-126315690D01*
X82207437Y-126279299D01*
X82216771Y-126243978D01*
X82227358Y-126209717D01*
X82239160Y-126176510D01*
X82252135Y-126144347D01*
X82266244Y-126113222D01*
X82281445Y-126083125D01*
X82297700Y-126054050D01*
X82314967Y-126025987D01*
X82333208Y-125998929D01*
X82352380Y-125972867D01*
X82372445Y-125947795D01*
X82393362Y-125923703D01*
X82415091Y-125900583D01*
X82433868Y-125882326D01*
X82453160Y-125864615D01*
X82472966Y-125847483D01*
X82493287Y-125830961D01*
X82503640Y-125822940D01*
X82514122Y-125815083D01*
X82524732Y-125807395D01*
X82535471Y-125799880D01*
X82546339Y-125792542D01*
X82557336Y-125785384D01*
X82568461Y-125778412D01*
X82579714Y-125771628D01*
X82602023Y-125758637D01*
X82624685Y-125746410D01*
X82647670Y-125734938D01*
X82670943Y-125724213D01*
X82694474Y-125714229D01*
X82718229Y-125704975D01*
X82742178Y-125696445D01*
X82766287Y-125688631D01*
X82790525Y-125681524D01*
X82814860Y-125675116D01*
X82839259Y-125669399D01*
X82863690Y-125664366D01*
X82888120Y-125660008D01*
X82912519Y-125656317D01*
X82936854Y-125653285D01*
X82961092Y-125650904D01*
X84750000Y-125500000D01*
X84822634Y-125496080D01*
X84891413Y-125487611D01*
X84956434Y-125474901D01*
X85017798Y-125458254D01*
X85075602Y-125437979D01*
X85129947Y-125414380D01*
X85180930Y-125387766D01*
X85228652Y-125358441D01*
X85273210Y-125326713D01*
X85314705Y-125292888D01*
X85353234Y-125257272D01*
X85388897Y-125220172D01*
X85421793Y-125181895D01*
X85452021Y-125142747D01*
X85479679Y-125103033D01*
X85504868Y-125063062D01*
X85548229Y-124983571D01*
X85582898Y-124906724D01*
X85609665Y-124834973D01*
X85629321Y-124770770D01*
X85642660Y-124716567D01*
X85650473Y-124674815D01*
X85653551Y-124647966D01*
X85652686Y-124638471D01*
X87145272Y-124641215D01*
G37*
D11*
%TO.C,FID1*%
X89250000Y-136500000D03*
%TD*%
%TO.C,FID2*%
X214500000Y-69250000D03*
%TD*%
D12*
%TO.C,SW5*%
X104520000Y-130720000D03*
X104520000Y-139480000D03*
%TD*%
%TO.C,SW1*%
X194480000Y-70130000D03*
X194480000Y-61370000D03*
%TD*%
%TO.C,SW4*%
X104462500Y-69842500D03*
X104462500Y-61082500D03*
%TD*%
%TO.C,SW2*%
X163500000Y-70150000D03*
X163500000Y-61390000D03*
%TD*%
%TO.C,SW3*%
X135000000Y-70130000D03*
X135000000Y-61370000D03*
%TD*%
%TO.C,SW6*%
X135345000Y-130720000D03*
X135345000Y-139480000D03*
%TD*%
D13*
%TO.C,J2*%
X183230000Y-64500000D03*
D14*
X188230000Y-64500000D03*
%TD*%
D15*
%TO.C,R22*%
X133307500Y-121350000D03*
X130382500Y-121350000D03*
%TD*%
D13*
%TO.C,J11*%
X130095000Y-136350000D03*
D14*
X125095000Y-136350000D03*
%TD*%
D16*
%TO.C,R6*%
X165537500Y-79520000D03*
X168462500Y-79520000D03*
%TD*%
D17*
%TO.C,D10*%
X112950000Y-130850000D03*
X113590000Y-130850000D03*
%TD*%
D18*
%TO.C,LED3*%
X120250000Y-81000000D03*
X120250000Y-82600000D03*
%TD*%
D16*
%TO.C,R12*%
X137537500Y-97000000D03*
X140462500Y-97000000D03*
%TD*%
D13*
%TO.C,J10*%
X115770000Y-136350000D03*
D14*
X110770000Y-136350000D03*
%TD*%
D18*
%TO.C,LED6*%
X121250000Y-119300000D03*
X121250000Y-117700000D03*
%TD*%
D17*
%TO.C,D2*%
X186050000Y-70000000D03*
X185410000Y-70000000D03*
%TD*%
D13*
%TO.C,J5*%
X140250000Y-64500000D03*
D14*
X145250000Y-64500000D03*
%TD*%
D19*
%TO.C,D7*%
X105152500Y-73462500D03*
X110772500Y-73462500D03*
X105152500Y-75962500D03*
X110772500Y-75962500D03*
%TD*%
D20*
%TO.C,U3*%
X170810000Y-83500000D03*
X168270000Y-83500000D03*
X165730000Y-83500000D03*
X163190000Y-83500000D03*
X163190000Y-93540000D03*
X165730000Y-93540000D03*
X168270000Y-93540000D03*
X170810000Y-93540000D03*
%TD*%
D21*
%TO.C,H2*%
X83250000Y-64250000D03*
%TD*%
D19*
%TO.C,D3*%
X164190000Y-73770000D03*
X169810000Y-73770000D03*
X164190000Y-76270000D03*
X169810000Y-76270000D03*
%TD*%
D15*
%TO.C,R18*%
X102482500Y-121350000D03*
X99557500Y-121350000D03*
%TD*%
D22*
%TO.C,U15*%
X119850000Y-116100000D03*
X120650000Y-116100000D03*
X120650000Y-114500000D03*
X119850000Y-114500000D03*
%TD*%
D18*
%TO.C,LED5*%
X119500000Y-119300000D03*
X119500000Y-117700000D03*
%TD*%
D23*
%TO.C,R11*%
X126250000Y-96962500D03*
X126250000Y-94037500D03*
%TD*%
D16*
%TO.C,R4*%
X197017500Y-97000000D03*
X199942500Y-97000000D03*
%TD*%
%TO.C,R16*%
X107000000Y-96712500D03*
X109925000Y-96712500D03*
%TD*%
D22*
%TO.C,U14*%
X119800000Y-84250000D03*
X119000000Y-84250000D03*
X119000000Y-85850000D03*
X119800000Y-85850000D03*
%TD*%
D20*
%TO.C,U9*%
X97210000Y-117370000D03*
X99750000Y-117370000D03*
X102290000Y-117370000D03*
X104830000Y-117370000D03*
X104830000Y-107330000D03*
X102290000Y-107330000D03*
X99750000Y-107330000D03*
X97210000Y-107330000D03*
%TD*%
D13*
%TO.C,J1*%
X199730000Y-64500000D03*
D14*
X204730000Y-64500000D03*
%TD*%
D13*
%TO.C,J8*%
X93212500Y-64212500D03*
D14*
X98212500Y-64212500D03*
%TD*%
D15*
%TO.C,R24*%
X132807500Y-103850000D03*
X129882500Y-103850000D03*
%TD*%
D19*
%TO.C,D1*%
X195170000Y-73750000D03*
X200790000Y-73750000D03*
X195170000Y-76250000D03*
X200790000Y-76250000D03*
%TD*%
D20*
%TO.C,U7*%
X111772500Y-83192500D03*
X109232500Y-83192500D03*
X106692500Y-83192500D03*
X104152500Y-83192500D03*
X104152500Y-93232500D03*
X106692500Y-93232500D03*
X109232500Y-93232500D03*
X111772500Y-93232500D03*
%TD*%
D16*
%TO.C,R8*%
X166037500Y-97020000D03*
X168962500Y-97020000D03*
%TD*%
D22*
%TO.C,U13*%
X178650000Y-84200000D03*
X177850000Y-84200000D03*
X177850000Y-85800000D03*
X178650000Y-85800000D03*
%TD*%
D16*
%TO.C,R5*%
X167037500Y-71020000D03*
X169962500Y-71020000D03*
%TD*%
D23*
%TO.C,R7*%
X154750000Y-96982500D03*
X154750000Y-94057500D03*
%TD*%
D13*
%TO.C,J7*%
X109712500Y-64212500D03*
D14*
X114712500Y-64212500D03*
%TD*%
D21*
%TO.C,H1*%
X214500000Y-64000000D03*
%TD*%
D24*
%TO.C,U8*%
X94442500Y-91362500D03*
X96982500Y-91362500D03*
X96982500Y-85062500D03*
X94442500Y-85062500D03*
%TD*%
D20*
%TO.C,U5*%
X142310000Y-83480000D03*
X139770000Y-83480000D03*
X137230000Y-83480000D03*
X134690000Y-83480000D03*
X134690000Y-93520000D03*
X137230000Y-93520000D03*
X139770000Y-93520000D03*
X142310000Y-93520000D03*
%TD*%
D24*
%TO.C,U4*%
X153480000Y-91670000D03*
X156020000Y-91670000D03*
X156020000Y-85370000D03*
X153480000Y-85370000D03*
%TD*%
D25*
%TO.C,R23*%
X144095000Y-103887500D03*
X144095000Y-106812500D03*
%TD*%
D15*
%TO.C,R20*%
X101982500Y-103850000D03*
X99057500Y-103850000D03*
%TD*%
D24*
%TO.C,U6*%
X124980000Y-91650000D03*
X127520000Y-91650000D03*
X127520000Y-85350000D03*
X124980000Y-85350000D03*
%TD*%
%TO.C,U10*%
X114540000Y-109200000D03*
X112000000Y-109200000D03*
X112000000Y-115500000D03*
X114540000Y-115500000D03*
%TD*%
D20*
%TO.C,U1*%
X201790000Y-83480000D03*
X199250000Y-83480000D03*
X196710000Y-83480000D03*
X194170000Y-83480000D03*
X194170000Y-93520000D03*
X196710000Y-93520000D03*
X199250000Y-93520000D03*
X201790000Y-93520000D03*
%TD*%
D16*
%TO.C,R2*%
X196517500Y-79500000D03*
X199442500Y-79500000D03*
%TD*%
D19*
%TO.C,D9*%
X103830000Y-127100000D03*
X98210000Y-127100000D03*
X103830000Y-124600000D03*
X98210000Y-124600000D03*
%TD*%
D23*
%TO.C,R15*%
X95712500Y-96675000D03*
X95712500Y-93750000D03*
%TD*%
D15*
%TO.C,R17*%
X100982500Y-129850000D03*
X98057500Y-129850000D03*
%TD*%
D16*
%TO.C,R9*%
X138537500Y-71000000D03*
X141462500Y-71000000D03*
%TD*%
D21*
%TO.C,H4*%
X83250000Y-136500000D03*
%TD*%
D13*
%TO.C,J9*%
X99270000Y-136350000D03*
D14*
X94270000Y-136350000D03*
%TD*%
D16*
%TO.C,R10*%
X137037500Y-79500000D03*
X139962500Y-79500000D03*
%TD*%
D13*
%TO.C,J12*%
X146595000Y-136350000D03*
D14*
X141595000Y-136350000D03*
%TD*%
D18*
%TO.C,LED4*%
X118500000Y-81000000D03*
X118500000Y-82600000D03*
%TD*%
D23*
%TO.C,R3*%
X185730000Y-96962500D03*
X185730000Y-94037500D03*
%TD*%
D16*
%TO.C,R14*%
X106500000Y-79212500D03*
X109425000Y-79212500D03*
%TD*%
D17*
%TO.C,D4*%
X155070000Y-70020000D03*
X154430000Y-70020000D03*
%TD*%
D16*
%TO.C,R13*%
X108000000Y-70712500D03*
X110925000Y-70712500D03*
%TD*%
D24*
%TO.C,U12*%
X145365000Y-109200000D03*
X142825000Y-109200000D03*
X142825000Y-115500000D03*
X145365000Y-115500000D03*
%TD*%
D16*
%TO.C,R1*%
X198017500Y-71000000D03*
X200942500Y-71000000D03*
%TD*%
D18*
%TO.C,LED1*%
X179250000Y-80870000D03*
X179250000Y-82470000D03*
%TD*%
D17*
%TO.C,D12*%
X143775000Y-130850000D03*
X144415000Y-130850000D03*
%TD*%
D20*
%TO.C,U11*%
X128035000Y-117370000D03*
X130575000Y-117370000D03*
X133115000Y-117370000D03*
X135655000Y-117370000D03*
X135655000Y-107330000D03*
X133115000Y-107330000D03*
X130575000Y-107330000D03*
X128035000Y-107330000D03*
%TD*%
D15*
%TO.C,R21*%
X131807500Y-129850000D03*
X128882500Y-129850000D03*
%TD*%
D19*
%TO.C,D11*%
X134655000Y-127100000D03*
X129035000Y-127100000D03*
X134655000Y-124600000D03*
X129035000Y-124600000D03*
%TD*%
D13*
%TO.C,J4*%
X152250000Y-64520000D03*
D14*
X157250000Y-64520000D03*
%TD*%
D21*
%TO.C,H3*%
X214500000Y-136500000D03*
%TD*%
D18*
%TO.C,LED2*%
X177500000Y-80870000D03*
X177500000Y-82470000D03*
%TD*%
D17*
%TO.C,D8*%
X96032500Y-69712500D03*
X95392500Y-69712500D03*
%TD*%
%TO.C,D6*%
X126570000Y-70000000D03*
X125930000Y-70000000D03*
%TD*%
D24*
%TO.C,U2*%
X184460000Y-91650000D03*
X187000000Y-91650000D03*
X187000000Y-85350000D03*
X184460000Y-85350000D03*
%TD*%
D25*
%TO.C,R19*%
X113270000Y-103887500D03*
X113270000Y-106812500D03*
%TD*%
D26*
%TO.C,A1*%
X201000000Y-116775000D03*
D27*
X197970000Y-117075000D03*
X197970000Y-121925000D03*
D26*
X201000000Y-122225000D03*
D28*
X201130000Y-110610000D03*
D29*
X201130000Y-110610000D03*
D30*
X198590000Y-110610000D03*
D31*
X198590000Y-109810000D03*
D32*
X196050000Y-110610000D03*
D33*
X196050000Y-110610000D03*
D30*
X193510000Y-110610000D03*
D31*
X193510000Y-109810000D03*
D30*
X190970000Y-110610000D03*
D31*
X190970000Y-109810000D03*
D30*
X188430000Y-110610000D03*
D31*
X188430000Y-109810000D03*
D30*
X185890000Y-110610000D03*
D31*
X185890000Y-109810000D03*
D32*
X183350000Y-110610000D03*
D33*
X183350000Y-110610000D03*
D30*
X180810000Y-110610000D03*
D31*
X180810000Y-109810000D03*
D30*
X178270000Y-110610000D03*
D31*
X178270000Y-109810000D03*
D30*
X175730000Y-110610000D03*
D31*
X175730000Y-109810000D03*
D30*
X173190000Y-110610000D03*
D31*
X173190000Y-109810000D03*
D32*
X170650000Y-110610000D03*
D33*
X170650000Y-110610000D03*
D30*
X168110000Y-110610000D03*
D31*
X168110000Y-109810000D03*
D30*
X165570000Y-110610000D03*
D31*
X165570000Y-109810000D03*
D30*
X163030000Y-110610000D03*
D31*
X163030000Y-109810000D03*
D30*
X160490000Y-110610000D03*
D31*
X160490000Y-109810000D03*
D32*
X157950000Y-110610000D03*
D33*
X157950000Y-110610000D03*
D30*
X155410000Y-110610000D03*
D31*
X155410000Y-109810000D03*
D30*
X152870000Y-110610000D03*
D31*
X152870000Y-109810000D03*
D30*
X152870000Y-128390000D03*
D31*
X152870000Y-129190000D03*
D30*
X155410000Y-128390000D03*
D31*
X155410000Y-129190000D03*
D34*
X157950000Y-128390000D03*
D35*
X157950000Y-128390000D03*
D30*
X160490000Y-128390000D03*
D31*
X160490000Y-129190000D03*
D30*
X163030000Y-128390000D03*
D31*
X163030000Y-129190000D03*
D30*
X165570000Y-128390000D03*
D31*
X165570000Y-129190000D03*
D30*
X168110000Y-128390000D03*
D31*
X168110000Y-129190000D03*
D34*
X170650000Y-128390000D03*
D35*
X170650000Y-128390000D03*
D30*
X173190000Y-128390000D03*
D31*
X173190000Y-129190000D03*
D30*
X175730000Y-128390000D03*
D31*
X175730000Y-129190000D03*
D30*
X178270000Y-128390000D03*
D31*
X178270000Y-129190000D03*
D30*
X180810000Y-128390000D03*
D31*
X180810000Y-129190000D03*
D34*
X183350000Y-128390000D03*
D35*
X183350000Y-128390000D03*
D30*
X185890000Y-128390000D03*
D31*
X185890000Y-129190000D03*
D30*
X188430000Y-128390000D03*
D31*
X188430000Y-129190000D03*
D30*
X190970000Y-128390000D03*
D31*
X190970000Y-129190000D03*
D30*
X193510000Y-128390000D03*
D31*
X193510000Y-129190000D03*
D34*
X196050000Y-128390000D03*
D35*
X196050000Y-128390000D03*
D30*
X198590000Y-128390000D03*
D31*
X198590000Y-129190000D03*
D30*
X201130000Y-128390000D03*
D31*
X201130000Y-129190000D03*
%TD*%
D19*
%TO.C,D5*%
X135690000Y-73750000D03*
X141310000Y-73750000D03*
X135690000Y-76250000D03*
X141310000Y-76250000D03*
%TD*%
D13*
%TO.C,J3*%
X168750000Y-64520000D03*
D14*
X173750000Y-64520000D03*
%TD*%
D13*
%TO.C,J6*%
X123750000Y-64500000D03*
D14*
X128750000Y-64500000D03*
%TD*%
M02*
