M48
; DRILL file {KiCad 8.0.1} date 2025-03-11T09:06:04-0700
; FORMAT={-:-/ absolute / inch / decimal}
; #@! TF.CreationDate,2025-03-11T09:06:04-07:00
; #@! TF.GenerationSoftware,Kicad,Pcbnew,8.0.1
; #@! TF.FileFunction,Plated,1,2,PTH
FMAT,2
INCH
; #@! TA.AperFunction,Plated,PTH,ViaDrill
T1C0.0118
; #@! TA.AperFunction,Plated,PTH,ComponentDrill
T2C0.0276
; #@! TA.AperFunction,Plated,PTH,ComponentDrill
T3C0.0315
; #@! TA.AperFunction,Plated,PTH,ComponentDrill
T4C0.0354
; #@! TA.AperFunction,Plated,PTH,ComponentDrill
T5C0.0394
; #@! TA.AperFunction,Plated,PTH,ComponentDrill
T6C0.0433
%
G90
G05
T1
X6.3386Y-2.8346
X6.4961Y-2.8346
X6.6535Y-2.9528
X6.8898Y-3.0315
X6.8898Y-3.0709
X7.2835Y-2.7953
T2
X4.3732Y-2.126
X4.3898Y-3.4402
X4.3898Y-3.7402
X4.3913Y-4.3701
X4.3913Y-5.0
X4.5669Y-3.4402
X4.5669Y-3.7402
X4.6732Y-2.126
X4.6913Y-4.3701
X4.6913Y-5.0
X4.7441Y-3.4402
X4.7441Y-3.7402
X4.9213Y-3.4303
X4.9213Y-3.7303
X5.0425Y-2.0866
X5.0425Y-2.7165
X5.0606Y-4.9606
X5.0984Y-3.4327
X5.0984Y-3.7327
X5.2756Y-3.4327
X5.2756Y-3.7327
X5.3425Y-2.0866
X5.3425Y-2.7165
X5.3606Y-4.9606
X5.6724Y-2.126
X5.6935Y-4.3701
X5.6935Y-5.0
X5.9724Y-2.126
X5.9935Y-4.3701
X5.9935Y-5.0
X6.3417Y-2.0866
X6.3417Y-2.7165
X6.3628Y-4.9606
X6.6417Y-2.0866
X6.6417Y-2.7165
X6.6628Y-4.9606
X6.9717Y-2.126
X6.9898Y-4.3701
X6.9898Y-5.0
X7.2717Y-2.126
X7.2898Y-4.3701
X7.2898Y-5.0
X7.6409Y-2.0866
X7.6409Y-2.7165
X7.6591Y-4.9606
X7.9409Y-2.0866
X7.9409Y-2.7165
X7.9591Y-4.9606
T3
X4.2913Y-5.5906
X4.3917Y-4.4858
X4.3917Y-4.8858
X4.4358Y-5.1256
X4.4358Y-5.4256
X4.473Y-1.7
X4.473Y-2.0
X4.4917Y-4.4858
X4.4917Y-4.8858
X4.573Y-1.7
X4.573Y-2.0
X4.5917Y-4.4858
X4.5917Y-4.8858
X4.6358Y-5.1256
X4.6358Y-5.4256
X4.6917Y-4.4858
X4.6917Y-4.8858
X4.7913Y-5.5906
X4.8563Y-5.7559
X4.8563Y-6.0559
X4.8776Y-1.0307
X4.8776Y-1.3307
X4.9425Y-1.4961
X5.0421Y-2.2008
X5.0421Y-2.6008
X5.098Y-1.661
X5.098Y-1.961
X5.1421Y-2.2008
X5.1421Y-2.6008
X5.1608Y-5.0866
X5.1608Y-5.3866
X5.2421Y-2.2008
X5.2421Y-2.6008
X5.2608Y-5.0866
X5.2608Y-5.3866
X5.298Y-1.661
X5.298Y-1.961
X5.3421Y-2.2008
X5.3421Y-2.6008
X5.4425Y-1.4961
X5.5935Y-5.5906
X5.6939Y-4.4858
X5.6939Y-4.8858
X5.738Y-5.1256
X5.738Y-5.4256
X5.7722Y-1.7
X5.7722Y-2.0
X5.7939Y-4.4858
X5.7939Y-4.8858
X5.8722Y-1.7
X5.8722Y-2.0
X5.8939Y-4.4858
X5.8939Y-4.8858
X5.938Y-5.1256
X5.938Y-5.4256
X5.9939Y-4.4858
X5.9939Y-4.8858
X6.0935Y-5.5906
X6.1585Y-5.7559
X6.1585Y-6.0559
X6.1768Y-1.0307
X6.1768Y-1.3307
X6.2417Y-1.4961
X6.3413Y-2.2008
X6.3413Y-2.6008
X6.3972Y-1.661
X6.3972Y-1.961
X6.4413Y-2.2008
X6.4413Y-2.6008
X6.463Y-5.0866
X6.463Y-5.3866
X6.5413Y-2.2008
X6.5413Y-2.6008
X6.563Y-5.0866
X6.563Y-5.3866
X6.5972Y-1.661
X6.5972Y-1.961
X6.6413Y-2.2008
X6.6413Y-2.6008
X6.7417Y-1.4961
X6.8898Y-5.5906
X6.9902Y-4.4858
X6.9902Y-4.8858
X7.0343Y-5.1256
X7.0343Y-5.4256
X7.0715Y-1.7
X7.0715Y-2.0
X7.0902Y-4.4858
X7.0902Y-4.8858
X7.1715Y-1.7
X7.1715Y-2.0
X7.1902Y-4.4858
X7.1902Y-4.8858
X7.2343Y-5.1256
X7.2343Y-5.4256
X7.2902Y-4.4858
X7.2902Y-4.8858
X7.3898Y-5.5906
X7.4547Y-5.7559
X7.4547Y-6.0559
X7.476Y-1.0307
X7.476Y-1.3307
X7.5409Y-1.4961
X7.6406Y-2.2008
X7.6406Y-2.6008
X7.6965Y-1.661
X7.6965Y-1.961
X7.7406Y-2.2008
X7.7406Y-2.6008
X7.7593Y-5.0866
X7.7593Y-5.3866
X7.8406Y-2.2008
X7.8406Y-2.6008
X7.8593Y-5.0866
X7.8593Y-5.3866
X7.8965Y-1.661
X7.8965Y-1.961
X7.9406Y-2.2008
X7.9406Y-2.6008
X8.0409Y-1.4961
T4
X4.3232Y-1.4961
X4.3898Y-3.8478
X4.3898Y-3.9478
X4.5669Y-3.8478
X4.5669Y-3.9478
X4.7232Y-1.4961
X4.7441Y-3.8478
X4.7441Y-3.9478
X4.9213Y-3.8478
X4.9213Y-3.9478
X5.0106Y-5.5906
X5.0984Y-3.8478
X5.0984Y-3.9478
X5.2756Y-3.8478
X5.2756Y-3.9478
X5.4106Y-5.5906
X5.6224Y-1.4961
X6.0224Y-1.4961
X6.3128Y-5.5906
X6.7128Y-5.5906
X6.9217Y-1.4961
X7.3217Y-1.4961
X7.6091Y-5.5906
X8.0091Y-5.5906
T5
X6.0567Y-3.3508
X6.0567Y-4.0508
X6.1567Y-3.3508
X6.1567Y-4.0508
X6.2567Y-3.3508
X6.2567Y-4.0508
X6.3567Y-3.3508
X6.3567Y-4.0508
X6.4567Y-3.3508
X6.4567Y-4.0508
X6.5567Y-3.3508
X6.5567Y-4.0508
X6.6567Y-3.3508
X6.6567Y-4.0508
X6.7567Y-3.3508
X6.7567Y-4.0508
X6.8567Y-3.3508
X6.8567Y-4.0508
X6.9567Y-3.3508
X6.9567Y-4.0508
X7.0567Y-3.3508
X7.0567Y-4.0508
X7.1567Y-3.3508
X7.1567Y-4.0508
X7.2567Y-3.3508
X7.2567Y-4.0508
X7.3567Y-3.3508
X7.3567Y-4.0508
X7.4567Y-3.3508
X7.4567Y-4.0508
X7.5567Y-3.3508
X7.5567Y-4.0508
X7.6567Y-3.3508
X7.6567Y-4.0508
X7.7567Y-3.3508
X7.7567Y-4.0508
X7.8567Y-3.3508
X7.8567Y-4.0508
X7.9567Y-3.3508
X7.9567Y-4.0508
T6
X4.4232Y-5.9055
X4.4287Y-1.1811
X4.6201Y-5.9055
X4.6256Y-1.1811
X5.1083Y-5.9055
X5.1138Y-1.1811
X5.3051Y-5.9055
X5.3106Y-1.1811
X5.7254Y-5.9055
X5.728Y-1.1811
X5.9222Y-5.9055
X5.9248Y-1.1811
X6.4104Y-5.9055
X6.413Y-1.1811
X6.6073Y-5.9055
X6.6098Y-1.1811
X7.0217Y-5.9055
X7.0272Y-1.1811
X7.2185Y-5.9055
X7.224Y-1.1811
X7.7067Y-5.9055
X7.7122Y-1.1811
X7.9035Y-5.9055
X7.9091Y-1.1811
M30
