M48
; DRILL file {KiCad 8.0.1} date 2025-02-20T00:44:51-0800
; FORMAT={-:-/ absolute / inch / decimal}
; #@! TF.CreationDate,2025-02-20T00:44:51-08:00
; #@! TF.GenerationSoftware,Kicad,Pcbnew,8.0.1
; #@! TF.FileFunction,Plated,1,2,PTH
FMAT,2
INCH
; #@! TA.AperFunction,Plated,PTH,ViaDrill
T1C0.0118
; #@! TA.AperFunction,Plated,PTH,ComponentDrill
T2C0.0394
; #@! TA.AperFunction,Plated,PTH,ComponentDrill
T3C0.0433
%
G90
G05
T1
X3.8272Y-4.1339
X3.8272Y-4.2256
X3.8583Y-3.8189
X4.0846Y-4.0846
X4.2126Y-3.8976
X4.4005Y-3.6706
X4.5596Y-4.1102
X5.0407Y-4.2256
X5.0787Y-3.7992
X5.2854Y-4.0846
X5.6004Y-3.8484
X5.6028Y-3.6819
X5.7382Y-4.1732
X5.8772Y-4.7823
X6.1909Y-3.75
X6.4173Y-5.1772
X6.4764Y-3.7697
X6.7248Y-3.6827
X6.8209Y-4.1437
X7.5295Y-4.9803
X7.6378Y-3.8386
X7.9134Y-4.1929
X7.9445Y-3.6819
T2
X6.0185Y-4.3547
X6.0185Y-5.0547
X6.1185Y-4.3547
X6.1185Y-5.0547
X6.2185Y-4.3547
X6.2185Y-5.0547
X6.3185Y-4.3547
X6.3185Y-5.0547
X6.4185Y-4.3547
X6.4185Y-5.0547
X6.5185Y-4.3547
X6.5185Y-5.0547
X6.6185Y-4.3547
X6.6185Y-5.0547
X6.7185Y-4.3547
X6.7185Y-5.0547
X6.8185Y-4.3547
X6.8185Y-5.0547
X6.9185Y-4.3547
X6.9185Y-5.0547
X7.0185Y-4.3547
X7.0185Y-5.0547
X7.1185Y-4.3547
X7.1185Y-5.0547
X7.2185Y-4.3547
X7.2185Y-5.0547
X7.3185Y-4.3547
X7.3185Y-5.0547
X7.4185Y-4.3547
X7.4185Y-5.0547
X7.5185Y-4.3547
X7.5185Y-5.0547
X7.6185Y-4.3547
X7.6185Y-5.0547
X7.7185Y-4.3547
X7.7185Y-5.0547
X7.8185Y-4.3547
X7.8185Y-5.0547
X7.9185Y-4.3547
X7.9185Y-5.0547
T3
X3.6698Y-2.5281
X3.7114Y-5.3681
X3.8666Y-2.5281
X3.9083Y-5.3681
X4.3194Y-2.5281
X4.361Y-5.3681
X4.5162Y-2.5281
X4.5579Y-5.3681
X4.872Y-2.5394
X4.925Y-5.3681
X5.0689Y-2.5394
X5.1219Y-5.3681
X5.5217Y-2.5394
X5.5746Y-5.3681
X5.7185Y-2.5394
X5.7715Y-5.3681
X5.9941Y-2.5402
X6.1909Y-2.5402
X6.6437Y-2.5402
X6.8406Y-2.5402
X7.2138Y-2.5394
X7.4106Y-2.5394
X7.8634Y-2.5394
X8.0602Y-2.5394
M30
