%TF.GenerationSoftware,KiCad,Pcbnew,8.0.1*%
%TF.CreationDate,2025-02-20T00:44:50-08:00*%
%TF.ProjectId,tty2040,74747932-3034-4302-9e6b-696361645f70,a*%
%TF.SameCoordinates,Original*%
%TF.FileFunction,Other,Comment*%
%FSLAX46Y46*%
G04 Gerber Fmt 4.6, Leading zero omitted, Abs format (unit mm)*
G04 Created by KiCad (PCBNEW 8.0.1) date 2025-02-20 00:44:50*
%MOMM*%
%LPD*%
G01*
G04 APERTURE LIST*
%ADD10C,0.050000*%
%ADD11C,0.150000*%
%ADD12C,0.300000*%
G04 APERTURE END LIST*
D10*
X201640494Y-118563586D02*
X201640494Y-118674686D01*
X201465908Y-118722300D02*
X201465908Y-118563586D01*
X201465908Y-118563586D02*
X201799208Y-118563586D01*
X201799208Y-118563586D02*
X201799208Y-118722300D01*
X201465908Y-118833400D02*
X201688108Y-119007986D01*
X201688108Y-118833400D02*
X201465908Y-119007986D01*
X201688108Y-119134957D02*
X201354808Y-119134957D01*
X201672237Y-119134957D02*
X201688108Y-119166700D01*
X201688108Y-119166700D02*
X201688108Y-119230185D01*
X201688108Y-119230185D02*
X201672237Y-119261928D01*
X201672237Y-119261928D02*
X201656365Y-119277800D01*
X201656365Y-119277800D02*
X201624622Y-119293671D01*
X201624622Y-119293671D02*
X201529394Y-119293671D01*
X201529394Y-119293671D02*
X201497651Y-119277800D01*
X201497651Y-119277800D02*
X201481780Y-119261928D01*
X201481780Y-119261928D02*
X201465908Y-119230185D01*
X201465908Y-119230185D02*
X201465908Y-119166700D01*
X201465908Y-119166700D02*
X201481780Y-119134957D01*
X201465908Y-119484128D02*
X201481780Y-119452385D01*
X201481780Y-119452385D02*
X201497651Y-119436514D01*
X201497651Y-119436514D02*
X201529394Y-119420642D01*
X201529394Y-119420642D02*
X201624622Y-119420642D01*
X201624622Y-119420642D02*
X201656365Y-119436514D01*
X201656365Y-119436514D02*
X201672237Y-119452385D01*
X201672237Y-119452385D02*
X201688108Y-119484128D01*
X201688108Y-119484128D02*
X201688108Y-119531742D01*
X201688108Y-119531742D02*
X201672237Y-119563485D01*
X201672237Y-119563485D02*
X201656365Y-119579357D01*
X201656365Y-119579357D02*
X201624622Y-119595228D01*
X201624622Y-119595228D02*
X201529394Y-119595228D01*
X201529394Y-119595228D02*
X201497651Y-119579357D01*
X201497651Y-119579357D02*
X201481780Y-119563485D01*
X201481780Y-119563485D02*
X201465908Y-119531742D01*
X201465908Y-119531742D02*
X201465908Y-119484128D01*
X201481780Y-119722199D02*
X201465908Y-119753942D01*
X201465908Y-119753942D02*
X201465908Y-119817428D01*
X201465908Y-119817428D02*
X201481780Y-119849171D01*
X201481780Y-119849171D02*
X201513522Y-119865042D01*
X201513522Y-119865042D02*
X201529394Y-119865042D01*
X201529394Y-119865042D02*
X201561137Y-119849171D01*
X201561137Y-119849171D02*
X201577008Y-119817428D01*
X201577008Y-119817428D02*
X201577008Y-119769814D01*
X201577008Y-119769814D02*
X201592880Y-119738071D01*
X201592880Y-119738071D02*
X201624622Y-119722199D01*
X201624622Y-119722199D02*
X201640494Y-119722199D01*
X201640494Y-119722199D02*
X201672237Y-119738071D01*
X201672237Y-119738071D02*
X201688108Y-119769814D01*
X201688108Y-119769814D02*
X201688108Y-119817428D01*
X201688108Y-119817428D02*
X201672237Y-119849171D01*
X201481780Y-120134856D02*
X201465908Y-120103113D01*
X201465908Y-120103113D02*
X201465908Y-120039628D01*
X201465908Y-120039628D02*
X201481780Y-120007885D01*
X201481780Y-120007885D02*
X201513522Y-119992013D01*
X201513522Y-119992013D02*
X201640494Y-119992013D01*
X201640494Y-119992013D02*
X201672237Y-120007885D01*
X201672237Y-120007885D02*
X201688108Y-120039628D01*
X201688108Y-120039628D02*
X201688108Y-120103113D01*
X201688108Y-120103113D02*
X201672237Y-120134856D01*
X201672237Y-120134856D02*
X201640494Y-120150728D01*
X201640494Y-120150728D02*
X201608751Y-120150728D01*
X201608751Y-120150728D02*
X201577008Y-119992013D01*
X201465908Y-120436414D02*
X201799208Y-120436414D01*
X201481780Y-120436414D02*
X201465908Y-120404671D01*
X201465908Y-120404671D02*
X201465908Y-120341185D01*
X201465908Y-120341185D02*
X201481780Y-120309442D01*
X201481780Y-120309442D02*
X201497651Y-120293571D01*
X201497651Y-120293571D02*
X201529394Y-120277699D01*
X201529394Y-120277699D02*
X201624622Y-120277699D01*
X201624622Y-120277699D02*
X201656365Y-120293571D01*
X201656365Y-120293571D02*
X201672237Y-120309442D01*
X201672237Y-120309442D02*
X201688108Y-120341185D01*
X201688108Y-120341185D02*
X201688108Y-120404671D01*
X201688108Y-120404671D02*
X201672237Y-120436414D01*
D11*
X156860180Y-113261904D02*
X157860180Y-113261904D01*
X157860180Y-113261904D02*
X157860180Y-113642856D01*
X157860180Y-113642856D02*
X157812561Y-113738094D01*
X157812561Y-113738094D02*
X157764942Y-113785713D01*
X157764942Y-113785713D02*
X157669704Y-113833332D01*
X157669704Y-113833332D02*
X157526847Y-113833332D01*
X157526847Y-113833332D02*
X157431609Y-113785713D01*
X157431609Y-113785713D02*
X157383990Y-113738094D01*
X157383990Y-113738094D02*
X157336371Y-113642856D01*
X157336371Y-113642856D02*
X157336371Y-113261904D01*
X156860180Y-114404761D02*
X156907800Y-114309523D01*
X156907800Y-114309523D02*
X156955419Y-114261904D01*
X156955419Y-114261904D02*
X157050657Y-114214285D01*
X157050657Y-114214285D02*
X157336371Y-114214285D01*
X157336371Y-114214285D02*
X157431609Y-114261904D01*
X157431609Y-114261904D02*
X157479228Y-114309523D01*
X157479228Y-114309523D02*
X157526847Y-114404761D01*
X157526847Y-114404761D02*
X157526847Y-114547618D01*
X157526847Y-114547618D02*
X157479228Y-114642856D01*
X157479228Y-114642856D02*
X157431609Y-114690475D01*
X157431609Y-114690475D02*
X157336371Y-114738094D01*
X157336371Y-114738094D02*
X157050657Y-114738094D01*
X157050657Y-114738094D02*
X156955419Y-114690475D01*
X156955419Y-114690475D02*
X156907800Y-114642856D01*
X156907800Y-114642856D02*
X156860180Y-114547618D01*
X156860180Y-114547618D02*
X156860180Y-114404761D01*
X156907800Y-115119047D02*
X156860180Y-115214285D01*
X156860180Y-115214285D02*
X156860180Y-115404761D01*
X156860180Y-115404761D02*
X156907800Y-115499999D01*
X156907800Y-115499999D02*
X157003038Y-115547618D01*
X157003038Y-115547618D02*
X157050657Y-115547618D01*
X157050657Y-115547618D02*
X157145895Y-115499999D01*
X157145895Y-115499999D02*
X157193514Y-115404761D01*
X157193514Y-115404761D02*
X157193514Y-115261904D01*
X157193514Y-115261904D02*
X157241133Y-115166666D01*
X157241133Y-115166666D02*
X157336371Y-115119047D01*
X157336371Y-115119047D02*
X157383990Y-115119047D01*
X157383990Y-115119047D02*
X157479228Y-115166666D01*
X157479228Y-115166666D02*
X157526847Y-115261904D01*
X157526847Y-115261904D02*
X157526847Y-115404761D01*
X157526847Y-115404761D02*
X157479228Y-115499999D01*
X156907800Y-115928571D02*
X156860180Y-116023809D01*
X156860180Y-116023809D02*
X156860180Y-116214285D01*
X156860180Y-116214285D02*
X156907800Y-116309523D01*
X156907800Y-116309523D02*
X157003038Y-116357142D01*
X157003038Y-116357142D02*
X157050657Y-116357142D01*
X157050657Y-116357142D02*
X157145895Y-116309523D01*
X157145895Y-116309523D02*
X157193514Y-116214285D01*
X157193514Y-116214285D02*
X157193514Y-116071428D01*
X157193514Y-116071428D02*
X157241133Y-115976190D01*
X157241133Y-115976190D02*
X157336371Y-115928571D01*
X157336371Y-115928571D02*
X157383990Y-115928571D01*
X157383990Y-115928571D02*
X157479228Y-115976190D01*
X157479228Y-115976190D02*
X157526847Y-116071428D01*
X157526847Y-116071428D02*
X157526847Y-116214285D01*
X157526847Y-116214285D02*
X157479228Y-116309523D01*
X156860180Y-116785714D02*
X157526847Y-116785714D01*
X157860180Y-116785714D02*
X157812561Y-116738095D01*
X157812561Y-116738095D02*
X157764942Y-116785714D01*
X157764942Y-116785714D02*
X157812561Y-116833333D01*
X157812561Y-116833333D02*
X157860180Y-116785714D01*
X157860180Y-116785714D02*
X157764942Y-116785714D01*
X156860180Y-117261904D02*
X157860180Y-117261904D01*
X157479228Y-117261904D02*
X157526847Y-117357142D01*
X157526847Y-117357142D02*
X157526847Y-117547618D01*
X157526847Y-117547618D02*
X157479228Y-117642856D01*
X157479228Y-117642856D02*
X157431609Y-117690475D01*
X157431609Y-117690475D02*
X157336371Y-117738094D01*
X157336371Y-117738094D02*
X157050657Y-117738094D01*
X157050657Y-117738094D02*
X156955419Y-117690475D01*
X156955419Y-117690475D02*
X156907800Y-117642856D01*
X156907800Y-117642856D02*
X156860180Y-117547618D01*
X156860180Y-117547618D02*
X156860180Y-117357142D01*
X156860180Y-117357142D02*
X156907800Y-117261904D01*
X156860180Y-118309523D02*
X156907800Y-118214285D01*
X156907800Y-118214285D02*
X157003038Y-118166666D01*
X157003038Y-118166666D02*
X157860180Y-118166666D01*
X156907800Y-119071428D02*
X156860180Y-118976190D01*
X156860180Y-118976190D02*
X156860180Y-118785714D01*
X156860180Y-118785714D02*
X156907800Y-118690476D01*
X156907800Y-118690476D02*
X157003038Y-118642857D01*
X157003038Y-118642857D02*
X157383990Y-118642857D01*
X157383990Y-118642857D02*
X157479228Y-118690476D01*
X157479228Y-118690476D02*
X157526847Y-118785714D01*
X157526847Y-118785714D02*
X157526847Y-118976190D01*
X157526847Y-118976190D02*
X157479228Y-119071428D01*
X157479228Y-119071428D02*
X157383990Y-119119047D01*
X157383990Y-119119047D02*
X157288752Y-119119047D01*
X157288752Y-119119047D02*
X157193514Y-118642857D01*
X157145895Y-120261905D02*
X157145895Y-120738095D01*
X156860180Y-120166667D02*
X157860180Y-120500000D01*
X157860180Y-120500000D02*
X156860180Y-120833333D01*
X157526847Y-121166667D02*
X156860180Y-121166667D01*
X157431609Y-121166667D02*
X157479228Y-121214286D01*
X157479228Y-121214286D02*
X157526847Y-121309524D01*
X157526847Y-121309524D02*
X157526847Y-121452381D01*
X157526847Y-121452381D02*
X157479228Y-121547619D01*
X157479228Y-121547619D02*
X157383990Y-121595238D01*
X157383990Y-121595238D02*
X156860180Y-121595238D01*
X157526847Y-121928572D02*
X157526847Y-122309524D01*
X157860180Y-122071429D02*
X157003038Y-122071429D01*
X157003038Y-122071429D02*
X156907800Y-122119048D01*
X156907800Y-122119048D02*
X156860180Y-122214286D01*
X156860180Y-122214286D02*
X156860180Y-122309524D01*
X156907800Y-123023810D02*
X156860180Y-122928572D01*
X156860180Y-122928572D02*
X156860180Y-122738096D01*
X156860180Y-122738096D02*
X156907800Y-122642858D01*
X156907800Y-122642858D02*
X157003038Y-122595239D01*
X157003038Y-122595239D02*
X157383990Y-122595239D01*
X157383990Y-122595239D02*
X157479228Y-122642858D01*
X157479228Y-122642858D02*
X157526847Y-122738096D01*
X157526847Y-122738096D02*
X157526847Y-122928572D01*
X157526847Y-122928572D02*
X157479228Y-123023810D01*
X157479228Y-123023810D02*
X157383990Y-123071429D01*
X157383990Y-123071429D02*
X157288752Y-123071429D01*
X157288752Y-123071429D02*
X157193514Y-122595239D01*
X157526847Y-123500001D02*
X156860180Y-123500001D01*
X157431609Y-123500001D02*
X157479228Y-123547620D01*
X157479228Y-123547620D02*
X157526847Y-123642858D01*
X157526847Y-123642858D02*
X157526847Y-123785715D01*
X157526847Y-123785715D02*
X157479228Y-123880953D01*
X157479228Y-123880953D02*
X157383990Y-123928572D01*
X157383990Y-123928572D02*
X156860180Y-123928572D01*
X157526847Y-124404763D02*
X156860180Y-124404763D01*
X157431609Y-124404763D02*
X157479228Y-124452382D01*
X157479228Y-124452382D02*
X157526847Y-124547620D01*
X157526847Y-124547620D02*
X157526847Y-124690477D01*
X157526847Y-124690477D02*
X157479228Y-124785715D01*
X157479228Y-124785715D02*
X157383990Y-124833334D01*
X157383990Y-124833334D02*
X156860180Y-124833334D01*
X156860180Y-125738096D02*
X157383990Y-125738096D01*
X157383990Y-125738096D02*
X157479228Y-125690477D01*
X157479228Y-125690477D02*
X157526847Y-125595239D01*
X157526847Y-125595239D02*
X157526847Y-125404763D01*
X157526847Y-125404763D02*
X157479228Y-125309525D01*
X156907800Y-125738096D02*
X156860180Y-125642858D01*
X156860180Y-125642858D02*
X156860180Y-125404763D01*
X156860180Y-125404763D02*
X156907800Y-125309525D01*
X156907800Y-125309525D02*
X157003038Y-125261906D01*
X157003038Y-125261906D02*
X157098276Y-125261906D01*
X157098276Y-125261906D02*
X157193514Y-125309525D01*
X157193514Y-125309525D02*
X157241133Y-125404763D01*
X157241133Y-125404763D02*
X157241133Y-125642858D01*
X157241133Y-125642858D02*
X157288752Y-125738096D01*
D10*
X200862651Y-118904821D02*
X200846780Y-118888949D01*
X200846780Y-118888949D02*
X200830908Y-118841335D01*
X200830908Y-118841335D02*
X200830908Y-118809592D01*
X200830908Y-118809592D02*
X200846780Y-118761978D01*
X200846780Y-118761978D02*
X200878522Y-118730235D01*
X200878522Y-118730235D02*
X200910265Y-118714364D01*
X200910265Y-118714364D02*
X200973751Y-118698492D01*
X200973751Y-118698492D02*
X201021365Y-118698492D01*
X201021365Y-118698492D02*
X201084851Y-118714364D01*
X201084851Y-118714364D02*
X201116594Y-118730235D01*
X201116594Y-118730235D02*
X201148337Y-118761978D01*
X201148337Y-118761978D02*
X201164208Y-118809592D01*
X201164208Y-118809592D02*
X201164208Y-118841335D01*
X201164208Y-118841335D02*
X201148337Y-118888949D01*
X201148337Y-118888949D02*
X201132465Y-118904821D01*
X200830908Y-119095278D02*
X200846780Y-119063535D01*
X200846780Y-119063535D02*
X200862651Y-119047664D01*
X200862651Y-119047664D02*
X200894394Y-119031792D01*
X200894394Y-119031792D02*
X200989622Y-119031792D01*
X200989622Y-119031792D02*
X201021365Y-119047664D01*
X201021365Y-119047664D02*
X201037237Y-119063535D01*
X201037237Y-119063535D02*
X201053108Y-119095278D01*
X201053108Y-119095278D02*
X201053108Y-119142892D01*
X201053108Y-119142892D02*
X201037237Y-119174635D01*
X201037237Y-119174635D02*
X201021365Y-119190507D01*
X201021365Y-119190507D02*
X200989622Y-119206378D01*
X200989622Y-119206378D02*
X200894394Y-119206378D01*
X200894394Y-119206378D02*
X200862651Y-119190507D01*
X200862651Y-119190507D02*
X200846780Y-119174635D01*
X200846780Y-119174635D02*
X200830908Y-119142892D01*
X200830908Y-119142892D02*
X200830908Y-119095278D01*
X201053108Y-119349221D02*
X200719808Y-119349221D01*
X201037237Y-119349221D02*
X201053108Y-119380964D01*
X201053108Y-119380964D02*
X201053108Y-119444449D01*
X201053108Y-119444449D02*
X201037237Y-119476192D01*
X201037237Y-119476192D02*
X201021365Y-119492064D01*
X201021365Y-119492064D02*
X200989622Y-119507935D01*
X200989622Y-119507935D02*
X200894394Y-119507935D01*
X200894394Y-119507935D02*
X200862651Y-119492064D01*
X200862651Y-119492064D02*
X200846780Y-119476192D01*
X200846780Y-119476192D02*
X200830908Y-119444449D01*
X200830908Y-119444449D02*
X200830908Y-119380964D01*
X200830908Y-119380964D02*
X200846780Y-119349221D01*
X201053108Y-119650778D02*
X200719808Y-119650778D01*
X201037237Y-119650778D02*
X201053108Y-119682521D01*
X201053108Y-119682521D02*
X201053108Y-119746006D01*
X201053108Y-119746006D02*
X201037237Y-119777749D01*
X201037237Y-119777749D02*
X201021365Y-119793621D01*
X201021365Y-119793621D02*
X200989622Y-119809492D01*
X200989622Y-119809492D02*
X200894394Y-119809492D01*
X200894394Y-119809492D02*
X200862651Y-119793621D01*
X200862651Y-119793621D02*
X200846780Y-119777749D01*
X200846780Y-119777749D02*
X200830908Y-119746006D01*
X200830908Y-119746006D02*
X200830908Y-119682521D01*
X200830908Y-119682521D02*
X200846780Y-119650778D01*
X200846780Y-120079306D02*
X200830908Y-120047563D01*
X200830908Y-120047563D02*
X200830908Y-119984078D01*
X200830908Y-119984078D02*
X200846780Y-119952335D01*
X200846780Y-119952335D02*
X200878522Y-119936463D01*
X200878522Y-119936463D02*
X201005494Y-119936463D01*
X201005494Y-119936463D02*
X201037237Y-119952335D01*
X201037237Y-119952335D02*
X201053108Y-119984078D01*
X201053108Y-119984078D02*
X201053108Y-120047563D01*
X201053108Y-120047563D02*
X201037237Y-120079306D01*
X201037237Y-120079306D02*
X201005494Y-120095178D01*
X201005494Y-120095178D02*
X200973751Y-120095178D01*
X200973751Y-120095178D02*
X200942008Y-119936463D01*
X200830908Y-120238021D02*
X201053108Y-120238021D01*
X200989622Y-120238021D02*
X201021365Y-120253892D01*
X201021365Y-120253892D02*
X201037237Y-120269764D01*
X201037237Y-120269764D02*
X201053108Y-120301506D01*
X201053108Y-120301506D02*
X201053108Y-120333249D01*
D11*
X154955180Y-116285714D02*
X155955180Y-116285714D01*
X154955180Y-116857142D02*
X155526609Y-116428571D01*
X155955180Y-116857142D02*
X155383752Y-116285714D01*
X155002800Y-117666666D02*
X154955180Y-117571428D01*
X154955180Y-117571428D02*
X154955180Y-117380952D01*
X154955180Y-117380952D02*
X155002800Y-117285714D01*
X155002800Y-117285714D02*
X155098038Y-117238095D01*
X155098038Y-117238095D02*
X155478990Y-117238095D01*
X155478990Y-117238095D02*
X155574228Y-117285714D01*
X155574228Y-117285714D02*
X155621847Y-117380952D01*
X155621847Y-117380952D02*
X155621847Y-117571428D01*
X155621847Y-117571428D02*
X155574228Y-117666666D01*
X155574228Y-117666666D02*
X155478990Y-117714285D01*
X155478990Y-117714285D02*
X155383752Y-117714285D01*
X155383752Y-117714285D02*
X155288514Y-117238095D01*
X155002800Y-118523809D02*
X154955180Y-118428571D01*
X154955180Y-118428571D02*
X154955180Y-118238095D01*
X154955180Y-118238095D02*
X155002800Y-118142857D01*
X155002800Y-118142857D02*
X155098038Y-118095238D01*
X155098038Y-118095238D02*
X155478990Y-118095238D01*
X155478990Y-118095238D02*
X155574228Y-118142857D01*
X155574228Y-118142857D02*
X155621847Y-118238095D01*
X155621847Y-118238095D02*
X155621847Y-118428571D01*
X155621847Y-118428571D02*
X155574228Y-118523809D01*
X155574228Y-118523809D02*
X155478990Y-118571428D01*
X155478990Y-118571428D02*
X155383752Y-118571428D01*
X155383752Y-118571428D02*
X155288514Y-118095238D01*
X155621847Y-119000000D02*
X154621847Y-119000000D01*
X155574228Y-119000000D02*
X155621847Y-119095238D01*
X155621847Y-119095238D02*
X155621847Y-119285714D01*
X155621847Y-119285714D02*
X155574228Y-119380952D01*
X155574228Y-119380952D02*
X155526609Y-119428571D01*
X155526609Y-119428571D02*
X155431371Y-119476190D01*
X155431371Y-119476190D02*
X155145657Y-119476190D01*
X155145657Y-119476190D02*
X155050419Y-119428571D01*
X155050419Y-119428571D02*
X155002800Y-119380952D01*
X155002800Y-119380952D02*
X154955180Y-119285714D01*
X154955180Y-119285714D02*
X154955180Y-119095238D01*
X154955180Y-119095238D02*
X155002800Y-119000000D01*
X155955180Y-120857143D02*
X155955180Y-121047619D01*
X155955180Y-121047619D02*
X155907561Y-121142857D01*
X155907561Y-121142857D02*
X155812323Y-121238095D01*
X155812323Y-121238095D02*
X155621847Y-121285714D01*
X155621847Y-121285714D02*
X155288514Y-121285714D01*
X155288514Y-121285714D02*
X155098038Y-121238095D01*
X155098038Y-121238095D02*
X155002800Y-121142857D01*
X155002800Y-121142857D02*
X154955180Y-121047619D01*
X154955180Y-121047619D02*
X154955180Y-120857143D01*
X154955180Y-120857143D02*
X155002800Y-120761905D01*
X155002800Y-120761905D02*
X155098038Y-120666667D01*
X155098038Y-120666667D02*
X155288514Y-120619048D01*
X155288514Y-120619048D02*
X155621847Y-120619048D01*
X155621847Y-120619048D02*
X155812323Y-120666667D01*
X155812323Y-120666667D02*
X155907561Y-120761905D01*
X155907561Y-120761905D02*
X155955180Y-120857143D01*
X155621847Y-122142857D02*
X154955180Y-122142857D01*
X155621847Y-121714286D02*
X155098038Y-121714286D01*
X155098038Y-121714286D02*
X155002800Y-121761905D01*
X155002800Y-121761905D02*
X154955180Y-121857143D01*
X154955180Y-121857143D02*
X154955180Y-122000000D01*
X154955180Y-122000000D02*
X155002800Y-122095238D01*
X155002800Y-122095238D02*
X155050419Y-122142857D01*
X155621847Y-122476191D02*
X155621847Y-122857143D01*
X155955180Y-122619048D02*
X155098038Y-122619048D01*
X155098038Y-122619048D02*
X155002800Y-122666667D01*
X155002800Y-122666667D02*
X154955180Y-122761905D01*
X154955180Y-122761905D02*
X154955180Y-122857143D01*
X216280180Y-115761904D02*
X215470657Y-115761904D01*
X215470657Y-115761904D02*
X215375419Y-115809523D01*
X215375419Y-115809523D02*
X215327800Y-115857142D01*
X215327800Y-115857142D02*
X215280180Y-115952380D01*
X215280180Y-115952380D02*
X215280180Y-116142856D01*
X215280180Y-116142856D02*
X215327800Y-116238094D01*
X215327800Y-116238094D02*
X215375419Y-116285713D01*
X215375419Y-116285713D02*
X215470657Y-116333332D01*
X215470657Y-116333332D02*
X216280180Y-116333332D01*
X215327800Y-116761904D02*
X215280180Y-116904761D01*
X215280180Y-116904761D02*
X215280180Y-117142856D01*
X215280180Y-117142856D02*
X215327800Y-117238094D01*
X215327800Y-117238094D02*
X215375419Y-117285713D01*
X215375419Y-117285713D02*
X215470657Y-117333332D01*
X215470657Y-117333332D02*
X215565895Y-117333332D01*
X215565895Y-117333332D02*
X215661133Y-117285713D01*
X215661133Y-117285713D02*
X215708752Y-117238094D01*
X215708752Y-117238094D02*
X215756371Y-117142856D01*
X215756371Y-117142856D02*
X215803990Y-116952380D01*
X215803990Y-116952380D02*
X215851609Y-116857142D01*
X215851609Y-116857142D02*
X215899228Y-116809523D01*
X215899228Y-116809523D02*
X215994466Y-116761904D01*
X215994466Y-116761904D02*
X216089704Y-116761904D01*
X216089704Y-116761904D02*
X216184942Y-116809523D01*
X216184942Y-116809523D02*
X216232561Y-116857142D01*
X216232561Y-116857142D02*
X216280180Y-116952380D01*
X216280180Y-116952380D02*
X216280180Y-117190475D01*
X216280180Y-117190475D02*
X216232561Y-117333332D01*
X215803990Y-118095237D02*
X215756371Y-118238094D01*
X215756371Y-118238094D02*
X215708752Y-118285713D01*
X215708752Y-118285713D02*
X215613514Y-118333332D01*
X215613514Y-118333332D02*
X215470657Y-118333332D01*
X215470657Y-118333332D02*
X215375419Y-118285713D01*
X215375419Y-118285713D02*
X215327800Y-118238094D01*
X215327800Y-118238094D02*
X215280180Y-118142856D01*
X215280180Y-118142856D02*
X215280180Y-117761904D01*
X215280180Y-117761904D02*
X216280180Y-117761904D01*
X216280180Y-117761904D02*
X216280180Y-118095237D01*
X216280180Y-118095237D02*
X216232561Y-118190475D01*
X216232561Y-118190475D02*
X216184942Y-118238094D01*
X216184942Y-118238094D02*
X216089704Y-118285713D01*
X216089704Y-118285713D02*
X215994466Y-118285713D01*
X215994466Y-118285713D02*
X215899228Y-118238094D01*
X215899228Y-118238094D02*
X215851609Y-118190475D01*
X215851609Y-118190475D02*
X215803990Y-118095237D01*
X215803990Y-118095237D02*
X215803990Y-117761904D01*
X215375419Y-120095237D02*
X215327800Y-120047618D01*
X215327800Y-120047618D02*
X215280180Y-119904761D01*
X215280180Y-119904761D02*
X215280180Y-119809523D01*
X215280180Y-119809523D02*
X215327800Y-119666666D01*
X215327800Y-119666666D02*
X215423038Y-119571428D01*
X215423038Y-119571428D02*
X215518276Y-119523809D01*
X215518276Y-119523809D02*
X215708752Y-119476190D01*
X215708752Y-119476190D02*
X215851609Y-119476190D01*
X215851609Y-119476190D02*
X216042085Y-119523809D01*
X216042085Y-119523809D02*
X216137323Y-119571428D01*
X216137323Y-119571428D02*
X216232561Y-119666666D01*
X216232561Y-119666666D02*
X216280180Y-119809523D01*
X216280180Y-119809523D02*
X216280180Y-119904761D01*
X216280180Y-119904761D02*
X216232561Y-120047618D01*
X216232561Y-120047618D02*
X216184942Y-120095237D01*
X215280180Y-120952380D02*
X215803990Y-120952380D01*
X215803990Y-120952380D02*
X215899228Y-120904761D01*
X215899228Y-120904761D02*
X215946847Y-120809523D01*
X215946847Y-120809523D02*
X215946847Y-120619047D01*
X215946847Y-120619047D02*
X215899228Y-120523809D01*
X215327800Y-120952380D02*
X215280180Y-120857142D01*
X215280180Y-120857142D02*
X215280180Y-120619047D01*
X215280180Y-120619047D02*
X215327800Y-120523809D01*
X215327800Y-120523809D02*
X215423038Y-120476190D01*
X215423038Y-120476190D02*
X215518276Y-120476190D01*
X215518276Y-120476190D02*
X215613514Y-120523809D01*
X215613514Y-120523809D02*
X215661133Y-120619047D01*
X215661133Y-120619047D02*
X215661133Y-120857142D01*
X215661133Y-120857142D02*
X215708752Y-120952380D01*
X215280180Y-121428571D02*
X216280180Y-121428571D01*
X215899228Y-121428571D02*
X215946847Y-121523809D01*
X215946847Y-121523809D02*
X215946847Y-121714285D01*
X215946847Y-121714285D02*
X215899228Y-121809523D01*
X215899228Y-121809523D02*
X215851609Y-121857142D01*
X215851609Y-121857142D02*
X215756371Y-121904761D01*
X215756371Y-121904761D02*
X215470657Y-121904761D01*
X215470657Y-121904761D02*
X215375419Y-121857142D01*
X215375419Y-121857142D02*
X215327800Y-121809523D01*
X215327800Y-121809523D02*
X215280180Y-121714285D01*
X215280180Y-121714285D02*
X215280180Y-121523809D01*
X215280180Y-121523809D02*
X215327800Y-121428571D01*
X215280180Y-122476190D02*
X215327800Y-122380952D01*
X215327800Y-122380952D02*
X215423038Y-122333333D01*
X215423038Y-122333333D02*
X216280180Y-122333333D01*
X215327800Y-123238095D02*
X215280180Y-123142857D01*
X215280180Y-123142857D02*
X215280180Y-122952381D01*
X215280180Y-122952381D02*
X215327800Y-122857143D01*
X215327800Y-122857143D02*
X215423038Y-122809524D01*
X215423038Y-122809524D02*
X215803990Y-122809524D01*
X215803990Y-122809524D02*
X215899228Y-122857143D01*
X215899228Y-122857143D02*
X215946847Y-122952381D01*
X215946847Y-122952381D02*
X215946847Y-123142857D01*
X215946847Y-123142857D02*
X215899228Y-123238095D01*
X215899228Y-123238095D02*
X215803990Y-123285714D01*
X215803990Y-123285714D02*
X215708752Y-123285714D01*
X215708752Y-123285714D02*
X215613514Y-122809524D01*
D10*
X188043972Y-116977005D02*
X188155072Y-116977005D01*
X188202686Y-117151591D02*
X188043972Y-117151591D01*
X188043972Y-117151591D02*
X188043972Y-116818291D01*
X188043972Y-116818291D02*
X188202686Y-116818291D01*
X188313786Y-117151591D02*
X188488372Y-116929391D01*
X188313786Y-116929391D02*
X188488372Y-117151591D01*
X188615343Y-116929391D02*
X188615343Y-117262691D01*
X188615343Y-116945262D02*
X188647086Y-116929391D01*
X188647086Y-116929391D02*
X188710571Y-116929391D01*
X188710571Y-116929391D02*
X188742314Y-116945262D01*
X188742314Y-116945262D02*
X188758186Y-116961134D01*
X188758186Y-116961134D02*
X188774057Y-116992877D01*
X188774057Y-116992877D02*
X188774057Y-117088105D01*
X188774057Y-117088105D02*
X188758186Y-117119848D01*
X188758186Y-117119848D02*
X188742314Y-117135720D01*
X188742314Y-117135720D02*
X188710571Y-117151591D01*
X188710571Y-117151591D02*
X188647086Y-117151591D01*
X188647086Y-117151591D02*
X188615343Y-117135720D01*
X188964514Y-117151591D02*
X188932771Y-117135720D01*
X188932771Y-117135720D02*
X188916900Y-117119848D01*
X188916900Y-117119848D02*
X188901028Y-117088105D01*
X188901028Y-117088105D02*
X188901028Y-116992877D01*
X188901028Y-116992877D02*
X188916900Y-116961134D01*
X188916900Y-116961134D02*
X188932771Y-116945262D01*
X188932771Y-116945262D02*
X188964514Y-116929391D01*
X188964514Y-116929391D02*
X189012128Y-116929391D01*
X189012128Y-116929391D02*
X189043871Y-116945262D01*
X189043871Y-116945262D02*
X189059743Y-116961134D01*
X189059743Y-116961134D02*
X189075614Y-116992877D01*
X189075614Y-116992877D02*
X189075614Y-117088105D01*
X189075614Y-117088105D02*
X189059743Y-117119848D01*
X189059743Y-117119848D02*
X189043871Y-117135720D01*
X189043871Y-117135720D02*
X189012128Y-117151591D01*
X189012128Y-117151591D02*
X188964514Y-117151591D01*
X189202585Y-117135720D02*
X189234328Y-117151591D01*
X189234328Y-117151591D02*
X189297814Y-117151591D01*
X189297814Y-117151591D02*
X189329557Y-117135720D01*
X189329557Y-117135720D02*
X189345428Y-117103977D01*
X189345428Y-117103977D02*
X189345428Y-117088105D01*
X189345428Y-117088105D02*
X189329557Y-117056362D01*
X189329557Y-117056362D02*
X189297814Y-117040491D01*
X189297814Y-117040491D02*
X189250200Y-117040491D01*
X189250200Y-117040491D02*
X189218457Y-117024620D01*
X189218457Y-117024620D02*
X189202585Y-116992877D01*
X189202585Y-116992877D02*
X189202585Y-116977005D01*
X189202585Y-116977005D02*
X189218457Y-116945262D01*
X189218457Y-116945262D02*
X189250200Y-116929391D01*
X189250200Y-116929391D02*
X189297814Y-116929391D01*
X189297814Y-116929391D02*
X189329557Y-116945262D01*
X189615242Y-117135720D02*
X189583499Y-117151591D01*
X189583499Y-117151591D02*
X189520014Y-117151591D01*
X189520014Y-117151591D02*
X189488271Y-117135720D01*
X189488271Y-117135720D02*
X189472399Y-117103977D01*
X189472399Y-117103977D02*
X189472399Y-116977005D01*
X189472399Y-116977005D02*
X189488271Y-116945262D01*
X189488271Y-116945262D02*
X189520014Y-116929391D01*
X189520014Y-116929391D02*
X189583499Y-116929391D01*
X189583499Y-116929391D02*
X189615242Y-116945262D01*
X189615242Y-116945262D02*
X189631114Y-116977005D01*
X189631114Y-116977005D02*
X189631114Y-117008748D01*
X189631114Y-117008748D02*
X189472399Y-117040491D01*
X189916800Y-117151591D02*
X189916800Y-116818291D01*
X189916800Y-117135720D02*
X189885057Y-117151591D01*
X189885057Y-117151591D02*
X189821571Y-117151591D01*
X189821571Y-117151591D02*
X189789828Y-117135720D01*
X189789828Y-117135720D02*
X189773957Y-117119848D01*
X189773957Y-117119848D02*
X189758085Y-117088105D01*
X189758085Y-117088105D02*
X189758085Y-116992877D01*
X189758085Y-116992877D02*
X189773957Y-116961134D01*
X189773957Y-116961134D02*
X189789828Y-116945262D01*
X189789828Y-116945262D02*
X189821571Y-116929391D01*
X189821571Y-116929391D02*
X189885057Y-116929391D01*
X189885057Y-116929391D02*
X189916800Y-116945262D01*
X190519914Y-117119848D02*
X190504042Y-117135720D01*
X190504042Y-117135720D02*
X190456428Y-117151591D01*
X190456428Y-117151591D02*
X190424685Y-117151591D01*
X190424685Y-117151591D02*
X190377071Y-117135720D01*
X190377071Y-117135720D02*
X190345328Y-117103977D01*
X190345328Y-117103977D02*
X190329457Y-117072234D01*
X190329457Y-117072234D02*
X190313585Y-117008748D01*
X190313585Y-117008748D02*
X190313585Y-116961134D01*
X190313585Y-116961134D02*
X190329457Y-116897648D01*
X190329457Y-116897648D02*
X190345328Y-116865905D01*
X190345328Y-116865905D02*
X190377071Y-116834162D01*
X190377071Y-116834162D02*
X190424685Y-116818291D01*
X190424685Y-116818291D02*
X190456428Y-116818291D01*
X190456428Y-116818291D02*
X190504042Y-116834162D01*
X190504042Y-116834162D02*
X190519914Y-116850034D01*
X190710371Y-117151591D02*
X190678628Y-117135720D01*
X190678628Y-117135720D02*
X190662757Y-117119848D01*
X190662757Y-117119848D02*
X190646885Y-117088105D01*
X190646885Y-117088105D02*
X190646885Y-116992877D01*
X190646885Y-116992877D02*
X190662757Y-116961134D01*
X190662757Y-116961134D02*
X190678628Y-116945262D01*
X190678628Y-116945262D02*
X190710371Y-116929391D01*
X190710371Y-116929391D02*
X190757985Y-116929391D01*
X190757985Y-116929391D02*
X190789728Y-116945262D01*
X190789728Y-116945262D02*
X190805600Y-116961134D01*
X190805600Y-116961134D02*
X190821471Y-116992877D01*
X190821471Y-116992877D02*
X190821471Y-117088105D01*
X190821471Y-117088105D02*
X190805600Y-117119848D01*
X190805600Y-117119848D02*
X190789728Y-117135720D01*
X190789728Y-117135720D02*
X190757985Y-117151591D01*
X190757985Y-117151591D02*
X190710371Y-117151591D01*
X190964314Y-116929391D02*
X190964314Y-117262691D01*
X190964314Y-116945262D02*
X190996057Y-116929391D01*
X190996057Y-116929391D02*
X191059542Y-116929391D01*
X191059542Y-116929391D02*
X191091285Y-116945262D01*
X191091285Y-116945262D02*
X191107157Y-116961134D01*
X191107157Y-116961134D02*
X191123028Y-116992877D01*
X191123028Y-116992877D02*
X191123028Y-117088105D01*
X191123028Y-117088105D02*
X191107157Y-117119848D01*
X191107157Y-117119848D02*
X191091285Y-117135720D01*
X191091285Y-117135720D02*
X191059542Y-117151591D01*
X191059542Y-117151591D02*
X190996057Y-117151591D01*
X190996057Y-117151591D02*
X190964314Y-117135720D01*
X191265871Y-116929391D02*
X191265871Y-117262691D01*
X191265871Y-116945262D02*
X191297614Y-116929391D01*
X191297614Y-116929391D02*
X191361099Y-116929391D01*
X191361099Y-116929391D02*
X191392842Y-116945262D01*
X191392842Y-116945262D02*
X191408714Y-116961134D01*
X191408714Y-116961134D02*
X191424585Y-116992877D01*
X191424585Y-116992877D02*
X191424585Y-117088105D01*
X191424585Y-117088105D02*
X191408714Y-117119848D01*
X191408714Y-117119848D02*
X191392842Y-117135720D01*
X191392842Y-117135720D02*
X191361099Y-117151591D01*
X191361099Y-117151591D02*
X191297614Y-117151591D01*
X191297614Y-117151591D02*
X191265871Y-117135720D01*
X191694399Y-117135720D02*
X191662656Y-117151591D01*
X191662656Y-117151591D02*
X191599171Y-117151591D01*
X191599171Y-117151591D02*
X191567428Y-117135720D01*
X191567428Y-117135720D02*
X191551556Y-117103977D01*
X191551556Y-117103977D02*
X191551556Y-116977005D01*
X191551556Y-116977005D02*
X191567428Y-116945262D01*
X191567428Y-116945262D02*
X191599171Y-116929391D01*
X191599171Y-116929391D02*
X191662656Y-116929391D01*
X191662656Y-116929391D02*
X191694399Y-116945262D01*
X191694399Y-116945262D02*
X191710271Y-116977005D01*
X191710271Y-116977005D02*
X191710271Y-117008748D01*
X191710271Y-117008748D02*
X191551556Y-117040491D01*
X191853114Y-117151591D02*
X191853114Y-116929391D01*
X191853114Y-116992877D02*
X191868985Y-116961134D01*
X191868985Y-116961134D02*
X191884857Y-116945262D01*
X191884857Y-116945262D02*
X191916599Y-116929391D01*
X191916599Y-116929391D02*
X191948342Y-116929391D01*
X192313386Y-117151591D02*
X192313386Y-116818291D01*
X192503843Y-117151591D02*
X192361000Y-116961134D01*
X192503843Y-116818291D02*
X192313386Y-117008748D01*
X192773657Y-117135720D02*
X192741914Y-117151591D01*
X192741914Y-117151591D02*
X192678429Y-117151591D01*
X192678429Y-117151591D02*
X192646686Y-117135720D01*
X192646686Y-117135720D02*
X192630814Y-117103977D01*
X192630814Y-117103977D02*
X192630814Y-116977005D01*
X192630814Y-116977005D02*
X192646686Y-116945262D01*
X192646686Y-116945262D02*
X192678429Y-116929391D01*
X192678429Y-116929391D02*
X192741914Y-116929391D01*
X192741914Y-116929391D02*
X192773657Y-116945262D01*
X192773657Y-116945262D02*
X192789529Y-116977005D01*
X192789529Y-116977005D02*
X192789529Y-117008748D01*
X192789529Y-117008748D02*
X192630814Y-117040491D01*
X193059343Y-117135720D02*
X193027600Y-117151591D01*
X193027600Y-117151591D02*
X192964115Y-117151591D01*
X192964115Y-117151591D02*
X192932372Y-117135720D01*
X192932372Y-117135720D02*
X192916500Y-117103977D01*
X192916500Y-117103977D02*
X192916500Y-116977005D01*
X192916500Y-116977005D02*
X192932372Y-116945262D01*
X192932372Y-116945262D02*
X192964115Y-116929391D01*
X192964115Y-116929391D02*
X193027600Y-116929391D01*
X193027600Y-116929391D02*
X193059343Y-116945262D01*
X193059343Y-116945262D02*
X193075215Y-116977005D01*
X193075215Y-116977005D02*
X193075215Y-117008748D01*
X193075215Y-117008748D02*
X192916500Y-117040491D01*
X193218058Y-116929391D02*
X193218058Y-117262691D01*
X193218058Y-116945262D02*
X193249801Y-116929391D01*
X193249801Y-116929391D02*
X193313286Y-116929391D01*
X193313286Y-116929391D02*
X193345029Y-116945262D01*
X193345029Y-116945262D02*
X193360901Y-116961134D01*
X193360901Y-116961134D02*
X193376772Y-116992877D01*
X193376772Y-116992877D02*
X193376772Y-117088105D01*
X193376772Y-117088105D02*
X193360901Y-117119848D01*
X193360901Y-117119848D02*
X193345029Y-117135720D01*
X193345029Y-117135720D02*
X193313286Y-117151591D01*
X193313286Y-117151591D02*
X193249801Y-117151591D01*
X193249801Y-117151591D02*
X193218058Y-117135720D01*
X193837043Y-116818291D02*
X193900529Y-116818291D01*
X193900529Y-116818291D02*
X193932272Y-116834162D01*
X193932272Y-116834162D02*
X193964015Y-116865905D01*
X193964015Y-116865905D02*
X193979886Y-116929391D01*
X193979886Y-116929391D02*
X193979886Y-117040491D01*
X193979886Y-117040491D02*
X193964015Y-117103977D01*
X193964015Y-117103977D02*
X193932272Y-117135720D01*
X193932272Y-117135720D02*
X193900529Y-117151591D01*
X193900529Y-117151591D02*
X193837043Y-117151591D01*
X193837043Y-117151591D02*
X193805301Y-117135720D01*
X193805301Y-117135720D02*
X193773558Y-117103977D01*
X193773558Y-117103977D02*
X193757686Y-117040491D01*
X193757686Y-117040491D02*
X193757686Y-116929391D01*
X193757686Y-116929391D02*
X193773558Y-116865905D01*
X193773558Y-116865905D02*
X193805301Y-116834162D01*
X193805301Y-116834162D02*
X193837043Y-116818291D01*
X194265572Y-116929391D02*
X194265572Y-117151591D01*
X194122729Y-116929391D02*
X194122729Y-117103977D01*
X194122729Y-117103977D02*
X194138600Y-117135720D01*
X194138600Y-117135720D02*
X194170343Y-117151591D01*
X194170343Y-117151591D02*
X194217957Y-117151591D01*
X194217957Y-117151591D02*
X194249700Y-117135720D01*
X194249700Y-117135720D02*
X194265572Y-117119848D01*
X194376671Y-116929391D02*
X194503643Y-116929391D01*
X194424286Y-116818291D02*
X194424286Y-117103977D01*
X194424286Y-117103977D02*
X194440157Y-117135720D01*
X194440157Y-117135720D02*
X194471900Y-117151591D01*
X194471900Y-117151591D02*
X194503643Y-117151591D01*
X171322994Y-119418072D02*
X171322994Y-119529172D01*
X171148408Y-119576786D02*
X171148408Y-119418072D01*
X171148408Y-119418072D02*
X171481708Y-119418072D01*
X171481708Y-119418072D02*
X171481708Y-119576786D01*
X171148408Y-119687886D02*
X171370608Y-119862472D01*
X171370608Y-119687886D02*
X171148408Y-119862472D01*
X171370608Y-119989443D02*
X171037308Y-119989443D01*
X171354737Y-119989443D02*
X171370608Y-120021186D01*
X171370608Y-120021186D02*
X171370608Y-120084671D01*
X171370608Y-120084671D02*
X171354737Y-120116414D01*
X171354737Y-120116414D02*
X171338865Y-120132286D01*
X171338865Y-120132286D02*
X171307122Y-120148157D01*
X171307122Y-120148157D02*
X171211894Y-120148157D01*
X171211894Y-120148157D02*
X171180151Y-120132286D01*
X171180151Y-120132286D02*
X171164280Y-120116414D01*
X171164280Y-120116414D02*
X171148408Y-120084671D01*
X171148408Y-120084671D02*
X171148408Y-120021186D01*
X171148408Y-120021186D02*
X171164280Y-119989443D01*
X171148408Y-120338614D02*
X171164280Y-120306871D01*
X171164280Y-120306871D02*
X171180151Y-120291000D01*
X171180151Y-120291000D02*
X171211894Y-120275128D01*
X171211894Y-120275128D02*
X171307122Y-120275128D01*
X171307122Y-120275128D02*
X171338865Y-120291000D01*
X171338865Y-120291000D02*
X171354737Y-120306871D01*
X171354737Y-120306871D02*
X171370608Y-120338614D01*
X171370608Y-120338614D02*
X171370608Y-120386228D01*
X171370608Y-120386228D02*
X171354737Y-120417971D01*
X171354737Y-120417971D02*
X171338865Y-120433843D01*
X171338865Y-120433843D02*
X171307122Y-120449714D01*
X171307122Y-120449714D02*
X171211894Y-120449714D01*
X171211894Y-120449714D02*
X171180151Y-120433843D01*
X171180151Y-120433843D02*
X171164280Y-120417971D01*
X171164280Y-120417971D02*
X171148408Y-120386228D01*
X171148408Y-120386228D02*
X171148408Y-120338614D01*
X171164280Y-120576685D02*
X171148408Y-120608428D01*
X171148408Y-120608428D02*
X171148408Y-120671914D01*
X171148408Y-120671914D02*
X171164280Y-120703657D01*
X171164280Y-120703657D02*
X171196022Y-120719528D01*
X171196022Y-120719528D02*
X171211894Y-120719528D01*
X171211894Y-120719528D02*
X171243637Y-120703657D01*
X171243637Y-120703657D02*
X171259508Y-120671914D01*
X171259508Y-120671914D02*
X171259508Y-120624300D01*
X171259508Y-120624300D02*
X171275380Y-120592557D01*
X171275380Y-120592557D02*
X171307122Y-120576685D01*
X171307122Y-120576685D02*
X171322994Y-120576685D01*
X171322994Y-120576685D02*
X171354737Y-120592557D01*
X171354737Y-120592557D02*
X171370608Y-120624300D01*
X171370608Y-120624300D02*
X171370608Y-120671914D01*
X171370608Y-120671914D02*
X171354737Y-120703657D01*
X171164280Y-120989342D02*
X171148408Y-120957599D01*
X171148408Y-120957599D02*
X171148408Y-120894114D01*
X171148408Y-120894114D02*
X171164280Y-120862371D01*
X171164280Y-120862371D02*
X171196022Y-120846499D01*
X171196022Y-120846499D02*
X171322994Y-120846499D01*
X171322994Y-120846499D02*
X171354737Y-120862371D01*
X171354737Y-120862371D02*
X171370608Y-120894114D01*
X171370608Y-120894114D02*
X171370608Y-120957599D01*
X171370608Y-120957599D02*
X171354737Y-120989342D01*
X171354737Y-120989342D02*
X171322994Y-121005214D01*
X171322994Y-121005214D02*
X171291251Y-121005214D01*
X171291251Y-121005214D02*
X171259508Y-120846499D01*
X171148408Y-121290900D02*
X171481708Y-121290900D01*
X171164280Y-121290900D02*
X171148408Y-121259157D01*
X171148408Y-121259157D02*
X171148408Y-121195671D01*
X171148408Y-121195671D02*
X171164280Y-121163928D01*
X171164280Y-121163928D02*
X171180151Y-121148057D01*
X171180151Y-121148057D02*
X171211894Y-121132185D01*
X171211894Y-121132185D02*
X171307122Y-121132185D01*
X171307122Y-121132185D02*
X171338865Y-121148057D01*
X171338865Y-121148057D02*
X171354737Y-121163928D01*
X171354737Y-121163928D02*
X171370608Y-121195671D01*
X171370608Y-121195671D02*
X171370608Y-121259157D01*
X171370608Y-121259157D02*
X171354737Y-121290900D01*
X171180151Y-121894014D02*
X171164280Y-121878142D01*
X171164280Y-121878142D02*
X171148408Y-121830528D01*
X171148408Y-121830528D02*
X171148408Y-121798785D01*
X171148408Y-121798785D02*
X171164280Y-121751171D01*
X171164280Y-121751171D02*
X171196022Y-121719428D01*
X171196022Y-121719428D02*
X171227765Y-121703557D01*
X171227765Y-121703557D02*
X171291251Y-121687685D01*
X171291251Y-121687685D02*
X171338865Y-121687685D01*
X171338865Y-121687685D02*
X171402351Y-121703557D01*
X171402351Y-121703557D02*
X171434094Y-121719428D01*
X171434094Y-121719428D02*
X171465837Y-121751171D01*
X171465837Y-121751171D02*
X171481708Y-121798785D01*
X171481708Y-121798785D02*
X171481708Y-121830528D01*
X171481708Y-121830528D02*
X171465837Y-121878142D01*
X171465837Y-121878142D02*
X171449965Y-121894014D01*
X171148408Y-122084471D02*
X171164280Y-122052728D01*
X171164280Y-122052728D02*
X171180151Y-122036857D01*
X171180151Y-122036857D02*
X171211894Y-122020985D01*
X171211894Y-122020985D02*
X171307122Y-122020985D01*
X171307122Y-122020985D02*
X171338865Y-122036857D01*
X171338865Y-122036857D02*
X171354737Y-122052728D01*
X171354737Y-122052728D02*
X171370608Y-122084471D01*
X171370608Y-122084471D02*
X171370608Y-122132085D01*
X171370608Y-122132085D02*
X171354737Y-122163828D01*
X171354737Y-122163828D02*
X171338865Y-122179700D01*
X171338865Y-122179700D02*
X171307122Y-122195571D01*
X171307122Y-122195571D02*
X171211894Y-122195571D01*
X171211894Y-122195571D02*
X171180151Y-122179700D01*
X171180151Y-122179700D02*
X171164280Y-122163828D01*
X171164280Y-122163828D02*
X171148408Y-122132085D01*
X171148408Y-122132085D02*
X171148408Y-122084471D01*
X171370608Y-122338414D02*
X171037308Y-122338414D01*
X171354737Y-122338414D02*
X171370608Y-122370157D01*
X171370608Y-122370157D02*
X171370608Y-122433642D01*
X171370608Y-122433642D02*
X171354737Y-122465385D01*
X171354737Y-122465385D02*
X171338865Y-122481257D01*
X171338865Y-122481257D02*
X171307122Y-122497128D01*
X171307122Y-122497128D02*
X171211894Y-122497128D01*
X171211894Y-122497128D02*
X171180151Y-122481257D01*
X171180151Y-122481257D02*
X171164280Y-122465385D01*
X171164280Y-122465385D02*
X171148408Y-122433642D01*
X171148408Y-122433642D02*
X171148408Y-122370157D01*
X171148408Y-122370157D02*
X171164280Y-122338414D01*
X171370608Y-122639971D02*
X171037308Y-122639971D01*
X171354737Y-122639971D02*
X171370608Y-122671714D01*
X171370608Y-122671714D02*
X171370608Y-122735199D01*
X171370608Y-122735199D02*
X171354737Y-122766942D01*
X171354737Y-122766942D02*
X171338865Y-122782814D01*
X171338865Y-122782814D02*
X171307122Y-122798685D01*
X171307122Y-122798685D02*
X171211894Y-122798685D01*
X171211894Y-122798685D02*
X171180151Y-122782814D01*
X171180151Y-122782814D02*
X171164280Y-122766942D01*
X171164280Y-122766942D02*
X171148408Y-122735199D01*
X171148408Y-122735199D02*
X171148408Y-122671714D01*
X171148408Y-122671714D02*
X171164280Y-122639971D01*
X171164280Y-123068499D02*
X171148408Y-123036756D01*
X171148408Y-123036756D02*
X171148408Y-122973271D01*
X171148408Y-122973271D02*
X171164280Y-122941528D01*
X171164280Y-122941528D02*
X171196022Y-122925656D01*
X171196022Y-122925656D02*
X171322994Y-122925656D01*
X171322994Y-122925656D02*
X171354737Y-122941528D01*
X171354737Y-122941528D02*
X171370608Y-122973271D01*
X171370608Y-122973271D02*
X171370608Y-123036756D01*
X171370608Y-123036756D02*
X171354737Y-123068499D01*
X171354737Y-123068499D02*
X171322994Y-123084371D01*
X171322994Y-123084371D02*
X171291251Y-123084371D01*
X171291251Y-123084371D02*
X171259508Y-122925656D01*
X171148408Y-123227214D02*
X171370608Y-123227214D01*
X171307122Y-123227214D02*
X171338865Y-123243085D01*
X171338865Y-123243085D02*
X171354737Y-123258957D01*
X171354737Y-123258957D02*
X171370608Y-123290699D01*
X171370608Y-123290699D02*
X171370608Y-123322442D01*
X171148408Y-123687486D02*
X171481708Y-123687486D01*
X171148408Y-123877943D02*
X171338865Y-123735100D01*
X171481708Y-123877943D02*
X171291251Y-123687486D01*
X171164280Y-124147757D02*
X171148408Y-124116014D01*
X171148408Y-124116014D02*
X171148408Y-124052529D01*
X171148408Y-124052529D02*
X171164280Y-124020786D01*
X171164280Y-124020786D02*
X171196022Y-124004914D01*
X171196022Y-124004914D02*
X171322994Y-124004914D01*
X171322994Y-124004914D02*
X171354737Y-124020786D01*
X171354737Y-124020786D02*
X171370608Y-124052529D01*
X171370608Y-124052529D02*
X171370608Y-124116014D01*
X171370608Y-124116014D02*
X171354737Y-124147757D01*
X171354737Y-124147757D02*
X171322994Y-124163629D01*
X171322994Y-124163629D02*
X171291251Y-124163629D01*
X171291251Y-124163629D02*
X171259508Y-124004914D01*
X171164280Y-124433443D02*
X171148408Y-124401700D01*
X171148408Y-124401700D02*
X171148408Y-124338215D01*
X171148408Y-124338215D02*
X171164280Y-124306472D01*
X171164280Y-124306472D02*
X171196022Y-124290600D01*
X171196022Y-124290600D02*
X171322994Y-124290600D01*
X171322994Y-124290600D02*
X171354737Y-124306472D01*
X171354737Y-124306472D02*
X171370608Y-124338215D01*
X171370608Y-124338215D02*
X171370608Y-124401700D01*
X171370608Y-124401700D02*
X171354737Y-124433443D01*
X171354737Y-124433443D02*
X171322994Y-124449315D01*
X171322994Y-124449315D02*
X171291251Y-124449315D01*
X171291251Y-124449315D02*
X171259508Y-124290600D01*
X171370608Y-124592158D02*
X171037308Y-124592158D01*
X171354737Y-124592158D02*
X171370608Y-124623901D01*
X171370608Y-124623901D02*
X171370608Y-124687386D01*
X171370608Y-124687386D02*
X171354737Y-124719129D01*
X171354737Y-124719129D02*
X171338865Y-124735001D01*
X171338865Y-124735001D02*
X171307122Y-124750872D01*
X171307122Y-124750872D02*
X171211894Y-124750872D01*
X171211894Y-124750872D02*
X171180151Y-124735001D01*
X171180151Y-124735001D02*
X171164280Y-124719129D01*
X171164280Y-124719129D02*
X171148408Y-124687386D01*
X171148408Y-124687386D02*
X171148408Y-124623901D01*
X171148408Y-124623901D02*
X171164280Y-124592158D01*
X171481708Y-125211143D02*
X171481708Y-125274629D01*
X171481708Y-125274629D02*
X171465837Y-125306372D01*
X171465837Y-125306372D02*
X171434094Y-125338115D01*
X171434094Y-125338115D02*
X171370608Y-125353986D01*
X171370608Y-125353986D02*
X171259508Y-125353986D01*
X171259508Y-125353986D02*
X171196022Y-125338115D01*
X171196022Y-125338115D02*
X171164280Y-125306372D01*
X171164280Y-125306372D02*
X171148408Y-125274629D01*
X171148408Y-125274629D02*
X171148408Y-125211143D01*
X171148408Y-125211143D02*
X171164280Y-125179401D01*
X171164280Y-125179401D02*
X171196022Y-125147658D01*
X171196022Y-125147658D02*
X171259508Y-125131786D01*
X171259508Y-125131786D02*
X171370608Y-125131786D01*
X171370608Y-125131786D02*
X171434094Y-125147658D01*
X171434094Y-125147658D02*
X171465837Y-125179401D01*
X171465837Y-125179401D02*
X171481708Y-125211143D01*
X171370608Y-125639672D02*
X171148408Y-125639672D01*
X171370608Y-125496829D02*
X171196022Y-125496829D01*
X171196022Y-125496829D02*
X171164280Y-125512700D01*
X171164280Y-125512700D02*
X171148408Y-125544443D01*
X171148408Y-125544443D02*
X171148408Y-125592057D01*
X171148408Y-125592057D02*
X171164280Y-125623800D01*
X171164280Y-125623800D02*
X171180151Y-125639672D01*
X171370608Y-125750771D02*
X171370608Y-125877743D01*
X171481708Y-125798386D02*
X171196022Y-125798386D01*
X171196022Y-125798386D02*
X171164280Y-125814257D01*
X171164280Y-125814257D02*
X171148408Y-125846000D01*
X171148408Y-125846000D02*
X171148408Y-125877743D01*
X198165908Y-118976243D02*
X198499208Y-118976243D01*
X198165908Y-119166700D02*
X198356365Y-119023857D01*
X198499208Y-119166700D02*
X198308751Y-118976243D01*
X198181780Y-119436514D02*
X198165908Y-119404771D01*
X198165908Y-119404771D02*
X198165908Y-119341286D01*
X198165908Y-119341286D02*
X198181780Y-119309543D01*
X198181780Y-119309543D02*
X198213522Y-119293671D01*
X198213522Y-119293671D02*
X198340494Y-119293671D01*
X198340494Y-119293671D02*
X198372237Y-119309543D01*
X198372237Y-119309543D02*
X198388108Y-119341286D01*
X198388108Y-119341286D02*
X198388108Y-119404771D01*
X198388108Y-119404771D02*
X198372237Y-119436514D01*
X198372237Y-119436514D02*
X198340494Y-119452386D01*
X198340494Y-119452386D02*
X198308751Y-119452386D01*
X198308751Y-119452386D02*
X198277008Y-119293671D01*
X198181780Y-119722200D02*
X198165908Y-119690457D01*
X198165908Y-119690457D02*
X198165908Y-119626972D01*
X198165908Y-119626972D02*
X198181780Y-119595229D01*
X198181780Y-119595229D02*
X198213522Y-119579357D01*
X198213522Y-119579357D02*
X198340494Y-119579357D01*
X198340494Y-119579357D02*
X198372237Y-119595229D01*
X198372237Y-119595229D02*
X198388108Y-119626972D01*
X198388108Y-119626972D02*
X198388108Y-119690457D01*
X198388108Y-119690457D02*
X198372237Y-119722200D01*
X198372237Y-119722200D02*
X198340494Y-119738072D01*
X198340494Y-119738072D02*
X198308751Y-119738072D01*
X198308751Y-119738072D02*
X198277008Y-119579357D01*
X198388108Y-119880915D02*
X198054808Y-119880915D01*
X198372237Y-119880915D02*
X198388108Y-119912658D01*
X198388108Y-119912658D02*
X198388108Y-119976143D01*
X198388108Y-119976143D02*
X198372237Y-120007886D01*
X198372237Y-120007886D02*
X198356365Y-120023758D01*
X198356365Y-120023758D02*
X198324622Y-120039629D01*
X198324622Y-120039629D02*
X198229394Y-120039629D01*
X198229394Y-120039629D02*
X198197651Y-120023758D01*
X198197651Y-120023758D02*
X198181780Y-120007886D01*
X198181780Y-120007886D02*
X198165908Y-119976143D01*
X198165908Y-119976143D02*
X198165908Y-119912658D01*
X198165908Y-119912658D02*
X198181780Y-119880915D01*
X152257994Y-116293972D02*
X152257994Y-116405072D01*
X152083408Y-116452686D02*
X152083408Y-116293972D01*
X152083408Y-116293972D02*
X152416708Y-116293972D01*
X152416708Y-116293972D02*
X152416708Y-116452686D01*
X152083408Y-116563786D02*
X152305608Y-116738372D01*
X152305608Y-116563786D02*
X152083408Y-116738372D01*
X152305608Y-116865343D02*
X151972308Y-116865343D01*
X152289737Y-116865343D02*
X152305608Y-116897086D01*
X152305608Y-116897086D02*
X152305608Y-116960571D01*
X152305608Y-116960571D02*
X152289737Y-116992314D01*
X152289737Y-116992314D02*
X152273865Y-117008186D01*
X152273865Y-117008186D02*
X152242122Y-117024057D01*
X152242122Y-117024057D02*
X152146894Y-117024057D01*
X152146894Y-117024057D02*
X152115151Y-117008186D01*
X152115151Y-117008186D02*
X152099280Y-116992314D01*
X152099280Y-116992314D02*
X152083408Y-116960571D01*
X152083408Y-116960571D02*
X152083408Y-116897086D01*
X152083408Y-116897086D02*
X152099280Y-116865343D01*
X152083408Y-117214514D02*
X152099280Y-117182771D01*
X152099280Y-117182771D02*
X152115151Y-117166900D01*
X152115151Y-117166900D02*
X152146894Y-117151028D01*
X152146894Y-117151028D02*
X152242122Y-117151028D01*
X152242122Y-117151028D02*
X152273865Y-117166900D01*
X152273865Y-117166900D02*
X152289737Y-117182771D01*
X152289737Y-117182771D02*
X152305608Y-117214514D01*
X152305608Y-117214514D02*
X152305608Y-117262128D01*
X152305608Y-117262128D02*
X152289737Y-117293871D01*
X152289737Y-117293871D02*
X152273865Y-117309743D01*
X152273865Y-117309743D02*
X152242122Y-117325614D01*
X152242122Y-117325614D02*
X152146894Y-117325614D01*
X152146894Y-117325614D02*
X152115151Y-117309743D01*
X152115151Y-117309743D02*
X152099280Y-117293871D01*
X152099280Y-117293871D02*
X152083408Y-117262128D01*
X152083408Y-117262128D02*
X152083408Y-117214514D01*
X152099280Y-117452585D02*
X152083408Y-117484328D01*
X152083408Y-117484328D02*
X152083408Y-117547814D01*
X152083408Y-117547814D02*
X152099280Y-117579557D01*
X152099280Y-117579557D02*
X152131022Y-117595428D01*
X152131022Y-117595428D02*
X152146894Y-117595428D01*
X152146894Y-117595428D02*
X152178637Y-117579557D01*
X152178637Y-117579557D02*
X152194508Y-117547814D01*
X152194508Y-117547814D02*
X152194508Y-117500200D01*
X152194508Y-117500200D02*
X152210380Y-117468457D01*
X152210380Y-117468457D02*
X152242122Y-117452585D01*
X152242122Y-117452585D02*
X152257994Y-117452585D01*
X152257994Y-117452585D02*
X152289737Y-117468457D01*
X152289737Y-117468457D02*
X152305608Y-117500200D01*
X152305608Y-117500200D02*
X152305608Y-117547814D01*
X152305608Y-117547814D02*
X152289737Y-117579557D01*
X152099280Y-117865242D02*
X152083408Y-117833499D01*
X152083408Y-117833499D02*
X152083408Y-117770014D01*
X152083408Y-117770014D02*
X152099280Y-117738271D01*
X152099280Y-117738271D02*
X152131022Y-117722399D01*
X152131022Y-117722399D02*
X152257994Y-117722399D01*
X152257994Y-117722399D02*
X152289737Y-117738271D01*
X152289737Y-117738271D02*
X152305608Y-117770014D01*
X152305608Y-117770014D02*
X152305608Y-117833499D01*
X152305608Y-117833499D02*
X152289737Y-117865242D01*
X152289737Y-117865242D02*
X152257994Y-117881114D01*
X152257994Y-117881114D02*
X152226251Y-117881114D01*
X152226251Y-117881114D02*
X152194508Y-117722399D01*
X152083408Y-118166800D02*
X152416708Y-118166800D01*
X152099280Y-118166800D02*
X152083408Y-118135057D01*
X152083408Y-118135057D02*
X152083408Y-118071571D01*
X152083408Y-118071571D02*
X152099280Y-118039828D01*
X152099280Y-118039828D02*
X152115151Y-118023957D01*
X152115151Y-118023957D02*
X152146894Y-118008085D01*
X152146894Y-118008085D02*
X152242122Y-118008085D01*
X152242122Y-118008085D02*
X152273865Y-118023957D01*
X152273865Y-118023957D02*
X152289737Y-118039828D01*
X152289737Y-118039828D02*
X152305608Y-118071571D01*
X152305608Y-118071571D02*
X152305608Y-118135057D01*
X152305608Y-118135057D02*
X152289737Y-118166800D01*
X152115151Y-118769914D02*
X152099280Y-118754042D01*
X152099280Y-118754042D02*
X152083408Y-118706428D01*
X152083408Y-118706428D02*
X152083408Y-118674685D01*
X152083408Y-118674685D02*
X152099280Y-118627071D01*
X152099280Y-118627071D02*
X152131022Y-118595328D01*
X152131022Y-118595328D02*
X152162765Y-118579457D01*
X152162765Y-118579457D02*
X152226251Y-118563585D01*
X152226251Y-118563585D02*
X152273865Y-118563585D01*
X152273865Y-118563585D02*
X152337351Y-118579457D01*
X152337351Y-118579457D02*
X152369094Y-118595328D01*
X152369094Y-118595328D02*
X152400837Y-118627071D01*
X152400837Y-118627071D02*
X152416708Y-118674685D01*
X152416708Y-118674685D02*
X152416708Y-118706428D01*
X152416708Y-118706428D02*
X152400837Y-118754042D01*
X152400837Y-118754042D02*
X152384965Y-118769914D01*
X152083408Y-118960371D02*
X152099280Y-118928628D01*
X152099280Y-118928628D02*
X152115151Y-118912757D01*
X152115151Y-118912757D02*
X152146894Y-118896885D01*
X152146894Y-118896885D02*
X152242122Y-118896885D01*
X152242122Y-118896885D02*
X152273865Y-118912757D01*
X152273865Y-118912757D02*
X152289737Y-118928628D01*
X152289737Y-118928628D02*
X152305608Y-118960371D01*
X152305608Y-118960371D02*
X152305608Y-119007985D01*
X152305608Y-119007985D02*
X152289737Y-119039728D01*
X152289737Y-119039728D02*
X152273865Y-119055600D01*
X152273865Y-119055600D02*
X152242122Y-119071471D01*
X152242122Y-119071471D02*
X152146894Y-119071471D01*
X152146894Y-119071471D02*
X152115151Y-119055600D01*
X152115151Y-119055600D02*
X152099280Y-119039728D01*
X152099280Y-119039728D02*
X152083408Y-119007985D01*
X152083408Y-119007985D02*
X152083408Y-118960371D01*
X152305608Y-119214314D02*
X151972308Y-119214314D01*
X152289737Y-119214314D02*
X152305608Y-119246057D01*
X152305608Y-119246057D02*
X152305608Y-119309542D01*
X152305608Y-119309542D02*
X152289737Y-119341285D01*
X152289737Y-119341285D02*
X152273865Y-119357157D01*
X152273865Y-119357157D02*
X152242122Y-119373028D01*
X152242122Y-119373028D02*
X152146894Y-119373028D01*
X152146894Y-119373028D02*
X152115151Y-119357157D01*
X152115151Y-119357157D02*
X152099280Y-119341285D01*
X152099280Y-119341285D02*
X152083408Y-119309542D01*
X152083408Y-119309542D02*
X152083408Y-119246057D01*
X152083408Y-119246057D02*
X152099280Y-119214314D01*
X152305608Y-119515871D02*
X151972308Y-119515871D01*
X152289737Y-119515871D02*
X152305608Y-119547614D01*
X152305608Y-119547614D02*
X152305608Y-119611099D01*
X152305608Y-119611099D02*
X152289737Y-119642842D01*
X152289737Y-119642842D02*
X152273865Y-119658714D01*
X152273865Y-119658714D02*
X152242122Y-119674585D01*
X152242122Y-119674585D02*
X152146894Y-119674585D01*
X152146894Y-119674585D02*
X152115151Y-119658714D01*
X152115151Y-119658714D02*
X152099280Y-119642842D01*
X152099280Y-119642842D02*
X152083408Y-119611099D01*
X152083408Y-119611099D02*
X152083408Y-119547614D01*
X152083408Y-119547614D02*
X152099280Y-119515871D01*
X152099280Y-119944399D02*
X152083408Y-119912656D01*
X152083408Y-119912656D02*
X152083408Y-119849171D01*
X152083408Y-119849171D02*
X152099280Y-119817428D01*
X152099280Y-119817428D02*
X152131022Y-119801556D01*
X152131022Y-119801556D02*
X152257994Y-119801556D01*
X152257994Y-119801556D02*
X152289737Y-119817428D01*
X152289737Y-119817428D02*
X152305608Y-119849171D01*
X152305608Y-119849171D02*
X152305608Y-119912656D01*
X152305608Y-119912656D02*
X152289737Y-119944399D01*
X152289737Y-119944399D02*
X152257994Y-119960271D01*
X152257994Y-119960271D02*
X152226251Y-119960271D01*
X152226251Y-119960271D02*
X152194508Y-119801556D01*
X152083408Y-120103114D02*
X152305608Y-120103114D01*
X152242122Y-120103114D02*
X152273865Y-120118985D01*
X152273865Y-120118985D02*
X152289737Y-120134857D01*
X152289737Y-120134857D02*
X152305608Y-120166599D01*
X152305608Y-120166599D02*
X152305608Y-120198342D01*
X152083408Y-120563386D02*
X152416708Y-120563386D01*
X152083408Y-120753843D02*
X152273865Y-120611000D01*
X152416708Y-120753843D02*
X152226251Y-120563386D01*
X152099280Y-121023657D02*
X152083408Y-120991914D01*
X152083408Y-120991914D02*
X152083408Y-120928429D01*
X152083408Y-120928429D02*
X152099280Y-120896686D01*
X152099280Y-120896686D02*
X152131022Y-120880814D01*
X152131022Y-120880814D02*
X152257994Y-120880814D01*
X152257994Y-120880814D02*
X152289737Y-120896686D01*
X152289737Y-120896686D02*
X152305608Y-120928429D01*
X152305608Y-120928429D02*
X152305608Y-120991914D01*
X152305608Y-120991914D02*
X152289737Y-121023657D01*
X152289737Y-121023657D02*
X152257994Y-121039529D01*
X152257994Y-121039529D02*
X152226251Y-121039529D01*
X152226251Y-121039529D02*
X152194508Y-120880814D01*
X152099280Y-121309343D02*
X152083408Y-121277600D01*
X152083408Y-121277600D02*
X152083408Y-121214115D01*
X152083408Y-121214115D02*
X152099280Y-121182372D01*
X152099280Y-121182372D02*
X152131022Y-121166500D01*
X152131022Y-121166500D02*
X152257994Y-121166500D01*
X152257994Y-121166500D02*
X152289737Y-121182372D01*
X152289737Y-121182372D02*
X152305608Y-121214115D01*
X152305608Y-121214115D02*
X152305608Y-121277600D01*
X152305608Y-121277600D02*
X152289737Y-121309343D01*
X152289737Y-121309343D02*
X152257994Y-121325215D01*
X152257994Y-121325215D02*
X152226251Y-121325215D01*
X152226251Y-121325215D02*
X152194508Y-121166500D01*
X152305608Y-121468058D02*
X151972308Y-121468058D01*
X152289737Y-121468058D02*
X152305608Y-121499801D01*
X152305608Y-121499801D02*
X152305608Y-121563286D01*
X152305608Y-121563286D02*
X152289737Y-121595029D01*
X152289737Y-121595029D02*
X152273865Y-121610901D01*
X152273865Y-121610901D02*
X152242122Y-121626772D01*
X152242122Y-121626772D02*
X152146894Y-121626772D01*
X152146894Y-121626772D02*
X152115151Y-121610901D01*
X152115151Y-121610901D02*
X152099280Y-121595029D01*
X152099280Y-121595029D02*
X152083408Y-121563286D01*
X152083408Y-121563286D02*
X152083408Y-121499801D01*
X152083408Y-121499801D02*
X152099280Y-121468058D01*
X152416708Y-122087043D02*
X152416708Y-122150529D01*
X152416708Y-122150529D02*
X152400837Y-122182272D01*
X152400837Y-122182272D02*
X152369094Y-122214015D01*
X152369094Y-122214015D02*
X152305608Y-122229886D01*
X152305608Y-122229886D02*
X152194508Y-122229886D01*
X152194508Y-122229886D02*
X152131022Y-122214015D01*
X152131022Y-122214015D02*
X152099280Y-122182272D01*
X152099280Y-122182272D02*
X152083408Y-122150529D01*
X152083408Y-122150529D02*
X152083408Y-122087043D01*
X152083408Y-122087043D02*
X152099280Y-122055301D01*
X152099280Y-122055301D02*
X152131022Y-122023558D01*
X152131022Y-122023558D02*
X152194508Y-122007686D01*
X152194508Y-122007686D02*
X152305608Y-122007686D01*
X152305608Y-122007686D02*
X152369094Y-122023558D01*
X152369094Y-122023558D02*
X152400837Y-122055301D01*
X152400837Y-122055301D02*
X152416708Y-122087043D01*
X152305608Y-122515572D02*
X152083408Y-122515572D01*
X152305608Y-122372729D02*
X152131022Y-122372729D01*
X152131022Y-122372729D02*
X152099280Y-122388600D01*
X152099280Y-122388600D02*
X152083408Y-122420343D01*
X152083408Y-122420343D02*
X152083408Y-122467957D01*
X152083408Y-122467957D02*
X152099280Y-122499700D01*
X152099280Y-122499700D02*
X152115151Y-122515572D01*
X152305608Y-122626671D02*
X152305608Y-122753643D01*
X152416708Y-122674286D02*
X152131022Y-122674286D01*
X152131022Y-122674286D02*
X152099280Y-122690157D01*
X152099280Y-122690157D02*
X152083408Y-122721900D01*
X152083408Y-122721900D02*
X152083408Y-122753643D01*
D11*
X212740180Y-116285714D02*
X213740180Y-116285714D01*
X212740180Y-116857142D02*
X213311609Y-116428571D01*
X213740180Y-116857142D02*
X213168752Y-116285714D01*
X212787800Y-117666666D02*
X212740180Y-117571428D01*
X212740180Y-117571428D02*
X212740180Y-117380952D01*
X212740180Y-117380952D02*
X212787800Y-117285714D01*
X212787800Y-117285714D02*
X212883038Y-117238095D01*
X212883038Y-117238095D02*
X213263990Y-117238095D01*
X213263990Y-117238095D02*
X213359228Y-117285714D01*
X213359228Y-117285714D02*
X213406847Y-117380952D01*
X213406847Y-117380952D02*
X213406847Y-117571428D01*
X213406847Y-117571428D02*
X213359228Y-117666666D01*
X213359228Y-117666666D02*
X213263990Y-117714285D01*
X213263990Y-117714285D02*
X213168752Y-117714285D01*
X213168752Y-117714285D02*
X213073514Y-117238095D01*
X212787800Y-118523809D02*
X212740180Y-118428571D01*
X212740180Y-118428571D02*
X212740180Y-118238095D01*
X212740180Y-118238095D02*
X212787800Y-118142857D01*
X212787800Y-118142857D02*
X212883038Y-118095238D01*
X212883038Y-118095238D02*
X213263990Y-118095238D01*
X213263990Y-118095238D02*
X213359228Y-118142857D01*
X213359228Y-118142857D02*
X213406847Y-118238095D01*
X213406847Y-118238095D02*
X213406847Y-118428571D01*
X213406847Y-118428571D02*
X213359228Y-118523809D01*
X213359228Y-118523809D02*
X213263990Y-118571428D01*
X213263990Y-118571428D02*
X213168752Y-118571428D01*
X213168752Y-118571428D02*
X213073514Y-118095238D01*
X213406847Y-119000000D02*
X212406847Y-119000000D01*
X213359228Y-119000000D02*
X213406847Y-119095238D01*
X213406847Y-119095238D02*
X213406847Y-119285714D01*
X213406847Y-119285714D02*
X213359228Y-119380952D01*
X213359228Y-119380952D02*
X213311609Y-119428571D01*
X213311609Y-119428571D02*
X213216371Y-119476190D01*
X213216371Y-119476190D02*
X212930657Y-119476190D01*
X212930657Y-119476190D02*
X212835419Y-119428571D01*
X212835419Y-119428571D02*
X212787800Y-119380952D01*
X212787800Y-119380952D02*
X212740180Y-119285714D01*
X212740180Y-119285714D02*
X212740180Y-119095238D01*
X212740180Y-119095238D02*
X212787800Y-119000000D01*
X213740180Y-120857143D02*
X213740180Y-121047619D01*
X213740180Y-121047619D02*
X213692561Y-121142857D01*
X213692561Y-121142857D02*
X213597323Y-121238095D01*
X213597323Y-121238095D02*
X213406847Y-121285714D01*
X213406847Y-121285714D02*
X213073514Y-121285714D01*
X213073514Y-121285714D02*
X212883038Y-121238095D01*
X212883038Y-121238095D02*
X212787800Y-121142857D01*
X212787800Y-121142857D02*
X212740180Y-121047619D01*
X212740180Y-121047619D02*
X212740180Y-120857143D01*
X212740180Y-120857143D02*
X212787800Y-120761905D01*
X212787800Y-120761905D02*
X212883038Y-120666667D01*
X212883038Y-120666667D02*
X213073514Y-120619048D01*
X213073514Y-120619048D02*
X213406847Y-120619048D01*
X213406847Y-120619048D02*
X213597323Y-120666667D01*
X213597323Y-120666667D02*
X213692561Y-120761905D01*
X213692561Y-120761905D02*
X213740180Y-120857143D01*
X213406847Y-122142857D02*
X212740180Y-122142857D01*
X213406847Y-121714286D02*
X212883038Y-121714286D01*
X212883038Y-121714286D02*
X212787800Y-121761905D01*
X212787800Y-121761905D02*
X212740180Y-121857143D01*
X212740180Y-121857143D02*
X212740180Y-122000000D01*
X212740180Y-122000000D02*
X212787800Y-122095238D01*
X212787800Y-122095238D02*
X212835419Y-122142857D01*
X213406847Y-122476191D02*
X213406847Y-122857143D01*
X213740180Y-122619048D02*
X212883038Y-122619048D01*
X212883038Y-122619048D02*
X212787800Y-122666667D01*
X212787800Y-122666667D02*
X212740180Y-122761905D01*
X212740180Y-122761905D02*
X212740180Y-122857143D01*
D10*
X197864208Y-119222250D02*
X197864208Y-119285736D01*
X197864208Y-119285736D02*
X197848337Y-119317479D01*
X197848337Y-119317479D02*
X197816594Y-119349222D01*
X197816594Y-119349222D02*
X197753108Y-119365093D01*
X197753108Y-119365093D02*
X197642008Y-119365093D01*
X197642008Y-119365093D02*
X197578522Y-119349222D01*
X197578522Y-119349222D02*
X197546780Y-119317479D01*
X197546780Y-119317479D02*
X197530908Y-119285736D01*
X197530908Y-119285736D02*
X197530908Y-119222250D01*
X197530908Y-119222250D02*
X197546780Y-119190508D01*
X197546780Y-119190508D02*
X197578522Y-119158765D01*
X197578522Y-119158765D02*
X197642008Y-119142893D01*
X197642008Y-119142893D02*
X197753108Y-119142893D01*
X197753108Y-119142893D02*
X197816594Y-119158765D01*
X197816594Y-119158765D02*
X197848337Y-119190508D01*
X197848337Y-119190508D02*
X197864208Y-119222250D01*
X197753108Y-119650779D02*
X197530908Y-119650779D01*
X197753108Y-119507936D02*
X197578522Y-119507936D01*
X197578522Y-119507936D02*
X197546780Y-119523807D01*
X197546780Y-119523807D02*
X197530908Y-119555550D01*
X197530908Y-119555550D02*
X197530908Y-119603164D01*
X197530908Y-119603164D02*
X197546780Y-119634907D01*
X197546780Y-119634907D02*
X197562651Y-119650779D01*
X197753108Y-119761878D02*
X197753108Y-119888850D01*
X197864208Y-119809493D02*
X197578522Y-119809493D01*
X197578522Y-119809493D02*
X197546780Y-119825364D01*
X197546780Y-119825364D02*
X197530908Y-119857107D01*
X197530908Y-119857107D02*
X197530908Y-119888850D01*
D12*
%TO.C,U3*%
X170950000Y-82940000D02*
G75*
G02*
X170650000Y-82940000I-150000J0D01*
G01*
X170650000Y-82940000D02*
G75*
G02*
X170950000Y-82940000I150000J0D01*
G01*
D11*
%TO.C,H2*%
X85950000Y-64250000D02*
G75*
G02*
X80550000Y-64250000I-2700000J0D01*
G01*
X80550000Y-64250000D02*
G75*
G02*
X85950000Y-64250000I2700000J0D01*
G01*
D12*
%TO.C,U9*%
X97370000Y-117930000D02*
G75*
G02*
X97070000Y-117930000I-150000J0D01*
G01*
X97070000Y-117930000D02*
G75*
G02*
X97370000Y-117930000I150000J0D01*
G01*
%TO.C,U7*%
X111912500Y-82632500D02*
G75*
G02*
X111612500Y-82632500I-150000J0D01*
G01*
X111612500Y-82632500D02*
G75*
G02*
X111912500Y-82632500I150000J0D01*
G01*
D11*
%TO.C,H1*%
X217200000Y-64000000D02*
G75*
G02*
X211800000Y-64000000I-2700000J0D01*
G01*
X211800000Y-64000000D02*
G75*
G02*
X217200000Y-64000000I2700000J0D01*
G01*
D12*
%TO.C,U8*%
X94592500Y-92112500D02*
G75*
G02*
X94292500Y-92112500I-150000J0D01*
G01*
X94292500Y-92112500D02*
G75*
G02*
X94592500Y-92112500I150000J0D01*
G01*
%TO.C,U5*%
X142450000Y-82920000D02*
G75*
G02*
X142150000Y-82920000I-150000J0D01*
G01*
X142150000Y-82920000D02*
G75*
G02*
X142450000Y-82920000I150000J0D01*
G01*
%TO.C,U4*%
X153630000Y-92420000D02*
G75*
G02*
X153330000Y-92420000I-150000J0D01*
G01*
X153330000Y-92420000D02*
G75*
G02*
X153630000Y-92420000I150000J0D01*
G01*
%TO.C,U6*%
X125130000Y-92400000D02*
G75*
G02*
X124830000Y-92400000I-150000J0D01*
G01*
X124830000Y-92400000D02*
G75*
G02*
X125130000Y-92400000I150000J0D01*
G01*
%TO.C,U10*%
X114690000Y-108450000D02*
G75*
G02*
X114390000Y-108450000I-150000J0D01*
G01*
X114390000Y-108450000D02*
G75*
G02*
X114690000Y-108450000I150000J0D01*
G01*
%TO.C,U1*%
X201930000Y-82920000D02*
G75*
G02*
X201630000Y-82920000I-150000J0D01*
G01*
X201630000Y-82920000D02*
G75*
G02*
X201930000Y-82920000I150000J0D01*
G01*
D11*
%TO.C,H4*%
X85950000Y-136500000D02*
G75*
G02*
X80550000Y-136500000I-2700000J0D01*
G01*
X80550000Y-136500000D02*
G75*
G02*
X85950000Y-136500000I2700000J0D01*
G01*
D12*
%TO.C,U12*%
X145515000Y-108450000D02*
G75*
G02*
X145215000Y-108450000I-150000J0D01*
G01*
X145215000Y-108450000D02*
G75*
G02*
X145515000Y-108450000I150000J0D01*
G01*
%TO.C,U11*%
X128195000Y-117930000D02*
G75*
G02*
X127895000Y-117930000I-150000J0D01*
G01*
X127895000Y-117930000D02*
G75*
G02*
X128195000Y-117930000I150000J0D01*
G01*
D11*
%TO.C,H3*%
X217200000Y-136500000D02*
G75*
G02*
X211800000Y-136500000I-2700000J0D01*
G01*
X211800000Y-136500000D02*
G75*
G02*
X217200000Y-136500000I2700000J0D01*
G01*
D12*
%TO.C,U2*%
X184610000Y-92400000D02*
G75*
G02*
X184310000Y-92400000I-150000J0D01*
G01*
X184310000Y-92400000D02*
G75*
G02*
X184610000Y-92400000I150000J0D01*
G01*
%TD*%
M02*
